G04 #@! TF.GenerationSoftware,KiCad,Pcbnew,8.0.5*
G04 #@! TF.CreationDate,2024-10-29T22:07:05+01:00*
G04 #@! TF.ProjectId,pwm_i2c,70776d5f-6932-4632-9e6b-696361645f70,rev?*
G04 #@! TF.SameCoordinates,Original*
G04 #@! TF.FileFunction,Soldermask,Bot*
G04 #@! TF.FilePolarity,Negative*
%FSLAX46Y46*%
G04 Gerber Fmt 4.6, Leading zero omitted, Abs format (unit mm)*
G04 Created by KiCad (PCBNEW 8.0.5) date 2024-10-29 22:07:05*
%MOMM*%
%LPD*%
G01*
G04 APERTURE LIST*
G04 Aperture macros list*
%AMRoundRect*
0 Rectangle with rounded corners*
0 $1 Rounding radius*
0 $2 $3 $4 $5 $6 $7 $8 $9 X,Y pos of 4 corners*
0 Add a 4 corners polygon primitive as box body*
4,1,4,$2,$3,$4,$5,$6,$7,$8,$9,$2,$3,0*
0 Add four circle primitives for the rounded corners*
1,1,$1+$1,$2,$3*
1,1,$1+$1,$4,$5*
1,1,$1+$1,$6,$7*
1,1,$1+$1,$8,$9*
0 Add four rect primitives between the rounded corners*
20,1,$1+$1,$2,$3,$4,$5,0*
20,1,$1+$1,$4,$5,$6,$7,0*
20,1,$1+$1,$6,$7,$8,$9,0*
20,1,$1+$1,$8,$9,$2,$3,0*%
G04 Aperture macros list end*
%ADD10C,2.500000*%
%ADD11R,1.524000X1.524000*%
%ADD12C,1.524000*%
%ADD13R,1.700000X1.700000*%
%ADD14O,1.700000X1.700000*%
%ADD15RoundRect,0.250000X0.650000X1.550000X-0.650000X1.550000X-0.650000X-1.550000X0.650000X-1.550000X0*%
%ADD16O,1.800000X3.600000*%
%ADD17RoundRect,0.250000X-0.650000X-1.550000X0.650000X-1.550000X0.650000X1.550000X-0.650000X1.550000X0*%
%ADD18C,3.200000*%
%ADD19R,1.050000X1.500000*%
%ADD20O,1.050000X1.500000*%
%ADD21RoundRect,0.375000X0.625000X-0.375000X0.625000X0.375000X-0.625000X0.375000X-0.625000X-0.375000X0*%
%ADD22O,2.000000X1.500000*%
%ADD23RoundRect,0.250000X0.625000X-0.375000X0.625000X0.375000X-0.625000X0.375000X-0.625000X-0.375000X0*%
%ADD24RoundRect,0.250000X-0.625000X0.375000X-0.625000X-0.375000X0.625000X-0.375000X0.625000X0.375000X0*%
%ADD25RoundRect,0.250000X0.625000X-0.312500X0.625000X0.312500X-0.625000X0.312500X-0.625000X-0.312500X0*%
%ADD26RoundRect,0.250000X-0.625000X0.312500X-0.625000X-0.312500X0.625000X-0.312500X0.625000X0.312500X0*%
G04 APERTURE END LIST*
D10*
X52900000Y-100700000D02*
X54600000Y-102400000D01*
X54600000Y-106800000D02*
X55200000Y-107500000D01*
X55200000Y-107500000D02*
X73200000Y-107400000D01*
X53000000Y-26000000D02*
X53799991Y-25099991D01*
X53000000Y-26000000D02*
X52900000Y-92500000D01*
X112000000Y-28500000D02*
X112000000Y-25100000D01*
X54600000Y-102400000D02*
X54600000Y-106800000D01*
X112000000Y-25100000D02*
X53800000Y-25100000D01*
X52900000Y-92500000D02*
X52900000Y-100700000D01*
X73200000Y-107400000D02*
X76300000Y-104200000D01*
D11*
X107850000Y-106550000D03*
D12*
X107850000Y-104550000D03*
X107850000Y-102550000D03*
X107850000Y-100550000D03*
D13*
X55375000Y-59975000D03*
D14*
X55375000Y-62515000D03*
X55375000Y-65055000D03*
X55375000Y-67595000D03*
X55375000Y-70135000D03*
X55375000Y-72675000D03*
D15*
X92390000Y-28350000D03*
D16*
X88580000Y-28350000D03*
X84770000Y-28350000D03*
X80960000Y-28350000D03*
X77150000Y-28350000D03*
D13*
X111125000Y-59975000D03*
D14*
X111125000Y-62515000D03*
X111125000Y-65055000D03*
X111125000Y-67595000D03*
X111125000Y-70135000D03*
X111125000Y-72675000D03*
D17*
X54610000Y-104150000D03*
D16*
X58420000Y-104150000D03*
X62230000Y-104150000D03*
X66040000Y-104150000D03*
X69850000Y-104150000D03*
D18*
X109200000Y-39100000D03*
D11*
X100315000Y-106550000D03*
D12*
X100315000Y-104550000D03*
X100315000Y-102550000D03*
X100315000Y-100550000D03*
D19*
X107740000Y-65600000D03*
D20*
X106470000Y-65600000D03*
X105200000Y-65600000D03*
D18*
X57300000Y-39100000D03*
D21*
X99400000Y-69800000D03*
D22*
X99400000Y-67300000D03*
X99400000Y-64800000D03*
X99400000Y-62300000D03*
D18*
X57335393Y-92953512D03*
X109200000Y-93000000D03*
D15*
X70725000Y-28350000D03*
D16*
X66915000Y-28350000D03*
X63105000Y-28350000D03*
X59295000Y-28350000D03*
X55485000Y-28350000D03*
D15*
X112010000Y-28350000D03*
D16*
X108200000Y-28350000D03*
D17*
X76385000Y-104150000D03*
D16*
X80195000Y-104150000D03*
X84005000Y-104150000D03*
X87815000Y-104150000D03*
X91625000Y-104150000D03*
D23*
X79500000Y-61700000D03*
X79500000Y-58900000D03*
X63200000Y-84137500D03*
X63200000Y-81337500D03*
D24*
X91200000Y-63700000D03*
X91200000Y-66500000D03*
X88800000Y-63700000D03*
X88800000Y-66500000D03*
X67800000Y-63800000D03*
X67800000Y-66600000D03*
X86500000Y-63700000D03*
X86500000Y-66500000D03*
D23*
X77200000Y-66500000D03*
X77200000Y-63700000D03*
X58600000Y-84100000D03*
X58600000Y-81300000D03*
X79500000Y-66400000D03*
X79500000Y-63600000D03*
D25*
X84100000Y-61762500D03*
X84100000Y-58837500D03*
D26*
X72400000Y-71075000D03*
X72400000Y-74000000D03*
X79400000Y-71075000D03*
X79400000Y-74000000D03*
D25*
X65500000Y-79362500D03*
X65500000Y-76437500D03*
D26*
X70100000Y-71075000D03*
X70100000Y-74000000D03*
X84000000Y-71075000D03*
X84000000Y-74000000D03*
D25*
X58600000Y-79362500D03*
X58600000Y-76437500D03*
D23*
X65500000Y-84137500D03*
X65500000Y-81337500D03*
D24*
X93600000Y-63700000D03*
X93600000Y-66500000D03*
D26*
X77100000Y-71075000D03*
X77100000Y-74000000D03*
D23*
X81800000Y-66500000D03*
X81800000Y-63700000D03*
D25*
X81787532Y-61771015D03*
X81787532Y-58846015D03*
D24*
X72400000Y-63800000D03*
X72400000Y-66600000D03*
D26*
X74800000Y-71037500D03*
X74800000Y-73962500D03*
D25*
X60900000Y-79362500D03*
X60900000Y-76437500D03*
D24*
X70100000Y-63800000D03*
X70100000Y-66600000D03*
X74700000Y-63800000D03*
X74700000Y-66600000D03*
D25*
X77195001Y-61765007D03*
X77195001Y-58840007D03*
D23*
X84105338Y-66496645D03*
X84105338Y-63696645D03*
X60900000Y-84100000D03*
X60900000Y-81300000D03*
D26*
X67800000Y-71075000D03*
X67800000Y-74000000D03*
X81700000Y-71075000D03*
X81700000Y-74000000D03*
D25*
X63200000Y-79362500D03*
X63200000Y-76437500D03*
M02*
