G04 #@! TF.GenerationSoftware,KiCad,Pcbnew,8.0.5*
G04 #@! TF.CreationDate,2024-10-29T22:07:05+01:00*
G04 #@! TF.ProjectId,pwm_i2c,70776d5f-6932-4632-9e6b-696361645f70,rev?*
G04 #@! TF.SameCoordinates,Original*
G04 #@! TF.FileFunction,Legend,Top*
G04 #@! TF.FilePolarity,Positive*
%FSLAX46Y46*%
G04 Gerber Fmt 4.6, Leading zero omitted, Abs format (unit mm)*
G04 Created by KiCad (PCBNEW 8.0.5) date 2024-10-29 22:07:05*
%MOMM*%
%LPD*%
G01*
G04 APERTURE LIST*
G04 Aperture macros list*
%AMRoundRect*
0 Rectangle with rounded corners*
0 $1 Rounding radius*
0 $2 $3 $4 $5 $6 $7 $8 $9 X,Y pos of 4 corners*
0 Add a 4 corners polygon primitive as box body*
4,1,4,$2,$3,$4,$5,$6,$7,$8,$9,$2,$3,0*
0 Add four circle primitives for the rounded corners*
1,1,$1+$1,$2,$3*
1,1,$1+$1,$4,$5*
1,1,$1+$1,$6,$7*
1,1,$1+$1,$8,$9*
0 Add four rect primitives between the rounded corners*
20,1,$1+$1,$2,$3,$4,$5,0*
20,1,$1+$1,$4,$5,$6,$7,0*
20,1,$1+$1,$6,$7,$8,$9,0*
20,1,$1+$1,$8,$9,$2,$3,0*%
%AMFreePoly0*
4,1,6,1.000000,0.000000,0.500000,-0.750000,-0.500000,-0.750000,-0.500000,0.750000,0.500000,0.750000,1.000000,0.000000,1.000000,0.000000,$1*%
%AMFreePoly1*
4,1,6,0.500000,-0.750000,-0.650000,-0.750000,-0.150000,0.000000,-0.650000,0.750000,0.500000,0.750000,0.500000,-0.750000,0.500000,-0.750000,$1*%
G04 Aperture macros list end*
%ADD10C,0.150000*%
%ADD11C,0.120000*%
%ADD12C,2.500000*%
%ADD13C,2.400000*%
%ADD14C,0.100000*%
%ADD15RoundRect,0.150000X-0.800000X-0.150000X0.800000X-0.150000X0.800000X0.150000X-0.800000X0.150000X0*%
%ADD16RoundRect,0.250000X-0.625000X0.312500X-0.625000X-0.312500X0.625000X-0.312500X0.625000X0.312500X0*%
%ADD17R,1.524000X1.524000*%
%ADD18C,1.524000*%
%ADD19RoundRect,0.250000X1.100000X-0.500000X1.100000X0.500000X-1.100000X0.500000X-1.100000X-0.500000X0*%
%ADD20FreePoly0,180.000000*%
%ADD21FreePoly1,180.000000*%
%ADD22R,1.700000X1.700000*%
%ADD23O,1.700000X1.700000*%
%ADD24RoundRect,0.250000X0.650000X1.550000X-0.650000X1.550000X-0.650000X-1.550000X0.650000X-1.550000X0*%
%ADD25O,1.800000X3.600000*%
%ADD26RoundRect,0.250000X0.625000X-0.312500X0.625000X0.312500X-0.625000X0.312500X-0.625000X-0.312500X0*%
%ADD27RoundRect,0.250000X0.312500X0.625000X-0.312500X0.625000X-0.312500X-0.625000X0.312500X-0.625000X0*%
%ADD28RoundRect,0.100000X-0.637500X-0.100000X0.637500X-0.100000X0.637500X0.100000X-0.637500X0.100000X0*%
%ADD29RoundRect,0.250000X-0.650000X-1.550000X0.650000X-1.550000X0.650000X1.550000X-0.650000X1.550000X0*%
%ADD30C,3.200000*%
%ADD31RoundRect,0.150000X0.800000X0.150000X-0.800000X0.150000X-0.800000X-0.150000X0.800000X-0.150000X0*%
%ADD32RoundRect,0.150000X-0.150000X0.825000X-0.150000X-0.825000X0.150000X-0.825000X0.150000X0.825000X0*%
%ADD33RoundRect,0.250000X-0.925000X0.412500X-0.925000X-0.412500X0.925000X-0.412500X0.925000X0.412500X0*%
%ADD34RoundRect,0.250000X0.550000X-1.250000X0.550000X1.250000X-0.550000X1.250000X-0.550000X-1.250000X0*%
%ADD35R,3.700000X1.100000*%
%ADD36R,1.050000X1.500000*%
%ADD37O,1.050000X1.500000*%
%ADD38RoundRect,0.375000X0.625000X-0.375000X0.625000X0.375000X-0.625000X0.375000X-0.625000X-0.375000X0*%
%ADD39O,2.000000X1.500000*%
%ADD40RoundRect,0.250001X-0.462499X-0.624999X0.462499X-0.624999X0.462499X0.624999X-0.462499X0.624999X0*%
%ADD41RoundRect,0.250000X-1.825000X-0.700000X1.825000X-0.700000X1.825000X0.700000X-1.825000X0.700000X0*%
G04 APERTURE END LIST*
D10*
X77304761Y-39850057D02*
X77209523Y-39802438D01*
X77209523Y-39802438D02*
X77114285Y-39707200D01*
X77114285Y-39707200D02*
X76971428Y-39564342D01*
X76971428Y-39564342D02*
X76876190Y-39516723D01*
X76876190Y-39516723D02*
X76780952Y-39516723D01*
X76828571Y-39754819D02*
X76733333Y-39707200D01*
X76733333Y-39707200D02*
X76638095Y-39611961D01*
X76638095Y-39611961D02*
X76590476Y-39421485D01*
X76590476Y-39421485D02*
X76590476Y-39088152D01*
X76590476Y-39088152D02*
X76638095Y-38897676D01*
X76638095Y-38897676D02*
X76733333Y-38802438D01*
X76733333Y-38802438D02*
X76828571Y-38754819D01*
X76828571Y-38754819D02*
X77019047Y-38754819D01*
X77019047Y-38754819D02*
X77114285Y-38802438D01*
X77114285Y-38802438D02*
X77209523Y-38897676D01*
X77209523Y-38897676D02*
X77257142Y-39088152D01*
X77257142Y-39088152D02*
X77257142Y-39421485D01*
X77257142Y-39421485D02*
X77209523Y-39611961D01*
X77209523Y-39611961D02*
X77114285Y-39707200D01*
X77114285Y-39707200D02*
X77019047Y-39754819D01*
X77019047Y-39754819D02*
X76828571Y-39754819D01*
X77828571Y-39183390D02*
X77733333Y-39135771D01*
X77733333Y-39135771D02*
X77685714Y-39088152D01*
X77685714Y-39088152D02*
X77638095Y-38992914D01*
X77638095Y-38992914D02*
X77638095Y-38945295D01*
X77638095Y-38945295D02*
X77685714Y-38850057D01*
X77685714Y-38850057D02*
X77733333Y-38802438D01*
X77733333Y-38802438D02*
X77828571Y-38754819D01*
X77828571Y-38754819D02*
X78019047Y-38754819D01*
X78019047Y-38754819D02*
X78114285Y-38802438D01*
X78114285Y-38802438D02*
X78161904Y-38850057D01*
X78161904Y-38850057D02*
X78209523Y-38945295D01*
X78209523Y-38945295D02*
X78209523Y-38992914D01*
X78209523Y-38992914D02*
X78161904Y-39088152D01*
X78161904Y-39088152D02*
X78114285Y-39135771D01*
X78114285Y-39135771D02*
X78019047Y-39183390D01*
X78019047Y-39183390D02*
X77828571Y-39183390D01*
X77828571Y-39183390D02*
X77733333Y-39231009D01*
X77733333Y-39231009D02*
X77685714Y-39278628D01*
X77685714Y-39278628D02*
X77638095Y-39373866D01*
X77638095Y-39373866D02*
X77638095Y-39564342D01*
X77638095Y-39564342D02*
X77685714Y-39659580D01*
X77685714Y-39659580D02*
X77733333Y-39707200D01*
X77733333Y-39707200D02*
X77828571Y-39754819D01*
X77828571Y-39754819D02*
X78019047Y-39754819D01*
X78019047Y-39754819D02*
X78114285Y-39707200D01*
X78114285Y-39707200D02*
X78161904Y-39659580D01*
X78161904Y-39659580D02*
X78209523Y-39564342D01*
X78209523Y-39564342D02*
X78209523Y-39373866D01*
X78209523Y-39373866D02*
X78161904Y-39278628D01*
X78161904Y-39278628D02*
X78114285Y-39231009D01*
X78114285Y-39231009D02*
X78019047Y-39183390D01*
X66054819Y-69366666D02*
X65578628Y-69699999D01*
X66054819Y-69938094D02*
X65054819Y-69938094D01*
X65054819Y-69938094D02*
X65054819Y-69557142D01*
X65054819Y-69557142D02*
X65102438Y-69461904D01*
X65102438Y-69461904D02*
X65150057Y-69414285D01*
X65150057Y-69414285D02*
X65245295Y-69366666D01*
X65245295Y-69366666D02*
X65388152Y-69366666D01*
X65388152Y-69366666D02*
X65483390Y-69414285D01*
X65483390Y-69414285D02*
X65531009Y-69461904D01*
X65531009Y-69461904D02*
X65578628Y-69557142D01*
X65578628Y-69557142D02*
X65578628Y-69938094D01*
X65054819Y-69033332D02*
X65054819Y-68366666D01*
X65054819Y-68366666D02*
X66054819Y-68795237D01*
X100128571Y-40250057D02*
X100033333Y-40202438D01*
X100033333Y-40202438D02*
X99938095Y-40107200D01*
X99938095Y-40107200D02*
X99795238Y-39964342D01*
X99795238Y-39964342D02*
X99700000Y-39916723D01*
X99700000Y-39916723D02*
X99604762Y-39916723D01*
X99652381Y-40154819D02*
X99557143Y-40107200D01*
X99557143Y-40107200D02*
X99461905Y-40011961D01*
X99461905Y-40011961D02*
X99414286Y-39821485D01*
X99414286Y-39821485D02*
X99414286Y-39488152D01*
X99414286Y-39488152D02*
X99461905Y-39297676D01*
X99461905Y-39297676D02*
X99557143Y-39202438D01*
X99557143Y-39202438D02*
X99652381Y-39154819D01*
X99652381Y-39154819D02*
X99842857Y-39154819D01*
X99842857Y-39154819D02*
X99938095Y-39202438D01*
X99938095Y-39202438D02*
X100033333Y-39297676D01*
X100033333Y-39297676D02*
X100080952Y-39488152D01*
X100080952Y-39488152D02*
X100080952Y-39821485D01*
X100080952Y-39821485D02*
X100033333Y-40011961D01*
X100033333Y-40011961D02*
X99938095Y-40107200D01*
X99938095Y-40107200D02*
X99842857Y-40154819D01*
X99842857Y-40154819D02*
X99652381Y-40154819D01*
X101033333Y-40154819D02*
X100461905Y-40154819D01*
X100747619Y-40154819D02*
X100747619Y-39154819D01*
X100747619Y-39154819D02*
X100652381Y-39297676D01*
X100652381Y-39297676D02*
X100557143Y-39392914D01*
X100557143Y-39392914D02*
X100461905Y-39440533D01*
X101890476Y-39488152D02*
X101890476Y-40154819D01*
X101652381Y-39107200D02*
X101414286Y-39821485D01*
X101414286Y-39821485D02*
X102033333Y-39821485D01*
X68454819Y-69642857D02*
X67978628Y-69976190D01*
X68454819Y-70214285D02*
X67454819Y-70214285D01*
X67454819Y-70214285D02*
X67454819Y-69833333D01*
X67454819Y-69833333D02*
X67502438Y-69738095D01*
X67502438Y-69738095D02*
X67550057Y-69690476D01*
X67550057Y-69690476D02*
X67645295Y-69642857D01*
X67645295Y-69642857D02*
X67788152Y-69642857D01*
X67788152Y-69642857D02*
X67883390Y-69690476D01*
X67883390Y-69690476D02*
X67931009Y-69738095D01*
X67931009Y-69738095D02*
X67978628Y-69833333D01*
X67978628Y-69833333D02*
X67978628Y-70214285D01*
X67454819Y-69309523D02*
X67454819Y-68690476D01*
X67454819Y-68690476D02*
X67835771Y-69023809D01*
X67835771Y-69023809D02*
X67835771Y-68880952D01*
X67835771Y-68880952D02*
X67883390Y-68785714D01*
X67883390Y-68785714D02*
X67931009Y-68738095D01*
X67931009Y-68738095D02*
X68026247Y-68690476D01*
X68026247Y-68690476D02*
X68264342Y-68690476D01*
X68264342Y-68690476D02*
X68359580Y-68738095D01*
X68359580Y-68738095D02*
X68407200Y-68785714D01*
X68407200Y-68785714D02*
X68454819Y-68880952D01*
X68454819Y-68880952D02*
X68454819Y-69166666D01*
X68454819Y-69166666D02*
X68407200Y-69261904D01*
X68407200Y-69261904D02*
X68359580Y-69309523D01*
X67788152Y-67833333D02*
X68454819Y-67833333D01*
X67407200Y-68071428D02*
X68121485Y-68309523D01*
X68121485Y-68309523D02*
X68121485Y-67690476D01*
X77304761Y-47150057D02*
X77209523Y-47102438D01*
X77209523Y-47102438D02*
X77114285Y-47007200D01*
X77114285Y-47007200D02*
X76971428Y-46864342D01*
X76971428Y-46864342D02*
X76876190Y-46816723D01*
X76876190Y-46816723D02*
X76780952Y-46816723D01*
X76828571Y-47054819D02*
X76733333Y-47007200D01*
X76733333Y-47007200D02*
X76638095Y-46911961D01*
X76638095Y-46911961D02*
X76590476Y-46721485D01*
X76590476Y-46721485D02*
X76590476Y-46388152D01*
X76590476Y-46388152D02*
X76638095Y-46197676D01*
X76638095Y-46197676D02*
X76733333Y-46102438D01*
X76733333Y-46102438D02*
X76828571Y-46054819D01*
X76828571Y-46054819D02*
X77019047Y-46054819D01*
X77019047Y-46054819D02*
X77114285Y-46102438D01*
X77114285Y-46102438D02*
X77209523Y-46197676D01*
X77209523Y-46197676D02*
X77257142Y-46388152D01*
X77257142Y-46388152D02*
X77257142Y-46721485D01*
X77257142Y-46721485D02*
X77209523Y-46911961D01*
X77209523Y-46911961D02*
X77114285Y-47007200D01*
X77114285Y-47007200D02*
X77019047Y-47054819D01*
X77019047Y-47054819D02*
X76828571Y-47054819D01*
X78114285Y-46054819D02*
X77923809Y-46054819D01*
X77923809Y-46054819D02*
X77828571Y-46102438D01*
X77828571Y-46102438D02*
X77780952Y-46150057D01*
X77780952Y-46150057D02*
X77685714Y-46292914D01*
X77685714Y-46292914D02*
X77638095Y-46483390D01*
X77638095Y-46483390D02*
X77638095Y-46864342D01*
X77638095Y-46864342D02*
X77685714Y-46959580D01*
X77685714Y-46959580D02*
X77733333Y-47007200D01*
X77733333Y-47007200D02*
X77828571Y-47054819D01*
X77828571Y-47054819D02*
X78019047Y-47054819D01*
X78019047Y-47054819D02*
X78114285Y-47007200D01*
X78114285Y-47007200D02*
X78161904Y-46959580D01*
X78161904Y-46959580D02*
X78209523Y-46864342D01*
X78209523Y-46864342D02*
X78209523Y-46626247D01*
X78209523Y-46626247D02*
X78161904Y-46531009D01*
X78161904Y-46531009D02*
X78114285Y-46483390D01*
X78114285Y-46483390D02*
X78019047Y-46435771D01*
X78019047Y-46435771D02*
X77828571Y-46435771D01*
X77828571Y-46435771D02*
X77733333Y-46483390D01*
X77733333Y-46483390D02*
X77685714Y-46531009D01*
X77685714Y-46531009D02*
X77638095Y-46626247D01*
X77754819Y-81942857D02*
X77278628Y-82276190D01*
X77754819Y-82514285D02*
X76754819Y-82514285D01*
X76754819Y-82514285D02*
X76754819Y-82133333D01*
X76754819Y-82133333D02*
X76802438Y-82038095D01*
X76802438Y-82038095D02*
X76850057Y-81990476D01*
X76850057Y-81990476D02*
X76945295Y-81942857D01*
X76945295Y-81942857D02*
X77088152Y-81942857D01*
X77088152Y-81942857D02*
X77183390Y-81990476D01*
X77183390Y-81990476D02*
X77231009Y-82038095D01*
X77231009Y-82038095D02*
X77278628Y-82133333D01*
X77278628Y-82133333D02*
X77278628Y-82514285D01*
X76754819Y-81038095D02*
X76754819Y-81514285D01*
X76754819Y-81514285D02*
X77231009Y-81561904D01*
X77231009Y-81561904D02*
X77183390Y-81514285D01*
X77183390Y-81514285D02*
X77135771Y-81419047D01*
X77135771Y-81419047D02*
X77135771Y-81180952D01*
X77135771Y-81180952D02*
X77183390Y-81085714D01*
X77183390Y-81085714D02*
X77231009Y-81038095D01*
X77231009Y-81038095D02*
X77326247Y-80990476D01*
X77326247Y-80990476D02*
X77564342Y-80990476D01*
X77564342Y-80990476D02*
X77659580Y-81038095D01*
X77659580Y-81038095D02*
X77707200Y-81085714D01*
X77707200Y-81085714D02*
X77754819Y-81180952D01*
X77754819Y-81180952D02*
X77754819Y-81419047D01*
X77754819Y-81419047D02*
X77707200Y-81514285D01*
X77707200Y-81514285D02*
X77659580Y-81561904D01*
X76754819Y-80657142D02*
X76754819Y-80038095D01*
X76754819Y-80038095D02*
X77135771Y-80371428D01*
X77135771Y-80371428D02*
X77135771Y-80228571D01*
X77135771Y-80228571D02*
X77183390Y-80133333D01*
X77183390Y-80133333D02*
X77231009Y-80085714D01*
X77231009Y-80085714D02*
X77326247Y-80038095D01*
X77326247Y-80038095D02*
X77564342Y-80038095D01*
X77564342Y-80038095D02*
X77659580Y-80085714D01*
X77659580Y-80085714D02*
X77707200Y-80133333D01*
X77707200Y-80133333D02*
X77754819Y-80228571D01*
X77754819Y-80228571D02*
X77754819Y-80514285D01*
X77754819Y-80514285D02*
X77707200Y-80609523D01*
X77707200Y-80609523D02*
X77659580Y-80657142D01*
X79954819Y-82042857D02*
X79478628Y-82376190D01*
X79954819Y-82614285D02*
X78954819Y-82614285D01*
X78954819Y-82614285D02*
X78954819Y-82233333D01*
X78954819Y-82233333D02*
X79002438Y-82138095D01*
X79002438Y-82138095D02*
X79050057Y-82090476D01*
X79050057Y-82090476D02*
X79145295Y-82042857D01*
X79145295Y-82042857D02*
X79288152Y-82042857D01*
X79288152Y-82042857D02*
X79383390Y-82090476D01*
X79383390Y-82090476D02*
X79431009Y-82138095D01*
X79431009Y-82138095D02*
X79478628Y-82233333D01*
X79478628Y-82233333D02*
X79478628Y-82614285D01*
X78954819Y-81138095D02*
X78954819Y-81614285D01*
X78954819Y-81614285D02*
X79431009Y-81661904D01*
X79431009Y-81661904D02*
X79383390Y-81614285D01*
X79383390Y-81614285D02*
X79335771Y-81519047D01*
X79335771Y-81519047D02*
X79335771Y-81280952D01*
X79335771Y-81280952D02*
X79383390Y-81185714D01*
X79383390Y-81185714D02*
X79431009Y-81138095D01*
X79431009Y-81138095D02*
X79526247Y-81090476D01*
X79526247Y-81090476D02*
X79764342Y-81090476D01*
X79764342Y-81090476D02*
X79859580Y-81138095D01*
X79859580Y-81138095D02*
X79907200Y-81185714D01*
X79907200Y-81185714D02*
X79954819Y-81280952D01*
X79954819Y-81280952D02*
X79954819Y-81519047D01*
X79954819Y-81519047D02*
X79907200Y-81614285D01*
X79907200Y-81614285D02*
X79859580Y-81661904D01*
X79288152Y-80233333D02*
X79954819Y-80233333D01*
X78907200Y-80471428D02*
X79621485Y-80709523D01*
X79621485Y-80709523D02*
X79621485Y-80090476D01*
X89254819Y-66842857D02*
X88778628Y-67176190D01*
X89254819Y-67414285D02*
X88254819Y-67414285D01*
X88254819Y-67414285D02*
X88254819Y-67033333D01*
X88254819Y-67033333D02*
X88302438Y-66938095D01*
X88302438Y-66938095D02*
X88350057Y-66890476D01*
X88350057Y-66890476D02*
X88445295Y-66842857D01*
X88445295Y-66842857D02*
X88588152Y-66842857D01*
X88588152Y-66842857D02*
X88683390Y-66890476D01*
X88683390Y-66890476D02*
X88731009Y-66938095D01*
X88731009Y-66938095D02*
X88778628Y-67033333D01*
X88778628Y-67033333D02*
X88778628Y-67414285D01*
X88254819Y-65938095D02*
X88254819Y-66414285D01*
X88254819Y-66414285D02*
X88731009Y-66461904D01*
X88731009Y-66461904D02*
X88683390Y-66414285D01*
X88683390Y-66414285D02*
X88635771Y-66319047D01*
X88635771Y-66319047D02*
X88635771Y-66080952D01*
X88635771Y-66080952D02*
X88683390Y-65985714D01*
X88683390Y-65985714D02*
X88731009Y-65938095D01*
X88731009Y-65938095D02*
X88826247Y-65890476D01*
X88826247Y-65890476D02*
X89064342Y-65890476D01*
X89064342Y-65890476D02*
X89159580Y-65938095D01*
X89159580Y-65938095D02*
X89207200Y-65985714D01*
X89207200Y-65985714D02*
X89254819Y-66080952D01*
X89254819Y-66080952D02*
X89254819Y-66319047D01*
X89254819Y-66319047D02*
X89207200Y-66414285D01*
X89207200Y-66414285D02*
X89159580Y-66461904D01*
X89254819Y-65414285D02*
X89254819Y-65223809D01*
X89254819Y-65223809D02*
X89207200Y-65128571D01*
X89207200Y-65128571D02*
X89159580Y-65080952D01*
X89159580Y-65080952D02*
X89016723Y-64985714D01*
X89016723Y-64985714D02*
X88826247Y-64938095D01*
X88826247Y-64938095D02*
X88445295Y-64938095D01*
X88445295Y-64938095D02*
X88350057Y-64985714D01*
X88350057Y-64985714D02*
X88302438Y-65033333D01*
X88302438Y-65033333D02*
X88254819Y-65128571D01*
X88254819Y-65128571D02*
X88254819Y-65319047D01*
X88254819Y-65319047D02*
X88302438Y-65414285D01*
X88302438Y-65414285D02*
X88350057Y-65461904D01*
X88350057Y-65461904D02*
X88445295Y-65509523D01*
X88445295Y-65509523D02*
X88683390Y-65509523D01*
X88683390Y-65509523D02*
X88778628Y-65461904D01*
X88778628Y-65461904D02*
X88826247Y-65414285D01*
X88826247Y-65414285D02*
X88873866Y-65319047D01*
X88873866Y-65319047D02*
X88873866Y-65128571D01*
X88873866Y-65128571D02*
X88826247Y-65033333D01*
X88826247Y-65033333D02*
X88778628Y-64985714D01*
X88778628Y-64985714D02*
X88683390Y-64938095D01*
X61354819Y-82242857D02*
X60878628Y-82576190D01*
X61354819Y-82814285D02*
X60354819Y-82814285D01*
X60354819Y-82814285D02*
X60354819Y-82433333D01*
X60354819Y-82433333D02*
X60402438Y-82338095D01*
X60402438Y-82338095D02*
X60450057Y-82290476D01*
X60450057Y-82290476D02*
X60545295Y-82242857D01*
X60545295Y-82242857D02*
X60688152Y-82242857D01*
X60688152Y-82242857D02*
X60783390Y-82290476D01*
X60783390Y-82290476D02*
X60831009Y-82338095D01*
X60831009Y-82338095D02*
X60878628Y-82433333D01*
X60878628Y-82433333D02*
X60878628Y-82814285D01*
X61354819Y-81290476D02*
X61354819Y-81861904D01*
X61354819Y-81576190D02*
X60354819Y-81576190D01*
X60354819Y-81576190D02*
X60497676Y-81671428D01*
X60497676Y-81671428D02*
X60592914Y-81766666D01*
X60592914Y-81766666D02*
X60640533Y-81861904D01*
X60354819Y-80385714D02*
X60354819Y-80861904D01*
X60354819Y-80861904D02*
X60831009Y-80909523D01*
X60831009Y-80909523D02*
X60783390Y-80861904D01*
X60783390Y-80861904D02*
X60735771Y-80766666D01*
X60735771Y-80766666D02*
X60735771Y-80528571D01*
X60735771Y-80528571D02*
X60783390Y-80433333D01*
X60783390Y-80433333D02*
X60831009Y-80385714D01*
X60831009Y-80385714D02*
X60926247Y-80338095D01*
X60926247Y-80338095D02*
X61164342Y-80338095D01*
X61164342Y-80338095D02*
X61259580Y-80385714D01*
X61259580Y-80385714D02*
X61307200Y-80433333D01*
X61307200Y-80433333D02*
X61354819Y-80528571D01*
X61354819Y-80528571D02*
X61354819Y-80766666D01*
X61354819Y-80766666D02*
X61307200Y-80861904D01*
X61307200Y-80861904D02*
X61259580Y-80909523D01*
X61454819Y-58466666D02*
X60978628Y-58799999D01*
X61454819Y-59038094D02*
X60454819Y-59038094D01*
X60454819Y-59038094D02*
X60454819Y-58657142D01*
X60454819Y-58657142D02*
X60502438Y-58561904D01*
X60502438Y-58561904D02*
X60550057Y-58514285D01*
X60550057Y-58514285D02*
X60645295Y-58466666D01*
X60645295Y-58466666D02*
X60788152Y-58466666D01*
X60788152Y-58466666D02*
X60883390Y-58514285D01*
X60883390Y-58514285D02*
X60931009Y-58561904D01*
X60931009Y-58561904D02*
X60978628Y-58657142D01*
X60978628Y-58657142D02*
X60978628Y-59038094D01*
X60454819Y-57561904D02*
X60454819Y-58038094D01*
X60454819Y-58038094D02*
X60931009Y-58085713D01*
X60931009Y-58085713D02*
X60883390Y-58038094D01*
X60883390Y-58038094D02*
X60835771Y-57942856D01*
X60835771Y-57942856D02*
X60835771Y-57704761D01*
X60835771Y-57704761D02*
X60883390Y-57609523D01*
X60883390Y-57609523D02*
X60931009Y-57561904D01*
X60931009Y-57561904D02*
X61026247Y-57514285D01*
X61026247Y-57514285D02*
X61264342Y-57514285D01*
X61264342Y-57514285D02*
X61359580Y-57561904D01*
X61359580Y-57561904D02*
X61407200Y-57609523D01*
X61407200Y-57609523D02*
X61454819Y-57704761D01*
X61454819Y-57704761D02*
X61454819Y-57942856D01*
X61454819Y-57942856D02*
X61407200Y-58038094D01*
X61407200Y-58038094D02*
X61359580Y-58085713D01*
X94454819Y-57714285D02*
X93454819Y-57714285D01*
X93454819Y-57714285D02*
X93454819Y-57476190D01*
X93454819Y-57476190D02*
X93502438Y-57333333D01*
X93502438Y-57333333D02*
X93597676Y-57238095D01*
X93597676Y-57238095D02*
X93692914Y-57190476D01*
X93692914Y-57190476D02*
X93883390Y-57142857D01*
X93883390Y-57142857D02*
X94026247Y-57142857D01*
X94026247Y-57142857D02*
X94216723Y-57190476D01*
X94216723Y-57190476D02*
X94311961Y-57238095D01*
X94311961Y-57238095D02*
X94407200Y-57333333D01*
X94407200Y-57333333D02*
X94454819Y-57476190D01*
X94454819Y-57476190D02*
X94454819Y-57714285D01*
X94454819Y-56190476D02*
X94454819Y-56761904D01*
X94454819Y-56476190D02*
X93454819Y-56476190D01*
X93454819Y-56476190D02*
X93597676Y-56571428D01*
X93597676Y-56571428D02*
X93692914Y-56666666D01*
X93692914Y-56666666D02*
X93740533Y-56761904D01*
X93454819Y-55857142D02*
X93454819Y-55190476D01*
X93454819Y-55190476D02*
X94454819Y-55619047D01*
X110191666Y-56954819D02*
X110191666Y-57669104D01*
X110191666Y-57669104D02*
X110144047Y-57811961D01*
X110144047Y-57811961D02*
X110048809Y-57907200D01*
X110048809Y-57907200D02*
X109905952Y-57954819D01*
X109905952Y-57954819D02*
X109810714Y-57954819D01*
X110667857Y-57954819D02*
X110667857Y-56954819D01*
X110667857Y-56954819D02*
X111048809Y-56954819D01*
X111048809Y-56954819D02*
X111144047Y-57002438D01*
X111144047Y-57002438D02*
X111191666Y-57050057D01*
X111191666Y-57050057D02*
X111239285Y-57145295D01*
X111239285Y-57145295D02*
X111239285Y-57288152D01*
X111239285Y-57288152D02*
X111191666Y-57383390D01*
X111191666Y-57383390D02*
X111144047Y-57431009D01*
X111144047Y-57431009D02*
X111048809Y-57478628D01*
X111048809Y-57478628D02*
X110667857Y-57478628D01*
X112191666Y-57954819D02*
X111620238Y-57954819D01*
X111905952Y-57954819D02*
X111905952Y-56954819D01*
X111905952Y-56954819D02*
X111810714Y-57097676D01*
X111810714Y-57097676D02*
X111715476Y-57192914D01*
X111715476Y-57192914D02*
X111620238Y-57240533D01*
X70554819Y-82042857D02*
X70078628Y-82376190D01*
X70554819Y-82614285D02*
X69554819Y-82614285D01*
X69554819Y-82614285D02*
X69554819Y-82233333D01*
X69554819Y-82233333D02*
X69602438Y-82138095D01*
X69602438Y-82138095D02*
X69650057Y-82090476D01*
X69650057Y-82090476D02*
X69745295Y-82042857D01*
X69745295Y-82042857D02*
X69888152Y-82042857D01*
X69888152Y-82042857D02*
X69983390Y-82090476D01*
X69983390Y-82090476D02*
X70031009Y-82138095D01*
X70031009Y-82138095D02*
X70078628Y-82233333D01*
X70078628Y-82233333D02*
X70078628Y-82614285D01*
X69888152Y-81185714D02*
X70554819Y-81185714D01*
X69507200Y-81423809D02*
X70221485Y-81661904D01*
X70221485Y-81661904D02*
X70221485Y-81042857D01*
X70554819Y-80138095D02*
X70554819Y-80709523D01*
X70554819Y-80423809D02*
X69554819Y-80423809D01*
X69554819Y-80423809D02*
X69697676Y-80519047D01*
X69697676Y-80519047D02*
X69792914Y-80614285D01*
X69792914Y-80614285D02*
X69840533Y-80709523D01*
X63754819Y-69542857D02*
X63278628Y-69876190D01*
X63754819Y-70114285D02*
X62754819Y-70114285D01*
X62754819Y-70114285D02*
X62754819Y-69733333D01*
X62754819Y-69733333D02*
X62802438Y-69638095D01*
X62802438Y-69638095D02*
X62850057Y-69590476D01*
X62850057Y-69590476D02*
X62945295Y-69542857D01*
X62945295Y-69542857D02*
X63088152Y-69542857D01*
X63088152Y-69542857D02*
X63183390Y-69590476D01*
X63183390Y-69590476D02*
X63231009Y-69638095D01*
X63231009Y-69638095D02*
X63278628Y-69733333D01*
X63278628Y-69733333D02*
X63278628Y-70114285D01*
X63754819Y-68590476D02*
X63754819Y-69161904D01*
X63754819Y-68876190D02*
X62754819Y-68876190D01*
X62754819Y-68876190D02*
X62897676Y-68971428D01*
X62897676Y-68971428D02*
X62992914Y-69066666D01*
X62992914Y-69066666D02*
X63040533Y-69161904D01*
X62754819Y-67971428D02*
X62754819Y-67876190D01*
X62754819Y-67876190D02*
X62802438Y-67780952D01*
X62802438Y-67780952D02*
X62850057Y-67733333D01*
X62850057Y-67733333D02*
X62945295Y-67685714D01*
X62945295Y-67685714D02*
X63135771Y-67638095D01*
X63135771Y-67638095D02*
X63373866Y-67638095D01*
X63373866Y-67638095D02*
X63564342Y-67685714D01*
X63564342Y-67685714D02*
X63659580Y-67733333D01*
X63659580Y-67733333D02*
X63707200Y-67780952D01*
X63707200Y-67780952D02*
X63754819Y-67876190D01*
X63754819Y-67876190D02*
X63754819Y-67971428D01*
X63754819Y-67971428D02*
X63707200Y-68066666D01*
X63707200Y-68066666D02*
X63659580Y-68114285D01*
X63659580Y-68114285D02*
X63564342Y-68161904D01*
X63564342Y-68161904D02*
X63373866Y-68209523D01*
X63373866Y-68209523D02*
X63135771Y-68209523D01*
X63135771Y-68209523D02*
X62945295Y-68161904D01*
X62945295Y-68161904D02*
X62850057Y-68114285D01*
X62850057Y-68114285D02*
X62802438Y-68066666D01*
X62802438Y-68066666D02*
X62754819Y-67971428D01*
X89104761Y-92750057D02*
X89009523Y-92702438D01*
X89009523Y-92702438D02*
X88914285Y-92607200D01*
X88914285Y-92607200D02*
X88771428Y-92464342D01*
X88771428Y-92464342D02*
X88676190Y-92416723D01*
X88676190Y-92416723D02*
X88580952Y-92416723D01*
X88628571Y-92654819D02*
X88533333Y-92607200D01*
X88533333Y-92607200D02*
X88438095Y-92511961D01*
X88438095Y-92511961D02*
X88390476Y-92321485D01*
X88390476Y-92321485D02*
X88390476Y-91988152D01*
X88390476Y-91988152D02*
X88438095Y-91797676D01*
X88438095Y-91797676D02*
X88533333Y-91702438D01*
X88533333Y-91702438D02*
X88628571Y-91654819D01*
X88628571Y-91654819D02*
X88819047Y-91654819D01*
X88819047Y-91654819D02*
X88914285Y-91702438D01*
X88914285Y-91702438D02*
X89009523Y-91797676D01*
X89009523Y-91797676D02*
X89057142Y-91988152D01*
X89057142Y-91988152D02*
X89057142Y-92321485D01*
X89057142Y-92321485D02*
X89009523Y-92511961D01*
X89009523Y-92511961D02*
X88914285Y-92607200D01*
X88914285Y-92607200D02*
X88819047Y-92654819D01*
X88819047Y-92654819D02*
X88628571Y-92654819D01*
X89390476Y-91654819D02*
X90057142Y-91654819D01*
X90057142Y-91654819D02*
X89628571Y-92654819D01*
X68354819Y-82142857D02*
X67878628Y-82476190D01*
X68354819Y-82714285D02*
X67354819Y-82714285D01*
X67354819Y-82714285D02*
X67354819Y-82333333D01*
X67354819Y-82333333D02*
X67402438Y-82238095D01*
X67402438Y-82238095D02*
X67450057Y-82190476D01*
X67450057Y-82190476D02*
X67545295Y-82142857D01*
X67545295Y-82142857D02*
X67688152Y-82142857D01*
X67688152Y-82142857D02*
X67783390Y-82190476D01*
X67783390Y-82190476D02*
X67831009Y-82238095D01*
X67831009Y-82238095D02*
X67878628Y-82333333D01*
X67878628Y-82333333D02*
X67878628Y-82714285D01*
X67688152Y-81285714D02*
X68354819Y-81285714D01*
X67307200Y-81523809D02*
X68021485Y-81761904D01*
X68021485Y-81761904D02*
X68021485Y-81142857D01*
X67450057Y-80809523D02*
X67402438Y-80761904D01*
X67402438Y-80761904D02*
X67354819Y-80666666D01*
X67354819Y-80666666D02*
X67354819Y-80428571D01*
X67354819Y-80428571D02*
X67402438Y-80333333D01*
X67402438Y-80333333D02*
X67450057Y-80285714D01*
X67450057Y-80285714D02*
X67545295Y-80238095D01*
X67545295Y-80238095D02*
X67640533Y-80238095D01*
X67640533Y-80238095D02*
X67783390Y-80285714D01*
X67783390Y-80285714D02*
X68354819Y-80857142D01*
X68354819Y-80857142D02*
X68354819Y-80238095D01*
X82254819Y-82142857D02*
X81778628Y-82476190D01*
X82254819Y-82714285D02*
X81254819Y-82714285D01*
X81254819Y-82714285D02*
X81254819Y-82333333D01*
X81254819Y-82333333D02*
X81302438Y-82238095D01*
X81302438Y-82238095D02*
X81350057Y-82190476D01*
X81350057Y-82190476D02*
X81445295Y-82142857D01*
X81445295Y-82142857D02*
X81588152Y-82142857D01*
X81588152Y-82142857D02*
X81683390Y-82190476D01*
X81683390Y-82190476D02*
X81731009Y-82238095D01*
X81731009Y-82238095D02*
X81778628Y-82333333D01*
X81778628Y-82333333D02*
X81778628Y-82714285D01*
X81254819Y-81238095D02*
X81254819Y-81714285D01*
X81254819Y-81714285D02*
X81731009Y-81761904D01*
X81731009Y-81761904D02*
X81683390Y-81714285D01*
X81683390Y-81714285D02*
X81635771Y-81619047D01*
X81635771Y-81619047D02*
X81635771Y-81380952D01*
X81635771Y-81380952D02*
X81683390Y-81285714D01*
X81683390Y-81285714D02*
X81731009Y-81238095D01*
X81731009Y-81238095D02*
X81826247Y-81190476D01*
X81826247Y-81190476D02*
X82064342Y-81190476D01*
X82064342Y-81190476D02*
X82159580Y-81238095D01*
X82159580Y-81238095D02*
X82207200Y-81285714D01*
X82207200Y-81285714D02*
X82254819Y-81380952D01*
X82254819Y-81380952D02*
X82254819Y-81619047D01*
X82254819Y-81619047D02*
X82207200Y-81714285D01*
X82207200Y-81714285D02*
X82159580Y-81761904D01*
X81350057Y-80809523D02*
X81302438Y-80761904D01*
X81302438Y-80761904D02*
X81254819Y-80666666D01*
X81254819Y-80666666D02*
X81254819Y-80428571D01*
X81254819Y-80428571D02*
X81302438Y-80333333D01*
X81302438Y-80333333D02*
X81350057Y-80285714D01*
X81350057Y-80285714D02*
X81445295Y-80238095D01*
X81445295Y-80238095D02*
X81540533Y-80238095D01*
X81540533Y-80238095D02*
X81683390Y-80285714D01*
X81683390Y-80285714D02*
X82254819Y-80857142D01*
X82254819Y-80857142D02*
X82254819Y-80238095D01*
X77854819Y-52242857D02*
X77378628Y-52576190D01*
X77854819Y-52814285D02*
X76854819Y-52814285D01*
X76854819Y-52814285D02*
X76854819Y-52433333D01*
X76854819Y-52433333D02*
X76902438Y-52338095D01*
X76902438Y-52338095D02*
X76950057Y-52290476D01*
X76950057Y-52290476D02*
X77045295Y-52242857D01*
X77045295Y-52242857D02*
X77188152Y-52242857D01*
X77188152Y-52242857D02*
X77283390Y-52290476D01*
X77283390Y-52290476D02*
X77331009Y-52338095D01*
X77331009Y-52338095D02*
X77378628Y-52433333D01*
X77378628Y-52433333D02*
X77378628Y-52814285D01*
X76854819Y-51909523D02*
X76854819Y-51290476D01*
X76854819Y-51290476D02*
X77235771Y-51623809D01*
X77235771Y-51623809D02*
X77235771Y-51480952D01*
X77235771Y-51480952D02*
X77283390Y-51385714D01*
X77283390Y-51385714D02*
X77331009Y-51338095D01*
X77331009Y-51338095D02*
X77426247Y-51290476D01*
X77426247Y-51290476D02*
X77664342Y-51290476D01*
X77664342Y-51290476D02*
X77759580Y-51338095D01*
X77759580Y-51338095D02*
X77807200Y-51385714D01*
X77807200Y-51385714D02*
X77854819Y-51480952D01*
X77854819Y-51480952D02*
X77854819Y-51766666D01*
X77854819Y-51766666D02*
X77807200Y-51861904D01*
X77807200Y-51861904D02*
X77759580Y-51909523D01*
X76854819Y-50671428D02*
X76854819Y-50576190D01*
X76854819Y-50576190D02*
X76902438Y-50480952D01*
X76902438Y-50480952D02*
X76950057Y-50433333D01*
X76950057Y-50433333D02*
X77045295Y-50385714D01*
X77045295Y-50385714D02*
X77235771Y-50338095D01*
X77235771Y-50338095D02*
X77473866Y-50338095D01*
X77473866Y-50338095D02*
X77664342Y-50385714D01*
X77664342Y-50385714D02*
X77759580Y-50433333D01*
X77759580Y-50433333D02*
X77807200Y-50480952D01*
X77807200Y-50480952D02*
X77854819Y-50576190D01*
X77854819Y-50576190D02*
X77854819Y-50671428D01*
X77854819Y-50671428D02*
X77807200Y-50766666D01*
X77807200Y-50766666D02*
X77759580Y-50814285D01*
X77759580Y-50814285D02*
X77664342Y-50861904D01*
X77664342Y-50861904D02*
X77473866Y-50909523D01*
X77473866Y-50909523D02*
X77235771Y-50909523D01*
X77235771Y-50909523D02*
X77045295Y-50861904D01*
X77045295Y-50861904D02*
X76950057Y-50814285D01*
X76950057Y-50814285D02*
X76902438Y-50766666D01*
X76902438Y-50766666D02*
X76854819Y-50671428D01*
X82254819Y-69542857D02*
X81778628Y-69876190D01*
X82254819Y-70114285D02*
X81254819Y-70114285D01*
X81254819Y-70114285D02*
X81254819Y-69733333D01*
X81254819Y-69733333D02*
X81302438Y-69638095D01*
X81302438Y-69638095D02*
X81350057Y-69590476D01*
X81350057Y-69590476D02*
X81445295Y-69542857D01*
X81445295Y-69542857D02*
X81588152Y-69542857D01*
X81588152Y-69542857D02*
X81683390Y-69590476D01*
X81683390Y-69590476D02*
X81731009Y-69638095D01*
X81731009Y-69638095D02*
X81778628Y-69733333D01*
X81778628Y-69733333D02*
X81778628Y-70114285D01*
X81588152Y-68685714D02*
X82254819Y-68685714D01*
X81207200Y-68923809D02*
X81921485Y-69161904D01*
X81921485Y-69161904D02*
X81921485Y-68542857D01*
X81588152Y-67733333D02*
X82254819Y-67733333D01*
X81207200Y-67971428D02*
X81921485Y-68209523D01*
X81921485Y-68209523D02*
X81921485Y-67590476D01*
X63654819Y-82042857D02*
X63178628Y-82376190D01*
X63654819Y-82614285D02*
X62654819Y-82614285D01*
X62654819Y-82614285D02*
X62654819Y-82233333D01*
X62654819Y-82233333D02*
X62702438Y-82138095D01*
X62702438Y-82138095D02*
X62750057Y-82090476D01*
X62750057Y-82090476D02*
X62845295Y-82042857D01*
X62845295Y-82042857D02*
X62988152Y-82042857D01*
X62988152Y-82042857D02*
X63083390Y-82090476D01*
X63083390Y-82090476D02*
X63131009Y-82138095D01*
X63131009Y-82138095D02*
X63178628Y-82233333D01*
X63178628Y-82233333D02*
X63178628Y-82614285D01*
X63654819Y-81090476D02*
X63654819Y-81661904D01*
X63654819Y-81376190D02*
X62654819Y-81376190D01*
X62654819Y-81376190D02*
X62797676Y-81471428D01*
X62797676Y-81471428D02*
X62892914Y-81566666D01*
X62892914Y-81566666D02*
X62940533Y-81661904D01*
X62750057Y-80709523D02*
X62702438Y-80661904D01*
X62702438Y-80661904D02*
X62654819Y-80566666D01*
X62654819Y-80566666D02*
X62654819Y-80328571D01*
X62654819Y-80328571D02*
X62702438Y-80233333D01*
X62702438Y-80233333D02*
X62750057Y-80185714D01*
X62750057Y-80185714D02*
X62845295Y-80138095D01*
X62845295Y-80138095D02*
X62940533Y-80138095D01*
X62940533Y-80138095D02*
X63083390Y-80185714D01*
X63083390Y-80185714D02*
X63654819Y-80757142D01*
X63654819Y-80757142D02*
X63654819Y-80138095D01*
X90057142Y-72354819D02*
X89723809Y-71878628D01*
X89485714Y-72354819D02*
X89485714Y-71354819D01*
X89485714Y-71354819D02*
X89866666Y-71354819D01*
X89866666Y-71354819D02*
X89961904Y-71402438D01*
X89961904Y-71402438D02*
X90009523Y-71450057D01*
X90009523Y-71450057D02*
X90057142Y-71545295D01*
X90057142Y-71545295D02*
X90057142Y-71688152D01*
X90057142Y-71688152D02*
X90009523Y-71783390D01*
X90009523Y-71783390D02*
X89961904Y-71831009D01*
X89961904Y-71831009D02*
X89866666Y-71878628D01*
X89866666Y-71878628D02*
X89485714Y-71878628D01*
X90961904Y-71354819D02*
X90485714Y-71354819D01*
X90485714Y-71354819D02*
X90438095Y-71831009D01*
X90438095Y-71831009D02*
X90485714Y-71783390D01*
X90485714Y-71783390D02*
X90580952Y-71735771D01*
X90580952Y-71735771D02*
X90819047Y-71735771D01*
X90819047Y-71735771D02*
X90914285Y-71783390D01*
X90914285Y-71783390D02*
X90961904Y-71831009D01*
X90961904Y-71831009D02*
X91009523Y-71926247D01*
X91009523Y-71926247D02*
X91009523Y-72164342D01*
X91009523Y-72164342D02*
X90961904Y-72259580D01*
X90961904Y-72259580D02*
X90914285Y-72307200D01*
X90914285Y-72307200D02*
X90819047Y-72354819D01*
X90819047Y-72354819D02*
X90580952Y-72354819D01*
X90580952Y-72354819D02*
X90485714Y-72307200D01*
X90485714Y-72307200D02*
X90438095Y-72259580D01*
X91342857Y-71354819D02*
X92009523Y-71354819D01*
X92009523Y-71354819D02*
X91580952Y-72354819D01*
X70038095Y-62354819D02*
X70038095Y-63164342D01*
X70038095Y-63164342D02*
X70085714Y-63259580D01*
X70085714Y-63259580D02*
X70133333Y-63307200D01*
X70133333Y-63307200D02*
X70228571Y-63354819D01*
X70228571Y-63354819D02*
X70419047Y-63354819D01*
X70419047Y-63354819D02*
X70514285Y-63307200D01*
X70514285Y-63307200D02*
X70561904Y-63259580D01*
X70561904Y-63259580D02*
X70609523Y-63164342D01*
X70609523Y-63164342D02*
X70609523Y-62354819D01*
X71609523Y-63354819D02*
X71038095Y-63354819D01*
X71323809Y-63354819D02*
X71323809Y-62354819D01*
X71323809Y-62354819D02*
X71228571Y-62497676D01*
X71228571Y-62497676D02*
X71133333Y-62592914D01*
X71133333Y-62592914D02*
X71038095Y-62640533D01*
X66154819Y-58366666D02*
X65678628Y-58699999D01*
X66154819Y-58938094D02*
X65154819Y-58938094D01*
X65154819Y-58938094D02*
X65154819Y-58557142D01*
X65154819Y-58557142D02*
X65202438Y-58461904D01*
X65202438Y-58461904D02*
X65250057Y-58414285D01*
X65250057Y-58414285D02*
X65345295Y-58366666D01*
X65345295Y-58366666D02*
X65488152Y-58366666D01*
X65488152Y-58366666D02*
X65583390Y-58414285D01*
X65583390Y-58414285D02*
X65631009Y-58461904D01*
X65631009Y-58461904D02*
X65678628Y-58557142D01*
X65678628Y-58557142D02*
X65678628Y-58938094D01*
X65154819Y-58033332D02*
X65154819Y-57414285D01*
X65154819Y-57414285D02*
X65535771Y-57747618D01*
X65535771Y-57747618D02*
X65535771Y-57604761D01*
X65535771Y-57604761D02*
X65583390Y-57509523D01*
X65583390Y-57509523D02*
X65631009Y-57461904D01*
X65631009Y-57461904D02*
X65726247Y-57414285D01*
X65726247Y-57414285D02*
X65964342Y-57414285D01*
X65964342Y-57414285D02*
X66059580Y-57461904D01*
X66059580Y-57461904D02*
X66107200Y-57509523D01*
X66107200Y-57509523D02*
X66154819Y-57604761D01*
X66154819Y-57604761D02*
X66154819Y-57890475D01*
X66154819Y-57890475D02*
X66107200Y-57985713D01*
X66107200Y-57985713D02*
X66059580Y-58033332D01*
X68354819Y-58481666D02*
X67878628Y-58814999D01*
X68354819Y-59053094D02*
X67354819Y-59053094D01*
X67354819Y-59053094D02*
X67354819Y-58672142D01*
X67354819Y-58672142D02*
X67402438Y-58576904D01*
X67402438Y-58576904D02*
X67450057Y-58529285D01*
X67450057Y-58529285D02*
X67545295Y-58481666D01*
X67545295Y-58481666D02*
X67688152Y-58481666D01*
X67688152Y-58481666D02*
X67783390Y-58529285D01*
X67783390Y-58529285D02*
X67831009Y-58576904D01*
X67831009Y-58576904D02*
X67878628Y-58672142D01*
X67878628Y-58672142D02*
X67878628Y-59053094D01*
X67450057Y-58100713D02*
X67402438Y-58053094D01*
X67402438Y-58053094D02*
X67354819Y-57957856D01*
X67354819Y-57957856D02*
X67354819Y-57719761D01*
X67354819Y-57719761D02*
X67402438Y-57624523D01*
X67402438Y-57624523D02*
X67450057Y-57576904D01*
X67450057Y-57576904D02*
X67545295Y-57529285D01*
X67545295Y-57529285D02*
X67640533Y-57529285D01*
X67640533Y-57529285D02*
X67783390Y-57576904D01*
X67783390Y-57576904D02*
X68354819Y-58148332D01*
X68354819Y-58148332D02*
X68354819Y-57529285D01*
X72854819Y-81642857D02*
X72378628Y-81976190D01*
X72854819Y-82214285D02*
X71854819Y-82214285D01*
X71854819Y-82214285D02*
X71854819Y-81833333D01*
X71854819Y-81833333D02*
X71902438Y-81738095D01*
X71902438Y-81738095D02*
X71950057Y-81690476D01*
X71950057Y-81690476D02*
X72045295Y-81642857D01*
X72045295Y-81642857D02*
X72188152Y-81642857D01*
X72188152Y-81642857D02*
X72283390Y-81690476D01*
X72283390Y-81690476D02*
X72331009Y-81738095D01*
X72331009Y-81738095D02*
X72378628Y-81833333D01*
X72378628Y-81833333D02*
X72378628Y-82214285D01*
X72188152Y-80785714D02*
X72854819Y-80785714D01*
X71807200Y-81023809D02*
X72521485Y-81261904D01*
X72521485Y-81261904D02*
X72521485Y-80642857D01*
X71854819Y-80071428D02*
X71854819Y-79976190D01*
X71854819Y-79976190D02*
X71902438Y-79880952D01*
X71902438Y-79880952D02*
X71950057Y-79833333D01*
X71950057Y-79833333D02*
X72045295Y-79785714D01*
X72045295Y-79785714D02*
X72235771Y-79738095D01*
X72235771Y-79738095D02*
X72473866Y-79738095D01*
X72473866Y-79738095D02*
X72664342Y-79785714D01*
X72664342Y-79785714D02*
X72759580Y-79833333D01*
X72759580Y-79833333D02*
X72807200Y-79880952D01*
X72807200Y-79880952D02*
X72854819Y-79976190D01*
X72854819Y-79976190D02*
X72854819Y-80071428D01*
X72854819Y-80071428D02*
X72807200Y-80166666D01*
X72807200Y-80166666D02*
X72759580Y-80214285D01*
X72759580Y-80214285D02*
X72664342Y-80261904D01*
X72664342Y-80261904D02*
X72473866Y-80309523D01*
X72473866Y-80309523D02*
X72235771Y-80309523D01*
X72235771Y-80309523D02*
X72045295Y-80261904D01*
X72045295Y-80261904D02*
X71950057Y-80214285D01*
X71950057Y-80214285D02*
X71902438Y-80166666D01*
X71902438Y-80166666D02*
X71854819Y-80071428D01*
X82254819Y-57542857D02*
X81778628Y-57876190D01*
X82254819Y-58114285D02*
X81254819Y-58114285D01*
X81254819Y-58114285D02*
X81254819Y-57733333D01*
X81254819Y-57733333D02*
X81302438Y-57638095D01*
X81302438Y-57638095D02*
X81350057Y-57590476D01*
X81350057Y-57590476D02*
X81445295Y-57542857D01*
X81445295Y-57542857D02*
X81588152Y-57542857D01*
X81588152Y-57542857D02*
X81683390Y-57590476D01*
X81683390Y-57590476D02*
X81731009Y-57638095D01*
X81731009Y-57638095D02*
X81778628Y-57733333D01*
X81778628Y-57733333D02*
X81778628Y-58114285D01*
X81350057Y-57161904D02*
X81302438Y-57114285D01*
X81302438Y-57114285D02*
X81254819Y-57019047D01*
X81254819Y-57019047D02*
X81254819Y-56780952D01*
X81254819Y-56780952D02*
X81302438Y-56685714D01*
X81302438Y-56685714D02*
X81350057Y-56638095D01*
X81350057Y-56638095D02*
X81445295Y-56590476D01*
X81445295Y-56590476D02*
X81540533Y-56590476D01*
X81540533Y-56590476D02*
X81683390Y-56638095D01*
X81683390Y-56638095D02*
X82254819Y-57209523D01*
X82254819Y-57209523D02*
X82254819Y-56590476D01*
X81350057Y-56209523D02*
X81302438Y-56161904D01*
X81302438Y-56161904D02*
X81254819Y-56066666D01*
X81254819Y-56066666D02*
X81254819Y-55828571D01*
X81254819Y-55828571D02*
X81302438Y-55733333D01*
X81302438Y-55733333D02*
X81350057Y-55685714D01*
X81350057Y-55685714D02*
X81445295Y-55638095D01*
X81445295Y-55638095D02*
X81540533Y-55638095D01*
X81540533Y-55638095D02*
X81683390Y-55685714D01*
X81683390Y-55685714D02*
X82254819Y-56257142D01*
X82254819Y-56257142D02*
X82254819Y-55638095D01*
X59054819Y-69542857D02*
X58578628Y-69876190D01*
X59054819Y-70114285D02*
X58054819Y-70114285D01*
X58054819Y-70114285D02*
X58054819Y-69733333D01*
X58054819Y-69733333D02*
X58102438Y-69638095D01*
X58102438Y-69638095D02*
X58150057Y-69590476D01*
X58150057Y-69590476D02*
X58245295Y-69542857D01*
X58245295Y-69542857D02*
X58388152Y-69542857D01*
X58388152Y-69542857D02*
X58483390Y-69590476D01*
X58483390Y-69590476D02*
X58531009Y-69638095D01*
X58531009Y-69638095D02*
X58578628Y-69733333D01*
X58578628Y-69733333D02*
X58578628Y-70114285D01*
X59054819Y-68590476D02*
X59054819Y-69161904D01*
X59054819Y-68876190D02*
X58054819Y-68876190D01*
X58054819Y-68876190D02*
X58197676Y-68971428D01*
X58197676Y-68971428D02*
X58292914Y-69066666D01*
X58292914Y-69066666D02*
X58340533Y-69161904D01*
X58054819Y-67733333D02*
X58054819Y-67923809D01*
X58054819Y-67923809D02*
X58102438Y-68019047D01*
X58102438Y-68019047D02*
X58150057Y-68066666D01*
X58150057Y-68066666D02*
X58292914Y-68161904D01*
X58292914Y-68161904D02*
X58483390Y-68209523D01*
X58483390Y-68209523D02*
X58864342Y-68209523D01*
X58864342Y-68209523D02*
X58959580Y-68161904D01*
X58959580Y-68161904D02*
X59007200Y-68114285D01*
X59007200Y-68114285D02*
X59054819Y-68019047D01*
X59054819Y-68019047D02*
X59054819Y-67828571D01*
X59054819Y-67828571D02*
X59007200Y-67733333D01*
X59007200Y-67733333D02*
X58959580Y-67685714D01*
X58959580Y-67685714D02*
X58864342Y-67638095D01*
X58864342Y-67638095D02*
X58626247Y-67638095D01*
X58626247Y-67638095D02*
X58531009Y-67685714D01*
X58531009Y-67685714D02*
X58483390Y-67733333D01*
X58483390Y-67733333D02*
X58435771Y-67828571D01*
X58435771Y-67828571D02*
X58435771Y-68019047D01*
X58435771Y-68019047D02*
X58483390Y-68114285D01*
X58483390Y-68114285D02*
X58531009Y-68161904D01*
X58531009Y-68161904D02*
X58626247Y-68209523D01*
X98228571Y-85650057D02*
X98133333Y-85602438D01*
X98133333Y-85602438D02*
X98038095Y-85507200D01*
X98038095Y-85507200D02*
X97895238Y-85364342D01*
X97895238Y-85364342D02*
X97800000Y-85316723D01*
X97800000Y-85316723D02*
X97704762Y-85316723D01*
X97752381Y-85554819D02*
X97657143Y-85507200D01*
X97657143Y-85507200D02*
X97561905Y-85411961D01*
X97561905Y-85411961D02*
X97514286Y-85221485D01*
X97514286Y-85221485D02*
X97514286Y-84888152D01*
X97514286Y-84888152D02*
X97561905Y-84697676D01*
X97561905Y-84697676D02*
X97657143Y-84602438D01*
X97657143Y-84602438D02*
X97752381Y-84554819D01*
X97752381Y-84554819D02*
X97942857Y-84554819D01*
X97942857Y-84554819D02*
X98038095Y-84602438D01*
X98038095Y-84602438D02*
X98133333Y-84697676D01*
X98133333Y-84697676D02*
X98180952Y-84888152D01*
X98180952Y-84888152D02*
X98180952Y-85221485D01*
X98180952Y-85221485D02*
X98133333Y-85411961D01*
X98133333Y-85411961D02*
X98038095Y-85507200D01*
X98038095Y-85507200D02*
X97942857Y-85554819D01*
X97942857Y-85554819D02*
X97752381Y-85554819D01*
X99133333Y-85554819D02*
X98561905Y-85554819D01*
X98847619Y-85554819D02*
X98847619Y-84554819D01*
X98847619Y-84554819D02*
X98752381Y-84697676D01*
X98752381Y-84697676D02*
X98657143Y-84792914D01*
X98657143Y-84792914D02*
X98561905Y-84840533D01*
X100038095Y-84554819D02*
X99561905Y-84554819D01*
X99561905Y-84554819D02*
X99514286Y-85031009D01*
X99514286Y-85031009D02*
X99561905Y-84983390D01*
X99561905Y-84983390D02*
X99657143Y-84935771D01*
X99657143Y-84935771D02*
X99895238Y-84935771D01*
X99895238Y-84935771D02*
X99990476Y-84983390D01*
X99990476Y-84983390D02*
X100038095Y-85031009D01*
X100038095Y-85031009D02*
X100085714Y-85126247D01*
X100085714Y-85126247D02*
X100085714Y-85364342D01*
X100085714Y-85364342D02*
X100038095Y-85459580D01*
X100038095Y-85459580D02*
X99990476Y-85507200D01*
X99990476Y-85507200D02*
X99895238Y-85554819D01*
X99895238Y-85554819D02*
X99657143Y-85554819D01*
X99657143Y-85554819D02*
X99561905Y-85507200D01*
X99561905Y-85507200D02*
X99514286Y-85459580D01*
X100028571Y-47050057D02*
X99933333Y-47002438D01*
X99933333Y-47002438D02*
X99838095Y-46907200D01*
X99838095Y-46907200D02*
X99695238Y-46764342D01*
X99695238Y-46764342D02*
X99600000Y-46716723D01*
X99600000Y-46716723D02*
X99504762Y-46716723D01*
X99552381Y-46954819D02*
X99457143Y-46907200D01*
X99457143Y-46907200D02*
X99361905Y-46811961D01*
X99361905Y-46811961D02*
X99314286Y-46621485D01*
X99314286Y-46621485D02*
X99314286Y-46288152D01*
X99314286Y-46288152D02*
X99361905Y-46097676D01*
X99361905Y-46097676D02*
X99457143Y-46002438D01*
X99457143Y-46002438D02*
X99552381Y-45954819D01*
X99552381Y-45954819D02*
X99742857Y-45954819D01*
X99742857Y-45954819D02*
X99838095Y-46002438D01*
X99838095Y-46002438D02*
X99933333Y-46097676D01*
X99933333Y-46097676D02*
X99980952Y-46288152D01*
X99980952Y-46288152D02*
X99980952Y-46621485D01*
X99980952Y-46621485D02*
X99933333Y-46811961D01*
X99933333Y-46811961D02*
X99838095Y-46907200D01*
X99838095Y-46907200D02*
X99742857Y-46954819D01*
X99742857Y-46954819D02*
X99552381Y-46954819D01*
X100933333Y-46954819D02*
X100361905Y-46954819D01*
X100647619Y-46954819D02*
X100647619Y-45954819D01*
X100647619Y-45954819D02*
X100552381Y-46097676D01*
X100552381Y-46097676D02*
X100457143Y-46192914D01*
X100457143Y-46192914D02*
X100361905Y-46240533D01*
X101266667Y-45954819D02*
X101885714Y-45954819D01*
X101885714Y-45954819D02*
X101552381Y-46335771D01*
X101552381Y-46335771D02*
X101695238Y-46335771D01*
X101695238Y-46335771D02*
X101790476Y-46383390D01*
X101790476Y-46383390D02*
X101838095Y-46431009D01*
X101838095Y-46431009D02*
X101885714Y-46526247D01*
X101885714Y-46526247D02*
X101885714Y-46764342D01*
X101885714Y-46764342D02*
X101838095Y-46859580D01*
X101838095Y-46859580D02*
X101790476Y-46907200D01*
X101790476Y-46907200D02*
X101695238Y-46954819D01*
X101695238Y-46954819D02*
X101409524Y-46954819D01*
X101409524Y-46954819D02*
X101314286Y-46907200D01*
X101314286Y-46907200D02*
X101266667Y-46859580D01*
X92154819Y-67161904D02*
X92964342Y-67161904D01*
X92964342Y-67161904D02*
X93059580Y-67114285D01*
X93059580Y-67114285D02*
X93107200Y-67066666D01*
X93107200Y-67066666D02*
X93154819Y-66971428D01*
X93154819Y-66971428D02*
X93154819Y-66780952D01*
X93154819Y-66780952D02*
X93107200Y-66685714D01*
X93107200Y-66685714D02*
X93059580Y-66638095D01*
X93059580Y-66638095D02*
X92964342Y-66590476D01*
X92964342Y-66590476D02*
X92154819Y-66590476D01*
X92154819Y-66209523D02*
X92154819Y-65590476D01*
X92154819Y-65590476D02*
X92535771Y-65923809D01*
X92535771Y-65923809D02*
X92535771Y-65780952D01*
X92535771Y-65780952D02*
X92583390Y-65685714D01*
X92583390Y-65685714D02*
X92631009Y-65638095D01*
X92631009Y-65638095D02*
X92726247Y-65590476D01*
X92726247Y-65590476D02*
X92964342Y-65590476D01*
X92964342Y-65590476D02*
X93059580Y-65638095D01*
X93059580Y-65638095D02*
X93107200Y-65685714D01*
X93107200Y-65685714D02*
X93154819Y-65780952D01*
X93154819Y-65780952D02*
X93154819Y-66066666D01*
X93154819Y-66066666D02*
X93107200Y-66161904D01*
X93107200Y-66161904D02*
X93059580Y-66209523D01*
X63754819Y-58466666D02*
X63278628Y-58799999D01*
X63754819Y-59038094D02*
X62754819Y-59038094D01*
X62754819Y-59038094D02*
X62754819Y-58657142D01*
X62754819Y-58657142D02*
X62802438Y-58561904D01*
X62802438Y-58561904D02*
X62850057Y-58514285D01*
X62850057Y-58514285D02*
X62945295Y-58466666D01*
X62945295Y-58466666D02*
X63088152Y-58466666D01*
X63088152Y-58466666D02*
X63183390Y-58514285D01*
X63183390Y-58514285D02*
X63231009Y-58561904D01*
X63231009Y-58561904D02*
X63278628Y-58657142D01*
X63278628Y-58657142D02*
X63278628Y-59038094D01*
X63088152Y-57609523D02*
X63754819Y-57609523D01*
X62707200Y-57847618D02*
X63421485Y-58085713D01*
X63421485Y-58085713D02*
X63421485Y-57466666D01*
X77754819Y-57442857D02*
X77278628Y-57776190D01*
X77754819Y-58014285D02*
X76754819Y-58014285D01*
X76754819Y-58014285D02*
X76754819Y-57633333D01*
X76754819Y-57633333D02*
X76802438Y-57538095D01*
X76802438Y-57538095D02*
X76850057Y-57490476D01*
X76850057Y-57490476D02*
X76945295Y-57442857D01*
X76945295Y-57442857D02*
X77088152Y-57442857D01*
X77088152Y-57442857D02*
X77183390Y-57490476D01*
X77183390Y-57490476D02*
X77231009Y-57538095D01*
X77231009Y-57538095D02*
X77278628Y-57633333D01*
X77278628Y-57633333D02*
X77278628Y-58014285D01*
X76850057Y-57061904D02*
X76802438Y-57014285D01*
X76802438Y-57014285D02*
X76754819Y-56919047D01*
X76754819Y-56919047D02*
X76754819Y-56680952D01*
X76754819Y-56680952D02*
X76802438Y-56585714D01*
X76802438Y-56585714D02*
X76850057Y-56538095D01*
X76850057Y-56538095D02*
X76945295Y-56490476D01*
X76945295Y-56490476D02*
X77040533Y-56490476D01*
X77040533Y-56490476D02*
X77183390Y-56538095D01*
X77183390Y-56538095D02*
X77754819Y-57109523D01*
X77754819Y-57109523D02*
X77754819Y-56490476D01*
X77183390Y-55919047D02*
X77135771Y-56014285D01*
X77135771Y-56014285D02*
X77088152Y-56061904D01*
X77088152Y-56061904D02*
X76992914Y-56109523D01*
X76992914Y-56109523D02*
X76945295Y-56109523D01*
X76945295Y-56109523D02*
X76850057Y-56061904D01*
X76850057Y-56061904D02*
X76802438Y-56014285D01*
X76802438Y-56014285D02*
X76754819Y-55919047D01*
X76754819Y-55919047D02*
X76754819Y-55728571D01*
X76754819Y-55728571D02*
X76802438Y-55633333D01*
X76802438Y-55633333D02*
X76850057Y-55585714D01*
X76850057Y-55585714D02*
X76945295Y-55538095D01*
X76945295Y-55538095D02*
X76992914Y-55538095D01*
X76992914Y-55538095D02*
X77088152Y-55585714D01*
X77088152Y-55585714D02*
X77135771Y-55633333D01*
X77135771Y-55633333D02*
X77183390Y-55728571D01*
X77183390Y-55728571D02*
X77183390Y-55919047D01*
X77183390Y-55919047D02*
X77231009Y-56014285D01*
X77231009Y-56014285D02*
X77278628Y-56061904D01*
X77278628Y-56061904D02*
X77373866Y-56109523D01*
X77373866Y-56109523D02*
X77564342Y-56109523D01*
X77564342Y-56109523D02*
X77659580Y-56061904D01*
X77659580Y-56061904D02*
X77707200Y-56014285D01*
X77707200Y-56014285D02*
X77754819Y-55919047D01*
X77754819Y-55919047D02*
X77754819Y-55728571D01*
X77754819Y-55728571D02*
X77707200Y-55633333D01*
X77707200Y-55633333D02*
X77659580Y-55585714D01*
X77659580Y-55585714D02*
X77564342Y-55538095D01*
X77564342Y-55538095D02*
X77373866Y-55538095D01*
X77373866Y-55538095D02*
X77278628Y-55585714D01*
X77278628Y-55585714D02*
X77231009Y-55633333D01*
X77231009Y-55633333D02*
X77183390Y-55728571D01*
X72954819Y-69542857D02*
X72478628Y-69876190D01*
X72954819Y-70114285D02*
X71954819Y-70114285D01*
X71954819Y-70114285D02*
X71954819Y-69733333D01*
X71954819Y-69733333D02*
X72002438Y-69638095D01*
X72002438Y-69638095D02*
X72050057Y-69590476D01*
X72050057Y-69590476D02*
X72145295Y-69542857D01*
X72145295Y-69542857D02*
X72288152Y-69542857D01*
X72288152Y-69542857D02*
X72383390Y-69590476D01*
X72383390Y-69590476D02*
X72431009Y-69638095D01*
X72431009Y-69638095D02*
X72478628Y-69733333D01*
X72478628Y-69733333D02*
X72478628Y-70114285D01*
X71954819Y-69209523D02*
X71954819Y-68590476D01*
X71954819Y-68590476D02*
X72335771Y-68923809D01*
X72335771Y-68923809D02*
X72335771Y-68780952D01*
X72335771Y-68780952D02*
X72383390Y-68685714D01*
X72383390Y-68685714D02*
X72431009Y-68638095D01*
X72431009Y-68638095D02*
X72526247Y-68590476D01*
X72526247Y-68590476D02*
X72764342Y-68590476D01*
X72764342Y-68590476D02*
X72859580Y-68638095D01*
X72859580Y-68638095D02*
X72907200Y-68685714D01*
X72907200Y-68685714D02*
X72954819Y-68780952D01*
X72954819Y-68780952D02*
X72954819Y-69066666D01*
X72954819Y-69066666D02*
X72907200Y-69161904D01*
X72907200Y-69161904D02*
X72859580Y-69209523D01*
X72050057Y-68209523D02*
X72002438Y-68161904D01*
X72002438Y-68161904D02*
X71954819Y-68066666D01*
X71954819Y-68066666D02*
X71954819Y-67828571D01*
X71954819Y-67828571D02*
X72002438Y-67733333D01*
X72002438Y-67733333D02*
X72050057Y-67685714D01*
X72050057Y-67685714D02*
X72145295Y-67638095D01*
X72145295Y-67638095D02*
X72240533Y-67638095D01*
X72240533Y-67638095D02*
X72383390Y-67685714D01*
X72383390Y-67685714D02*
X72954819Y-68257142D01*
X72954819Y-68257142D02*
X72954819Y-67638095D01*
X106834819Y-57742857D02*
X106358628Y-58076190D01*
X106834819Y-58314285D02*
X105834819Y-58314285D01*
X105834819Y-58314285D02*
X105834819Y-57933333D01*
X105834819Y-57933333D02*
X105882438Y-57838095D01*
X105882438Y-57838095D02*
X105930057Y-57790476D01*
X105930057Y-57790476D02*
X106025295Y-57742857D01*
X106025295Y-57742857D02*
X106168152Y-57742857D01*
X106168152Y-57742857D02*
X106263390Y-57790476D01*
X106263390Y-57790476D02*
X106311009Y-57838095D01*
X106311009Y-57838095D02*
X106358628Y-57933333D01*
X106358628Y-57933333D02*
X106358628Y-58314285D01*
X105834819Y-56885714D02*
X105834819Y-57076190D01*
X105834819Y-57076190D02*
X105882438Y-57171428D01*
X105882438Y-57171428D02*
X105930057Y-57219047D01*
X105930057Y-57219047D02*
X106072914Y-57314285D01*
X106072914Y-57314285D02*
X106263390Y-57361904D01*
X106263390Y-57361904D02*
X106644342Y-57361904D01*
X106644342Y-57361904D02*
X106739580Y-57314285D01*
X106739580Y-57314285D02*
X106787200Y-57266666D01*
X106787200Y-57266666D02*
X106834819Y-57171428D01*
X106834819Y-57171428D02*
X106834819Y-56980952D01*
X106834819Y-56980952D02*
X106787200Y-56885714D01*
X106787200Y-56885714D02*
X106739580Y-56838095D01*
X106739580Y-56838095D02*
X106644342Y-56790476D01*
X106644342Y-56790476D02*
X106406247Y-56790476D01*
X106406247Y-56790476D02*
X106311009Y-56838095D01*
X106311009Y-56838095D02*
X106263390Y-56885714D01*
X106263390Y-56885714D02*
X106215771Y-56980952D01*
X106215771Y-56980952D02*
X106215771Y-57171428D01*
X106215771Y-57171428D02*
X106263390Y-57266666D01*
X106263390Y-57266666D02*
X106311009Y-57314285D01*
X106311009Y-57314285D02*
X106406247Y-57361904D01*
X106834819Y-55838095D02*
X106834819Y-56409523D01*
X106834819Y-56123809D02*
X105834819Y-56123809D01*
X105834819Y-56123809D02*
X105977676Y-56219047D01*
X105977676Y-56219047D02*
X106072914Y-56314285D01*
X106072914Y-56314285D02*
X106120533Y-56409523D01*
X75454819Y-81742857D02*
X74978628Y-82076190D01*
X75454819Y-82314285D02*
X74454819Y-82314285D01*
X74454819Y-82314285D02*
X74454819Y-81933333D01*
X74454819Y-81933333D02*
X74502438Y-81838095D01*
X74502438Y-81838095D02*
X74550057Y-81790476D01*
X74550057Y-81790476D02*
X74645295Y-81742857D01*
X74645295Y-81742857D02*
X74788152Y-81742857D01*
X74788152Y-81742857D02*
X74883390Y-81790476D01*
X74883390Y-81790476D02*
X74931009Y-81838095D01*
X74931009Y-81838095D02*
X74978628Y-81933333D01*
X74978628Y-81933333D02*
X74978628Y-82314285D01*
X74454819Y-81409523D02*
X74454819Y-80790476D01*
X74454819Y-80790476D02*
X74835771Y-81123809D01*
X74835771Y-81123809D02*
X74835771Y-80980952D01*
X74835771Y-80980952D02*
X74883390Y-80885714D01*
X74883390Y-80885714D02*
X74931009Y-80838095D01*
X74931009Y-80838095D02*
X75026247Y-80790476D01*
X75026247Y-80790476D02*
X75264342Y-80790476D01*
X75264342Y-80790476D02*
X75359580Y-80838095D01*
X75359580Y-80838095D02*
X75407200Y-80885714D01*
X75407200Y-80885714D02*
X75454819Y-80980952D01*
X75454819Y-80980952D02*
X75454819Y-81266666D01*
X75454819Y-81266666D02*
X75407200Y-81361904D01*
X75407200Y-81361904D02*
X75359580Y-81409523D01*
X75454819Y-80314285D02*
X75454819Y-80123809D01*
X75454819Y-80123809D02*
X75407200Y-80028571D01*
X75407200Y-80028571D02*
X75359580Y-79980952D01*
X75359580Y-79980952D02*
X75216723Y-79885714D01*
X75216723Y-79885714D02*
X75026247Y-79838095D01*
X75026247Y-79838095D02*
X74645295Y-79838095D01*
X74645295Y-79838095D02*
X74550057Y-79885714D01*
X74550057Y-79885714D02*
X74502438Y-79933333D01*
X74502438Y-79933333D02*
X74454819Y-80028571D01*
X74454819Y-80028571D02*
X74454819Y-80219047D01*
X74454819Y-80219047D02*
X74502438Y-80314285D01*
X74502438Y-80314285D02*
X74550057Y-80361904D01*
X74550057Y-80361904D02*
X74645295Y-80409523D01*
X74645295Y-80409523D02*
X74883390Y-80409523D01*
X74883390Y-80409523D02*
X74978628Y-80361904D01*
X74978628Y-80361904D02*
X75026247Y-80314285D01*
X75026247Y-80314285D02*
X75073866Y-80219047D01*
X75073866Y-80219047D02*
X75073866Y-80028571D01*
X75073866Y-80028571D02*
X75026247Y-79933333D01*
X75026247Y-79933333D02*
X74978628Y-79885714D01*
X74978628Y-79885714D02*
X74883390Y-79838095D01*
X84454819Y-81742857D02*
X83978628Y-82076190D01*
X84454819Y-82314285D02*
X83454819Y-82314285D01*
X83454819Y-82314285D02*
X83454819Y-81933333D01*
X83454819Y-81933333D02*
X83502438Y-81838095D01*
X83502438Y-81838095D02*
X83550057Y-81790476D01*
X83550057Y-81790476D02*
X83645295Y-81742857D01*
X83645295Y-81742857D02*
X83788152Y-81742857D01*
X83788152Y-81742857D02*
X83883390Y-81790476D01*
X83883390Y-81790476D02*
X83931009Y-81838095D01*
X83931009Y-81838095D02*
X83978628Y-81933333D01*
X83978628Y-81933333D02*
X83978628Y-82314285D01*
X83454819Y-80838095D02*
X83454819Y-81314285D01*
X83454819Y-81314285D02*
X83931009Y-81361904D01*
X83931009Y-81361904D02*
X83883390Y-81314285D01*
X83883390Y-81314285D02*
X83835771Y-81219047D01*
X83835771Y-81219047D02*
X83835771Y-80980952D01*
X83835771Y-80980952D02*
X83883390Y-80885714D01*
X83883390Y-80885714D02*
X83931009Y-80838095D01*
X83931009Y-80838095D02*
X84026247Y-80790476D01*
X84026247Y-80790476D02*
X84264342Y-80790476D01*
X84264342Y-80790476D02*
X84359580Y-80838095D01*
X84359580Y-80838095D02*
X84407200Y-80885714D01*
X84407200Y-80885714D02*
X84454819Y-80980952D01*
X84454819Y-80980952D02*
X84454819Y-81219047D01*
X84454819Y-81219047D02*
X84407200Y-81314285D01*
X84407200Y-81314285D02*
X84359580Y-81361904D01*
X84454819Y-79838095D02*
X84454819Y-80409523D01*
X84454819Y-80123809D02*
X83454819Y-80123809D01*
X83454819Y-80123809D02*
X83597676Y-80219047D01*
X83597676Y-80219047D02*
X83692914Y-80314285D01*
X83692914Y-80314285D02*
X83740533Y-80409523D01*
X76628571Y-93150057D02*
X76533333Y-93102438D01*
X76533333Y-93102438D02*
X76438095Y-93007200D01*
X76438095Y-93007200D02*
X76295238Y-92864342D01*
X76295238Y-92864342D02*
X76200000Y-92816723D01*
X76200000Y-92816723D02*
X76104762Y-92816723D01*
X76152381Y-93054819D02*
X76057143Y-93007200D01*
X76057143Y-93007200D02*
X75961905Y-92911961D01*
X75961905Y-92911961D02*
X75914286Y-92721485D01*
X75914286Y-92721485D02*
X75914286Y-92388152D01*
X75914286Y-92388152D02*
X75961905Y-92197676D01*
X75961905Y-92197676D02*
X76057143Y-92102438D01*
X76057143Y-92102438D02*
X76152381Y-92054819D01*
X76152381Y-92054819D02*
X76342857Y-92054819D01*
X76342857Y-92054819D02*
X76438095Y-92102438D01*
X76438095Y-92102438D02*
X76533333Y-92197676D01*
X76533333Y-92197676D02*
X76580952Y-92388152D01*
X76580952Y-92388152D02*
X76580952Y-92721485D01*
X76580952Y-92721485D02*
X76533333Y-92911961D01*
X76533333Y-92911961D02*
X76438095Y-93007200D01*
X76438095Y-93007200D02*
X76342857Y-93054819D01*
X76342857Y-93054819D02*
X76152381Y-93054819D01*
X77533333Y-93054819D02*
X76961905Y-93054819D01*
X77247619Y-93054819D02*
X77247619Y-92054819D01*
X77247619Y-92054819D02*
X77152381Y-92197676D01*
X77152381Y-92197676D02*
X77057143Y-92292914D01*
X77057143Y-92292914D02*
X76961905Y-92340533D01*
X78152381Y-92054819D02*
X78247619Y-92054819D01*
X78247619Y-92054819D02*
X78342857Y-92102438D01*
X78342857Y-92102438D02*
X78390476Y-92150057D01*
X78390476Y-92150057D02*
X78438095Y-92245295D01*
X78438095Y-92245295D02*
X78485714Y-92435771D01*
X78485714Y-92435771D02*
X78485714Y-92673866D01*
X78485714Y-92673866D02*
X78438095Y-92864342D01*
X78438095Y-92864342D02*
X78390476Y-92959580D01*
X78390476Y-92959580D02*
X78342857Y-93007200D01*
X78342857Y-93007200D02*
X78247619Y-93054819D01*
X78247619Y-93054819D02*
X78152381Y-93054819D01*
X78152381Y-93054819D02*
X78057143Y-93007200D01*
X78057143Y-93007200D02*
X78009524Y-92959580D01*
X78009524Y-92959580D02*
X77961905Y-92864342D01*
X77961905Y-92864342D02*
X77914286Y-92673866D01*
X77914286Y-92673866D02*
X77914286Y-92435771D01*
X77914286Y-92435771D02*
X77961905Y-92245295D01*
X77961905Y-92245295D02*
X78009524Y-92150057D01*
X78009524Y-92150057D02*
X78057143Y-92102438D01*
X78057143Y-92102438D02*
X78152381Y-92054819D01*
X90709580Y-59866666D02*
X90757200Y-59914285D01*
X90757200Y-59914285D02*
X90804819Y-60057142D01*
X90804819Y-60057142D02*
X90804819Y-60152380D01*
X90804819Y-60152380D02*
X90757200Y-60295237D01*
X90757200Y-60295237D02*
X90661961Y-60390475D01*
X90661961Y-60390475D02*
X90566723Y-60438094D01*
X90566723Y-60438094D02*
X90376247Y-60485713D01*
X90376247Y-60485713D02*
X90233390Y-60485713D01*
X90233390Y-60485713D02*
X90042914Y-60438094D01*
X90042914Y-60438094D02*
X89947676Y-60390475D01*
X89947676Y-60390475D02*
X89852438Y-60295237D01*
X89852438Y-60295237D02*
X89804819Y-60152380D01*
X89804819Y-60152380D02*
X89804819Y-60057142D01*
X89804819Y-60057142D02*
X89852438Y-59914285D01*
X89852438Y-59914285D02*
X89900057Y-59866666D01*
X89804819Y-59533332D02*
X89804819Y-58914285D01*
X89804819Y-58914285D02*
X90185771Y-59247618D01*
X90185771Y-59247618D02*
X90185771Y-59104761D01*
X90185771Y-59104761D02*
X90233390Y-59009523D01*
X90233390Y-59009523D02*
X90281009Y-58961904D01*
X90281009Y-58961904D02*
X90376247Y-58914285D01*
X90376247Y-58914285D02*
X90614342Y-58914285D01*
X90614342Y-58914285D02*
X90709580Y-58961904D01*
X90709580Y-58961904D02*
X90757200Y-59009523D01*
X90757200Y-59009523D02*
X90804819Y-59104761D01*
X90804819Y-59104761D02*
X90804819Y-59390475D01*
X90804819Y-59390475D02*
X90757200Y-59485713D01*
X90757200Y-59485713D02*
X90709580Y-59533332D01*
X100759580Y-57766666D02*
X100807200Y-57814285D01*
X100807200Y-57814285D02*
X100854819Y-57957142D01*
X100854819Y-57957142D02*
X100854819Y-58052380D01*
X100854819Y-58052380D02*
X100807200Y-58195237D01*
X100807200Y-58195237D02*
X100711961Y-58290475D01*
X100711961Y-58290475D02*
X100616723Y-58338094D01*
X100616723Y-58338094D02*
X100426247Y-58385713D01*
X100426247Y-58385713D02*
X100283390Y-58385713D01*
X100283390Y-58385713D02*
X100092914Y-58338094D01*
X100092914Y-58338094D02*
X99997676Y-58290475D01*
X99997676Y-58290475D02*
X99902438Y-58195237D01*
X99902438Y-58195237D02*
X99854819Y-58052380D01*
X99854819Y-58052380D02*
X99854819Y-57957142D01*
X99854819Y-57957142D02*
X99902438Y-57814285D01*
X99902438Y-57814285D02*
X99950057Y-57766666D01*
X99950057Y-57385713D02*
X99902438Y-57338094D01*
X99902438Y-57338094D02*
X99854819Y-57242856D01*
X99854819Y-57242856D02*
X99854819Y-57004761D01*
X99854819Y-57004761D02*
X99902438Y-56909523D01*
X99902438Y-56909523D02*
X99950057Y-56861904D01*
X99950057Y-56861904D02*
X100045295Y-56814285D01*
X100045295Y-56814285D02*
X100140533Y-56814285D01*
X100140533Y-56814285D02*
X100283390Y-56861904D01*
X100283390Y-56861904D02*
X100854819Y-57433332D01*
X100854819Y-57433332D02*
X100854819Y-56814285D01*
X82354819Y-52242857D02*
X81878628Y-52576190D01*
X82354819Y-52814285D02*
X81354819Y-52814285D01*
X81354819Y-52814285D02*
X81354819Y-52433333D01*
X81354819Y-52433333D02*
X81402438Y-52338095D01*
X81402438Y-52338095D02*
X81450057Y-52290476D01*
X81450057Y-52290476D02*
X81545295Y-52242857D01*
X81545295Y-52242857D02*
X81688152Y-52242857D01*
X81688152Y-52242857D02*
X81783390Y-52290476D01*
X81783390Y-52290476D02*
X81831009Y-52338095D01*
X81831009Y-52338095D02*
X81878628Y-52433333D01*
X81878628Y-52433333D02*
X81878628Y-52814285D01*
X81450057Y-51861904D02*
X81402438Y-51814285D01*
X81402438Y-51814285D02*
X81354819Y-51719047D01*
X81354819Y-51719047D02*
X81354819Y-51480952D01*
X81354819Y-51480952D02*
X81402438Y-51385714D01*
X81402438Y-51385714D02*
X81450057Y-51338095D01*
X81450057Y-51338095D02*
X81545295Y-51290476D01*
X81545295Y-51290476D02*
X81640533Y-51290476D01*
X81640533Y-51290476D02*
X81783390Y-51338095D01*
X81783390Y-51338095D02*
X82354819Y-51909523D01*
X82354819Y-51909523D02*
X82354819Y-51290476D01*
X81688152Y-50433333D02*
X82354819Y-50433333D01*
X81307200Y-50671428D02*
X82021485Y-50909523D01*
X82021485Y-50909523D02*
X82021485Y-50290476D01*
X77404761Y-86150057D02*
X77309523Y-86102438D01*
X77309523Y-86102438D02*
X77214285Y-86007200D01*
X77214285Y-86007200D02*
X77071428Y-85864342D01*
X77071428Y-85864342D02*
X76976190Y-85816723D01*
X76976190Y-85816723D02*
X76880952Y-85816723D01*
X76928571Y-86054819D02*
X76833333Y-86007200D01*
X76833333Y-86007200D02*
X76738095Y-85911961D01*
X76738095Y-85911961D02*
X76690476Y-85721485D01*
X76690476Y-85721485D02*
X76690476Y-85388152D01*
X76690476Y-85388152D02*
X76738095Y-85197676D01*
X76738095Y-85197676D02*
X76833333Y-85102438D01*
X76833333Y-85102438D02*
X76928571Y-85054819D01*
X76928571Y-85054819D02*
X77119047Y-85054819D01*
X77119047Y-85054819D02*
X77214285Y-85102438D01*
X77214285Y-85102438D02*
X77309523Y-85197676D01*
X77309523Y-85197676D02*
X77357142Y-85388152D01*
X77357142Y-85388152D02*
X77357142Y-85721485D01*
X77357142Y-85721485D02*
X77309523Y-85911961D01*
X77309523Y-85911961D02*
X77214285Y-86007200D01*
X77214285Y-86007200D02*
X77119047Y-86054819D01*
X77119047Y-86054819D02*
X76928571Y-86054819D01*
X77738095Y-85150057D02*
X77785714Y-85102438D01*
X77785714Y-85102438D02*
X77880952Y-85054819D01*
X77880952Y-85054819D02*
X78119047Y-85054819D01*
X78119047Y-85054819D02*
X78214285Y-85102438D01*
X78214285Y-85102438D02*
X78261904Y-85150057D01*
X78261904Y-85150057D02*
X78309523Y-85245295D01*
X78309523Y-85245295D02*
X78309523Y-85340533D01*
X78309523Y-85340533D02*
X78261904Y-85483390D01*
X78261904Y-85483390D02*
X77690476Y-86054819D01*
X77690476Y-86054819D02*
X78309523Y-86054819D01*
X61354819Y-69442857D02*
X60878628Y-69776190D01*
X61354819Y-70014285D02*
X60354819Y-70014285D01*
X60354819Y-70014285D02*
X60354819Y-69633333D01*
X60354819Y-69633333D02*
X60402438Y-69538095D01*
X60402438Y-69538095D02*
X60450057Y-69490476D01*
X60450057Y-69490476D02*
X60545295Y-69442857D01*
X60545295Y-69442857D02*
X60688152Y-69442857D01*
X60688152Y-69442857D02*
X60783390Y-69490476D01*
X60783390Y-69490476D02*
X60831009Y-69538095D01*
X60831009Y-69538095D02*
X60878628Y-69633333D01*
X60878628Y-69633333D02*
X60878628Y-70014285D01*
X61354819Y-68490476D02*
X61354819Y-69061904D01*
X61354819Y-68776190D02*
X60354819Y-68776190D01*
X60354819Y-68776190D02*
X60497676Y-68871428D01*
X60497676Y-68871428D02*
X60592914Y-68966666D01*
X60592914Y-68966666D02*
X60640533Y-69061904D01*
X60354819Y-68157142D02*
X60354819Y-67538095D01*
X60354819Y-67538095D02*
X60735771Y-67871428D01*
X60735771Y-67871428D02*
X60735771Y-67728571D01*
X60735771Y-67728571D02*
X60783390Y-67633333D01*
X60783390Y-67633333D02*
X60831009Y-67585714D01*
X60831009Y-67585714D02*
X60926247Y-67538095D01*
X60926247Y-67538095D02*
X61164342Y-67538095D01*
X61164342Y-67538095D02*
X61259580Y-67585714D01*
X61259580Y-67585714D02*
X61307200Y-67633333D01*
X61307200Y-67633333D02*
X61354819Y-67728571D01*
X61354819Y-67728571D02*
X61354819Y-68014285D01*
X61354819Y-68014285D02*
X61307200Y-68109523D01*
X61307200Y-68109523D02*
X61259580Y-68157142D01*
X89854819Y-59666666D02*
X89854819Y-60142856D01*
X89854819Y-60142856D02*
X88854819Y-60142856D01*
X88950057Y-59380951D02*
X88902438Y-59333332D01*
X88902438Y-59333332D02*
X88854819Y-59238094D01*
X88854819Y-59238094D02*
X88854819Y-58999999D01*
X88854819Y-58999999D02*
X88902438Y-58904761D01*
X88902438Y-58904761D02*
X88950057Y-58857142D01*
X88950057Y-58857142D02*
X89045295Y-58809523D01*
X89045295Y-58809523D02*
X89140533Y-58809523D01*
X89140533Y-58809523D02*
X89283390Y-58857142D01*
X89283390Y-58857142D02*
X89854819Y-59428570D01*
X89854819Y-59428570D02*
X89854819Y-58809523D01*
X75254819Y-69642857D02*
X74778628Y-69976190D01*
X75254819Y-70214285D02*
X74254819Y-70214285D01*
X74254819Y-70214285D02*
X74254819Y-69833333D01*
X74254819Y-69833333D02*
X74302438Y-69738095D01*
X74302438Y-69738095D02*
X74350057Y-69690476D01*
X74350057Y-69690476D02*
X74445295Y-69642857D01*
X74445295Y-69642857D02*
X74588152Y-69642857D01*
X74588152Y-69642857D02*
X74683390Y-69690476D01*
X74683390Y-69690476D02*
X74731009Y-69738095D01*
X74731009Y-69738095D02*
X74778628Y-69833333D01*
X74778628Y-69833333D02*
X74778628Y-70214285D01*
X74254819Y-69309523D02*
X74254819Y-68690476D01*
X74254819Y-68690476D02*
X74635771Y-69023809D01*
X74635771Y-69023809D02*
X74635771Y-68880952D01*
X74635771Y-68880952D02*
X74683390Y-68785714D01*
X74683390Y-68785714D02*
X74731009Y-68738095D01*
X74731009Y-68738095D02*
X74826247Y-68690476D01*
X74826247Y-68690476D02*
X75064342Y-68690476D01*
X75064342Y-68690476D02*
X75159580Y-68738095D01*
X75159580Y-68738095D02*
X75207200Y-68785714D01*
X75207200Y-68785714D02*
X75254819Y-68880952D01*
X75254819Y-68880952D02*
X75254819Y-69166666D01*
X75254819Y-69166666D02*
X75207200Y-69261904D01*
X75207200Y-69261904D02*
X75159580Y-69309523D01*
X75254819Y-67738095D02*
X75254819Y-68309523D01*
X75254819Y-68023809D02*
X74254819Y-68023809D01*
X74254819Y-68023809D02*
X74397676Y-68119047D01*
X74397676Y-68119047D02*
X74492914Y-68214285D01*
X74492914Y-68214285D02*
X74540533Y-68309523D01*
X84554819Y-52442857D02*
X84078628Y-52776190D01*
X84554819Y-53014285D02*
X83554819Y-53014285D01*
X83554819Y-53014285D02*
X83554819Y-52633333D01*
X83554819Y-52633333D02*
X83602438Y-52538095D01*
X83602438Y-52538095D02*
X83650057Y-52490476D01*
X83650057Y-52490476D02*
X83745295Y-52442857D01*
X83745295Y-52442857D02*
X83888152Y-52442857D01*
X83888152Y-52442857D02*
X83983390Y-52490476D01*
X83983390Y-52490476D02*
X84031009Y-52538095D01*
X84031009Y-52538095D02*
X84078628Y-52633333D01*
X84078628Y-52633333D02*
X84078628Y-53014285D01*
X83650057Y-52061904D02*
X83602438Y-52014285D01*
X83602438Y-52014285D02*
X83554819Y-51919047D01*
X83554819Y-51919047D02*
X83554819Y-51680952D01*
X83554819Y-51680952D02*
X83602438Y-51585714D01*
X83602438Y-51585714D02*
X83650057Y-51538095D01*
X83650057Y-51538095D02*
X83745295Y-51490476D01*
X83745295Y-51490476D02*
X83840533Y-51490476D01*
X83840533Y-51490476D02*
X83983390Y-51538095D01*
X83983390Y-51538095D02*
X84554819Y-52109523D01*
X84554819Y-52109523D02*
X84554819Y-51490476D01*
X84554819Y-50538095D02*
X84554819Y-51109523D01*
X84554819Y-50823809D02*
X83554819Y-50823809D01*
X83554819Y-50823809D02*
X83697676Y-50919047D01*
X83697676Y-50919047D02*
X83792914Y-51014285D01*
X83792914Y-51014285D02*
X83840533Y-51109523D01*
X105708095Y-68614819D02*
X105708095Y-69424342D01*
X105708095Y-69424342D02*
X105755714Y-69519580D01*
X105755714Y-69519580D02*
X105803333Y-69567200D01*
X105803333Y-69567200D02*
X105898571Y-69614819D01*
X105898571Y-69614819D02*
X106089047Y-69614819D01*
X106089047Y-69614819D02*
X106184285Y-69567200D01*
X106184285Y-69567200D02*
X106231904Y-69519580D01*
X106231904Y-69519580D02*
X106279523Y-69424342D01*
X106279523Y-69424342D02*
X106279523Y-68614819D01*
X107184285Y-68948152D02*
X107184285Y-69614819D01*
X106946190Y-68567200D02*
X106708095Y-69281485D01*
X106708095Y-69281485D02*
X107327142Y-69281485D01*
X84654819Y-57542857D02*
X84178628Y-57876190D01*
X84654819Y-58114285D02*
X83654819Y-58114285D01*
X83654819Y-58114285D02*
X83654819Y-57733333D01*
X83654819Y-57733333D02*
X83702438Y-57638095D01*
X83702438Y-57638095D02*
X83750057Y-57590476D01*
X83750057Y-57590476D02*
X83845295Y-57542857D01*
X83845295Y-57542857D02*
X83988152Y-57542857D01*
X83988152Y-57542857D02*
X84083390Y-57590476D01*
X84083390Y-57590476D02*
X84131009Y-57638095D01*
X84131009Y-57638095D02*
X84178628Y-57733333D01*
X84178628Y-57733333D02*
X84178628Y-58114285D01*
X84654819Y-56590476D02*
X84654819Y-57161904D01*
X84654819Y-56876190D02*
X83654819Y-56876190D01*
X83654819Y-56876190D02*
X83797676Y-56971428D01*
X83797676Y-56971428D02*
X83892914Y-57066666D01*
X83892914Y-57066666D02*
X83940533Y-57161904D01*
X84654819Y-56114285D02*
X84654819Y-55923809D01*
X84654819Y-55923809D02*
X84607200Y-55828571D01*
X84607200Y-55828571D02*
X84559580Y-55780952D01*
X84559580Y-55780952D02*
X84416723Y-55685714D01*
X84416723Y-55685714D02*
X84226247Y-55638095D01*
X84226247Y-55638095D02*
X83845295Y-55638095D01*
X83845295Y-55638095D02*
X83750057Y-55685714D01*
X83750057Y-55685714D02*
X83702438Y-55733333D01*
X83702438Y-55733333D02*
X83654819Y-55828571D01*
X83654819Y-55828571D02*
X83654819Y-56019047D01*
X83654819Y-56019047D02*
X83702438Y-56114285D01*
X83702438Y-56114285D02*
X83750057Y-56161904D01*
X83750057Y-56161904D02*
X83845295Y-56209523D01*
X83845295Y-56209523D02*
X84083390Y-56209523D01*
X84083390Y-56209523D02*
X84178628Y-56161904D01*
X84178628Y-56161904D02*
X84226247Y-56114285D01*
X84226247Y-56114285D02*
X84273866Y-56019047D01*
X84273866Y-56019047D02*
X84273866Y-55828571D01*
X84273866Y-55828571D02*
X84226247Y-55733333D01*
X84226247Y-55733333D02*
X84178628Y-55685714D01*
X84178628Y-55685714D02*
X84083390Y-55638095D01*
X88128571Y-47450057D02*
X88033333Y-47402438D01*
X88033333Y-47402438D02*
X87938095Y-47307200D01*
X87938095Y-47307200D02*
X87795238Y-47164342D01*
X87795238Y-47164342D02*
X87700000Y-47116723D01*
X87700000Y-47116723D02*
X87604762Y-47116723D01*
X87652381Y-47354819D02*
X87557143Y-47307200D01*
X87557143Y-47307200D02*
X87461905Y-47211961D01*
X87461905Y-47211961D02*
X87414286Y-47021485D01*
X87414286Y-47021485D02*
X87414286Y-46688152D01*
X87414286Y-46688152D02*
X87461905Y-46497676D01*
X87461905Y-46497676D02*
X87557143Y-46402438D01*
X87557143Y-46402438D02*
X87652381Y-46354819D01*
X87652381Y-46354819D02*
X87842857Y-46354819D01*
X87842857Y-46354819D02*
X87938095Y-46402438D01*
X87938095Y-46402438D02*
X88033333Y-46497676D01*
X88033333Y-46497676D02*
X88080952Y-46688152D01*
X88080952Y-46688152D02*
X88080952Y-47021485D01*
X88080952Y-47021485D02*
X88033333Y-47211961D01*
X88033333Y-47211961D02*
X87938095Y-47307200D01*
X87938095Y-47307200D02*
X87842857Y-47354819D01*
X87842857Y-47354819D02*
X87652381Y-47354819D01*
X89033333Y-47354819D02*
X88461905Y-47354819D01*
X88747619Y-47354819D02*
X88747619Y-46354819D01*
X88747619Y-46354819D02*
X88652381Y-46497676D01*
X88652381Y-46497676D02*
X88557143Y-46592914D01*
X88557143Y-46592914D02*
X88461905Y-46640533D01*
X89985714Y-47354819D02*
X89414286Y-47354819D01*
X89700000Y-47354819D02*
X89700000Y-46354819D01*
X89700000Y-46354819D02*
X89604762Y-46497676D01*
X89604762Y-46497676D02*
X89509524Y-46592914D01*
X89509524Y-46592914D02*
X89414286Y-46640533D01*
X79954819Y-52242857D02*
X79478628Y-52576190D01*
X79954819Y-52814285D02*
X78954819Y-52814285D01*
X78954819Y-52814285D02*
X78954819Y-52433333D01*
X78954819Y-52433333D02*
X79002438Y-52338095D01*
X79002438Y-52338095D02*
X79050057Y-52290476D01*
X79050057Y-52290476D02*
X79145295Y-52242857D01*
X79145295Y-52242857D02*
X79288152Y-52242857D01*
X79288152Y-52242857D02*
X79383390Y-52290476D01*
X79383390Y-52290476D02*
X79431009Y-52338095D01*
X79431009Y-52338095D02*
X79478628Y-52433333D01*
X79478628Y-52433333D02*
X79478628Y-52814285D01*
X79050057Y-51861904D02*
X79002438Y-51814285D01*
X79002438Y-51814285D02*
X78954819Y-51719047D01*
X78954819Y-51719047D02*
X78954819Y-51480952D01*
X78954819Y-51480952D02*
X79002438Y-51385714D01*
X79002438Y-51385714D02*
X79050057Y-51338095D01*
X79050057Y-51338095D02*
X79145295Y-51290476D01*
X79145295Y-51290476D02*
X79240533Y-51290476D01*
X79240533Y-51290476D02*
X79383390Y-51338095D01*
X79383390Y-51338095D02*
X79954819Y-51909523D01*
X79954819Y-51909523D02*
X79954819Y-51290476D01*
X78954819Y-50957142D02*
X78954819Y-50290476D01*
X78954819Y-50290476D02*
X79954819Y-50719047D01*
X67004761Y-92750057D02*
X66909523Y-92702438D01*
X66909523Y-92702438D02*
X66814285Y-92607200D01*
X66814285Y-92607200D02*
X66671428Y-92464342D01*
X66671428Y-92464342D02*
X66576190Y-92416723D01*
X66576190Y-92416723D02*
X66480952Y-92416723D01*
X66528571Y-92654819D02*
X66433333Y-92607200D01*
X66433333Y-92607200D02*
X66338095Y-92511961D01*
X66338095Y-92511961D02*
X66290476Y-92321485D01*
X66290476Y-92321485D02*
X66290476Y-91988152D01*
X66290476Y-91988152D02*
X66338095Y-91797676D01*
X66338095Y-91797676D02*
X66433333Y-91702438D01*
X66433333Y-91702438D02*
X66528571Y-91654819D01*
X66528571Y-91654819D02*
X66719047Y-91654819D01*
X66719047Y-91654819D02*
X66814285Y-91702438D01*
X66814285Y-91702438D02*
X66909523Y-91797676D01*
X66909523Y-91797676D02*
X66957142Y-91988152D01*
X66957142Y-91988152D02*
X66957142Y-92321485D01*
X66957142Y-92321485D02*
X66909523Y-92511961D01*
X66909523Y-92511961D02*
X66814285Y-92607200D01*
X66814285Y-92607200D02*
X66719047Y-92654819D01*
X66719047Y-92654819D02*
X66528571Y-92654819D01*
X67433333Y-92654819D02*
X67623809Y-92654819D01*
X67623809Y-92654819D02*
X67719047Y-92607200D01*
X67719047Y-92607200D02*
X67766666Y-92559580D01*
X67766666Y-92559580D02*
X67861904Y-92416723D01*
X67861904Y-92416723D02*
X67909523Y-92226247D01*
X67909523Y-92226247D02*
X67909523Y-91845295D01*
X67909523Y-91845295D02*
X67861904Y-91750057D01*
X67861904Y-91750057D02*
X67814285Y-91702438D01*
X67814285Y-91702438D02*
X67719047Y-91654819D01*
X67719047Y-91654819D02*
X67528571Y-91654819D01*
X67528571Y-91654819D02*
X67433333Y-91702438D01*
X67433333Y-91702438D02*
X67385714Y-91750057D01*
X67385714Y-91750057D02*
X67338095Y-91845295D01*
X67338095Y-91845295D02*
X67338095Y-92083390D01*
X67338095Y-92083390D02*
X67385714Y-92178628D01*
X67385714Y-92178628D02*
X67433333Y-92226247D01*
X67433333Y-92226247D02*
X67528571Y-92273866D01*
X67528571Y-92273866D02*
X67719047Y-92273866D01*
X67719047Y-92273866D02*
X67814285Y-92226247D01*
X67814285Y-92226247D02*
X67861904Y-92178628D01*
X67861904Y-92178628D02*
X67909523Y-92083390D01*
X86654819Y-72842857D02*
X86178628Y-73176190D01*
X86654819Y-73414285D02*
X85654819Y-73414285D01*
X85654819Y-73414285D02*
X85654819Y-73033333D01*
X85654819Y-73033333D02*
X85702438Y-72938095D01*
X85702438Y-72938095D02*
X85750057Y-72890476D01*
X85750057Y-72890476D02*
X85845295Y-72842857D01*
X85845295Y-72842857D02*
X85988152Y-72842857D01*
X85988152Y-72842857D02*
X86083390Y-72890476D01*
X86083390Y-72890476D02*
X86131009Y-72938095D01*
X86131009Y-72938095D02*
X86178628Y-73033333D01*
X86178628Y-73033333D02*
X86178628Y-73414285D01*
X85988152Y-71985714D02*
X86654819Y-71985714D01*
X85607200Y-72223809D02*
X86321485Y-72461904D01*
X86321485Y-72461904D02*
X86321485Y-71842857D01*
X85654819Y-71557142D02*
X85654819Y-70938095D01*
X85654819Y-70938095D02*
X86035771Y-71271428D01*
X86035771Y-71271428D02*
X86035771Y-71128571D01*
X86035771Y-71128571D02*
X86083390Y-71033333D01*
X86083390Y-71033333D02*
X86131009Y-70985714D01*
X86131009Y-70985714D02*
X86226247Y-70938095D01*
X86226247Y-70938095D02*
X86464342Y-70938095D01*
X86464342Y-70938095D02*
X86559580Y-70985714D01*
X86559580Y-70985714D02*
X86607200Y-71033333D01*
X86607200Y-71033333D02*
X86654819Y-71128571D01*
X86654819Y-71128571D02*
X86654819Y-71414285D01*
X86654819Y-71414285D02*
X86607200Y-71509523D01*
X86607200Y-71509523D02*
X86559580Y-71557142D01*
X98528571Y-93050057D02*
X98433333Y-93002438D01*
X98433333Y-93002438D02*
X98338095Y-92907200D01*
X98338095Y-92907200D02*
X98195238Y-92764342D01*
X98195238Y-92764342D02*
X98100000Y-92716723D01*
X98100000Y-92716723D02*
X98004762Y-92716723D01*
X98052381Y-92954819D02*
X97957143Y-92907200D01*
X97957143Y-92907200D02*
X97861905Y-92811961D01*
X97861905Y-92811961D02*
X97814286Y-92621485D01*
X97814286Y-92621485D02*
X97814286Y-92288152D01*
X97814286Y-92288152D02*
X97861905Y-92097676D01*
X97861905Y-92097676D02*
X97957143Y-92002438D01*
X97957143Y-92002438D02*
X98052381Y-91954819D01*
X98052381Y-91954819D02*
X98242857Y-91954819D01*
X98242857Y-91954819D02*
X98338095Y-92002438D01*
X98338095Y-92002438D02*
X98433333Y-92097676D01*
X98433333Y-92097676D02*
X98480952Y-92288152D01*
X98480952Y-92288152D02*
X98480952Y-92621485D01*
X98480952Y-92621485D02*
X98433333Y-92811961D01*
X98433333Y-92811961D02*
X98338095Y-92907200D01*
X98338095Y-92907200D02*
X98242857Y-92954819D01*
X98242857Y-92954819D02*
X98052381Y-92954819D01*
X99433333Y-92954819D02*
X98861905Y-92954819D01*
X99147619Y-92954819D02*
X99147619Y-91954819D01*
X99147619Y-91954819D02*
X99052381Y-92097676D01*
X99052381Y-92097676D02*
X98957143Y-92192914D01*
X98957143Y-92192914D02*
X98861905Y-92240533D01*
X99814286Y-92050057D02*
X99861905Y-92002438D01*
X99861905Y-92002438D02*
X99957143Y-91954819D01*
X99957143Y-91954819D02*
X100195238Y-91954819D01*
X100195238Y-91954819D02*
X100290476Y-92002438D01*
X100290476Y-92002438D02*
X100338095Y-92050057D01*
X100338095Y-92050057D02*
X100385714Y-92145295D01*
X100385714Y-92145295D02*
X100385714Y-92240533D01*
X100385714Y-92240533D02*
X100338095Y-92383390D01*
X100338095Y-92383390D02*
X99766667Y-92954819D01*
X99766667Y-92954819D02*
X100385714Y-92954819D01*
X88804761Y-39950057D02*
X88709523Y-39902438D01*
X88709523Y-39902438D02*
X88614285Y-39807200D01*
X88614285Y-39807200D02*
X88471428Y-39664342D01*
X88471428Y-39664342D02*
X88376190Y-39616723D01*
X88376190Y-39616723D02*
X88280952Y-39616723D01*
X88328571Y-39854819D02*
X88233333Y-39807200D01*
X88233333Y-39807200D02*
X88138095Y-39711961D01*
X88138095Y-39711961D02*
X88090476Y-39521485D01*
X88090476Y-39521485D02*
X88090476Y-39188152D01*
X88090476Y-39188152D02*
X88138095Y-38997676D01*
X88138095Y-38997676D02*
X88233333Y-38902438D01*
X88233333Y-38902438D02*
X88328571Y-38854819D01*
X88328571Y-38854819D02*
X88519047Y-38854819D01*
X88519047Y-38854819D02*
X88614285Y-38902438D01*
X88614285Y-38902438D02*
X88709523Y-38997676D01*
X88709523Y-38997676D02*
X88757142Y-39188152D01*
X88757142Y-39188152D02*
X88757142Y-39521485D01*
X88757142Y-39521485D02*
X88709523Y-39711961D01*
X88709523Y-39711961D02*
X88614285Y-39807200D01*
X88614285Y-39807200D02*
X88519047Y-39854819D01*
X88519047Y-39854819D02*
X88328571Y-39854819D01*
X89090476Y-38854819D02*
X89709523Y-38854819D01*
X89709523Y-38854819D02*
X89376190Y-39235771D01*
X89376190Y-39235771D02*
X89519047Y-39235771D01*
X89519047Y-39235771D02*
X89614285Y-39283390D01*
X89614285Y-39283390D02*
X89661904Y-39331009D01*
X89661904Y-39331009D02*
X89709523Y-39426247D01*
X89709523Y-39426247D02*
X89709523Y-39664342D01*
X89709523Y-39664342D02*
X89661904Y-39759580D01*
X89661904Y-39759580D02*
X89614285Y-39807200D01*
X89614285Y-39807200D02*
X89519047Y-39854819D01*
X89519047Y-39854819D02*
X89233333Y-39854819D01*
X89233333Y-39854819D02*
X89138095Y-39807200D01*
X89138095Y-39807200D02*
X89090476Y-39759580D01*
X59054819Y-58666666D02*
X58578628Y-58999999D01*
X59054819Y-59238094D02*
X58054819Y-59238094D01*
X58054819Y-59238094D02*
X58054819Y-58857142D01*
X58054819Y-58857142D02*
X58102438Y-58761904D01*
X58102438Y-58761904D02*
X58150057Y-58714285D01*
X58150057Y-58714285D02*
X58245295Y-58666666D01*
X58245295Y-58666666D02*
X58388152Y-58666666D01*
X58388152Y-58666666D02*
X58483390Y-58714285D01*
X58483390Y-58714285D02*
X58531009Y-58761904D01*
X58531009Y-58761904D02*
X58578628Y-58857142D01*
X58578628Y-58857142D02*
X58578628Y-59238094D01*
X58054819Y-57809523D02*
X58054819Y-57999999D01*
X58054819Y-57999999D02*
X58102438Y-58095237D01*
X58102438Y-58095237D02*
X58150057Y-58142856D01*
X58150057Y-58142856D02*
X58292914Y-58238094D01*
X58292914Y-58238094D02*
X58483390Y-58285713D01*
X58483390Y-58285713D02*
X58864342Y-58285713D01*
X58864342Y-58285713D02*
X58959580Y-58238094D01*
X58959580Y-58238094D02*
X59007200Y-58190475D01*
X59007200Y-58190475D02*
X59054819Y-58095237D01*
X59054819Y-58095237D02*
X59054819Y-57904761D01*
X59054819Y-57904761D02*
X59007200Y-57809523D01*
X59007200Y-57809523D02*
X58959580Y-57761904D01*
X58959580Y-57761904D02*
X58864342Y-57714285D01*
X58864342Y-57714285D02*
X58626247Y-57714285D01*
X58626247Y-57714285D02*
X58531009Y-57761904D01*
X58531009Y-57761904D02*
X58483390Y-57809523D01*
X58483390Y-57809523D02*
X58435771Y-57904761D01*
X58435771Y-57904761D02*
X58435771Y-58095237D01*
X58435771Y-58095237D02*
X58483390Y-58190475D01*
X58483390Y-58190475D02*
X58531009Y-58238094D01*
X58531009Y-58238094D02*
X58626247Y-58285713D01*
X79854819Y-69542857D02*
X79378628Y-69876190D01*
X79854819Y-70114285D02*
X78854819Y-70114285D01*
X78854819Y-70114285D02*
X78854819Y-69733333D01*
X78854819Y-69733333D02*
X78902438Y-69638095D01*
X78902438Y-69638095D02*
X78950057Y-69590476D01*
X78950057Y-69590476D02*
X79045295Y-69542857D01*
X79045295Y-69542857D02*
X79188152Y-69542857D01*
X79188152Y-69542857D02*
X79283390Y-69590476D01*
X79283390Y-69590476D02*
X79331009Y-69638095D01*
X79331009Y-69638095D02*
X79378628Y-69733333D01*
X79378628Y-69733333D02*
X79378628Y-70114285D01*
X79188152Y-68685714D02*
X79854819Y-68685714D01*
X78807200Y-68923809D02*
X79521485Y-69161904D01*
X79521485Y-69161904D02*
X79521485Y-68542857D01*
X78854819Y-67733333D02*
X78854819Y-67923809D01*
X78854819Y-67923809D02*
X78902438Y-68019047D01*
X78902438Y-68019047D02*
X78950057Y-68066666D01*
X78950057Y-68066666D02*
X79092914Y-68161904D01*
X79092914Y-68161904D02*
X79283390Y-68209523D01*
X79283390Y-68209523D02*
X79664342Y-68209523D01*
X79664342Y-68209523D02*
X79759580Y-68161904D01*
X79759580Y-68161904D02*
X79807200Y-68114285D01*
X79807200Y-68114285D02*
X79854819Y-68019047D01*
X79854819Y-68019047D02*
X79854819Y-67828571D01*
X79854819Y-67828571D02*
X79807200Y-67733333D01*
X79807200Y-67733333D02*
X79759580Y-67685714D01*
X79759580Y-67685714D02*
X79664342Y-67638095D01*
X79664342Y-67638095D02*
X79426247Y-67638095D01*
X79426247Y-67638095D02*
X79331009Y-67685714D01*
X79331009Y-67685714D02*
X79283390Y-67733333D01*
X79283390Y-67733333D02*
X79235771Y-67828571D01*
X79235771Y-67828571D02*
X79235771Y-68019047D01*
X79235771Y-68019047D02*
X79283390Y-68114285D01*
X79283390Y-68114285D02*
X79331009Y-68161904D01*
X79331009Y-68161904D02*
X79426247Y-68209523D01*
X106398214Y-85134819D02*
X106398214Y-84134819D01*
X106398214Y-84134819D02*
X106636309Y-84134819D01*
X106636309Y-84134819D02*
X106779166Y-84182438D01*
X106779166Y-84182438D02*
X106874404Y-84277676D01*
X106874404Y-84277676D02*
X106922023Y-84372914D01*
X106922023Y-84372914D02*
X106969642Y-84563390D01*
X106969642Y-84563390D02*
X106969642Y-84706247D01*
X106969642Y-84706247D02*
X106922023Y-84896723D01*
X106922023Y-84896723D02*
X106874404Y-84991961D01*
X106874404Y-84991961D02*
X106779166Y-85087200D01*
X106779166Y-85087200D02*
X106636309Y-85134819D01*
X106636309Y-85134819D02*
X106398214Y-85134819D01*
X107922023Y-85134819D02*
X107350595Y-85134819D01*
X107636309Y-85134819D02*
X107636309Y-84134819D01*
X107636309Y-84134819D02*
X107541071Y-84277676D01*
X107541071Y-84277676D02*
X107445833Y-84372914D01*
X107445833Y-84372914D02*
X107350595Y-84420533D01*
X108493452Y-84563390D02*
X108398214Y-84515771D01*
X108398214Y-84515771D02*
X108350595Y-84468152D01*
X108350595Y-84468152D02*
X108302976Y-84372914D01*
X108302976Y-84372914D02*
X108302976Y-84325295D01*
X108302976Y-84325295D02*
X108350595Y-84230057D01*
X108350595Y-84230057D02*
X108398214Y-84182438D01*
X108398214Y-84182438D02*
X108493452Y-84134819D01*
X108493452Y-84134819D02*
X108683928Y-84134819D01*
X108683928Y-84134819D02*
X108779166Y-84182438D01*
X108779166Y-84182438D02*
X108826785Y-84230057D01*
X108826785Y-84230057D02*
X108874404Y-84325295D01*
X108874404Y-84325295D02*
X108874404Y-84372914D01*
X108874404Y-84372914D02*
X108826785Y-84468152D01*
X108826785Y-84468152D02*
X108779166Y-84515771D01*
X108779166Y-84515771D02*
X108683928Y-84563390D01*
X108683928Y-84563390D02*
X108493452Y-84563390D01*
X108493452Y-84563390D02*
X108398214Y-84611009D01*
X108398214Y-84611009D02*
X108350595Y-84658628D01*
X108350595Y-84658628D02*
X108302976Y-84753866D01*
X108302976Y-84753866D02*
X108302976Y-84944342D01*
X108302976Y-84944342D02*
X108350595Y-85039580D01*
X108350595Y-85039580D02*
X108398214Y-85087200D01*
X108398214Y-85087200D02*
X108493452Y-85134819D01*
X108493452Y-85134819D02*
X108683928Y-85134819D01*
X108683928Y-85134819D02*
X108779166Y-85087200D01*
X108779166Y-85087200D02*
X108826785Y-85039580D01*
X108826785Y-85039580D02*
X108874404Y-84944342D01*
X108874404Y-84944342D02*
X108874404Y-84753866D01*
X108874404Y-84753866D02*
X108826785Y-84658628D01*
X108826785Y-84658628D02*
X108779166Y-84611009D01*
X108779166Y-84611009D02*
X108683928Y-84563390D01*
X59054819Y-82242857D02*
X58578628Y-82576190D01*
X59054819Y-82814285D02*
X58054819Y-82814285D01*
X58054819Y-82814285D02*
X58054819Y-82433333D01*
X58054819Y-82433333D02*
X58102438Y-82338095D01*
X58102438Y-82338095D02*
X58150057Y-82290476D01*
X58150057Y-82290476D02*
X58245295Y-82242857D01*
X58245295Y-82242857D02*
X58388152Y-82242857D01*
X58388152Y-82242857D02*
X58483390Y-82290476D01*
X58483390Y-82290476D02*
X58531009Y-82338095D01*
X58531009Y-82338095D02*
X58578628Y-82433333D01*
X58578628Y-82433333D02*
X58578628Y-82814285D01*
X59054819Y-81290476D02*
X59054819Y-81861904D01*
X59054819Y-81576190D02*
X58054819Y-81576190D01*
X58054819Y-81576190D02*
X58197676Y-81671428D01*
X58197676Y-81671428D02*
X58292914Y-81766666D01*
X58292914Y-81766666D02*
X58340533Y-81861904D01*
X58483390Y-80719047D02*
X58435771Y-80814285D01*
X58435771Y-80814285D02*
X58388152Y-80861904D01*
X58388152Y-80861904D02*
X58292914Y-80909523D01*
X58292914Y-80909523D02*
X58245295Y-80909523D01*
X58245295Y-80909523D02*
X58150057Y-80861904D01*
X58150057Y-80861904D02*
X58102438Y-80814285D01*
X58102438Y-80814285D02*
X58054819Y-80719047D01*
X58054819Y-80719047D02*
X58054819Y-80528571D01*
X58054819Y-80528571D02*
X58102438Y-80433333D01*
X58102438Y-80433333D02*
X58150057Y-80385714D01*
X58150057Y-80385714D02*
X58245295Y-80338095D01*
X58245295Y-80338095D02*
X58292914Y-80338095D01*
X58292914Y-80338095D02*
X58388152Y-80385714D01*
X58388152Y-80385714D02*
X58435771Y-80433333D01*
X58435771Y-80433333D02*
X58483390Y-80528571D01*
X58483390Y-80528571D02*
X58483390Y-80719047D01*
X58483390Y-80719047D02*
X58531009Y-80814285D01*
X58531009Y-80814285D02*
X58578628Y-80861904D01*
X58578628Y-80861904D02*
X58673866Y-80909523D01*
X58673866Y-80909523D02*
X58864342Y-80909523D01*
X58864342Y-80909523D02*
X58959580Y-80861904D01*
X58959580Y-80861904D02*
X59007200Y-80814285D01*
X59007200Y-80814285D02*
X59054819Y-80719047D01*
X59054819Y-80719047D02*
X59054819Y-80528571D01*
X59054819Y-80528571D02*
X59007200Y-80433333D01*
X59007200Y-80433333D02*
X58959580Y-80385714D01*
X58959580Y-80385714D02*
X58864342Y-80338095D01*
X58864342Y-80338095D02*
X58673866Y-80338095D01*
X58673866Y-80338095D02*
X58578628Y-80385714D01*
X58578628Y-80385714D02*
X58531009Y-80433333D01*
X58531009Y-80433333D02*
X58483390Y-80528571D01*
X65504761Y-47250057D02*
X65409523Y-47202438D01*
X65409523Y-47202438D02*
X65314285Y-47107200D01*
X65314285Y-47107200D02*
X65171428Y-46964342D01*
X65171428Y-46964342D02*
X65076190Y-46916723D01*
X65076190Y-46916723D02*
X64980952Y-46916723D01*
X65028571Y-47154819D02*
X64933333Y-47107200D01*
X64933333Y-47107200D02*
X64838095Y-47011961D01*
X64838095Y-47011961D02*
X64790476Y-46821485D01*
X64790476Y-46821485D02*
X64790476Y-46488152D01*
X64790476Y-46488152D02*
X64838095Y-46297676D01*
X64838095Y-46297676D02*
X64933333Y-46202438D01*
X64933333Y-46202438D02*
X65028571Y-46154819D01*
X65028571Y-46154819D02*
X65219047Y-46154819D01*
X65219047Y-46154819D02*
X65314285Y-46202438D01*
X65314285Y-46202438D02*
X65409523Y-46297676D01*
X65409523Y-46297676D02*
X65457142Y-46488152D01*
X65457142Y-46488152D02*
X65457142Y-46821485D01*
X65457142Y-46821485D02*
X65409523Y-47011961D01*
X65409523Y-47011961D02*
X65314285Y-47107200D01*
X65314285Y-47107200D02*
X65219047Y-47154819D01*
X65219047Y-47154819D02*
X65028571Y-47154819D01*
X66361904Y-46154819D02*
X65885714Y-46154819D01*
X65885714Y-46154819D02*
X65838095Y-46631009D01*
X65838095Y-46631009D02*
X65885714Y-46583390D01*
X65885714Y-46583390D02*
X65980952Y-46535771D01*
X65980952Y-46535771D02*
X66219047Y-46535771D01*
X66219047Y-46535771D02*
X66314285Y-46583390D01*
X66314285Y-46583390D02*
X66361904Y-46631009D01*
X66361904Y-46631009D02*
X66409523Y-46726247D01*
X66409523Y-46726247D02*
X66409523Y-46964342D01*
X66409523Y-46964342D02*
X66361904Y-47059580D01*
X66361904Y-47059580D02*
X66314285Y-47107200D01*
X66314285Y-47107200D02*
X66219047Y-47154819D01*
X66219047Y-47154819D02*
X65980952Y-47154819D01*
X65980952Y-47154819D02*
X65885714Y-47107200D01*
X65885714Y-47107200D02*
X65838095Y-47059580D01*
X70754819Y-69642857D02*
X70278628Y-69976190D01*
X70754819Y-70214285D02*
X69754819Y-70214285D01*
X69754819Y-70214285D02*
X69754819Y-69833333D01*
X69754819Y-69833333D02*
X69802438Y-69738095D01*
X69802438Y-69738095D02*
X69850057Y-69690476D01*
X69850057Y-69690476D02*
X69945295Y-69642857D01*
X69945295Y-69642857D02*
X70088152Y-69642857D01*
X70088152Y-69642857D02*
X70183390Y-69690476D01*
X70183390Y-69690476D02*
X70231009Y-69738095D01*
X70231009Y-69738095D02*
X70278628Y-69833333D01*
X70278628Y-69833333D02*
X70278628Y-70214285D01*
X69754819Y-69309523D02*
X69754819Y-68690476D01*
X69754819Y-68690476D02*
X70135771Y-69023809D01*
X70135771Y-69023809D02*
X70135771Y-68880952D01*
X70135771Y-68880952D02*
X70183390Y-68785714D01*
X70183390Y-68785714D02*
X70231009Y-68738095D01*
X70231009Y-68738095D02*
X70326247Y-68690476D01*
X70326247Y-68690476D02*
X70564342Y-68690476D01*
X70564342Y-68690476D02*
X70659580Y-68738095D01*
X70659580Y-68738095D02*
X70707200Y-68785714D01*
X70707200Y-68785714D02*
X70754819Y-68880952D01*
X70754819Y-68880952D02*
X70754819Y-69166666D01*
X70754819Y-69166666D02*
X70707200Y-69261904D01*
X70707200Y-69261904D02*
X70659580Y-69309523D01*
X69754819Y-68357142D02*
X69754819Y-67738095D01*
X69754819Y-67738095D02*
X70135771Y-68071428D01*
X70135771Y-68071428D02*
X70135771Y-67928571D01*
X70135771Y-67928571D02*
X70183390Y-67833333D01*
X70183390Y-67833333D02*
X70231009Y-67785714D01*
X70231009Y-67785714D02*
X70326247Y-67738095D01*
X70326247Y-67738095D02*
X70564342Y-67738095D01*
X70564342Y-67738095D02*
X70659580Y-67785714D01*
X70659580Y-67785714D02*
X70707200Y-67833333D01*
X70707200Y-67833333D02*
X70754819Y-67928571D01*
X70754819Y-67928571D02*
X70754819Y-68214285D01*
X70754819Y-68214285D02*
X70707200Y-68309523D01*
X70707200Y-68309523D02*
X70659580Y-68357142D01*
X67104761Y-85850057D02*
X67009523Y-85802438D01*
X67009523Y-85802438D02*
X66914285Y-85707200D01*
X66914285Y-85707200D02*
X66771428Y-85564342D01*
X66771428Y-85564342D02*
X66676190Y-85516723D01*
X66676190Y-85516723D02*
X66580952Y-85516723D01*
X66628571Y-85754819D02*
X66533333Y-85707200D01*
X66533333Y-85707200D02*
X66438095Y-85611961D01*
X66438095Y-85611961D02*
X66390476Y-85421485D01*
X66390476Y-85421485D02*
X66390476Y-85088152D01*
X66390476Y-85088152D02*
X66438095Y-84897676D01*
X66438095Y-84897676D02*
X66533333Y-84802438D01*
X66533333Y-84802438D02*
X66628571Y-84754819D01*
X66628571Y-84754819D02*
X66819047Y-84754819D01*
X66819047Y-84754819D02*
X66914285Y-84802438D01*
X66914285Y-84802438D02*
X67009523Y-84897676D01*
X67009523Y-84897676D02*
X67057142Y-85088152D01*
X67057142Y-85088152D02*
X67057142Y-85421485D01*
X67057142Y-85421485D02*
X67009523Y-85611961D01*
X67009523Y-85611961D02*
X66914285Y-85707200D01*
X66914285Y-85707200D02*
X66819047Y-85754819D01*
X66819047Y-85754819D02*
X66628571Y-85754819D01*
X68009523Y-85754819D02*
X67438095Y-85754819D01*
X67723809Y-85754819D02*
X67723809Y-84754819D01*
X67723809Y-84754819D02*
X67628571Y-84897676D01*
X67628571Y-84897676D02*
X67533333Y-84992914D01*
X67533333Y-84992914D02*
X67438095Y-85040533D01*
X65304761Y-40350057D02*
X65209523Y-40302438D01*
X65209523Y-40302438D02*
X65114285Y-40207200D01*
X65114285Y-40207200D02*
X64971428Y-40064342D01*
X64971428Y-40064342D02*
X64876190Y-40016723D01*
X64876190Y-40016723D02*
X64780952Y-40016723D01*
X64828571Y-40254819D02*
X64733333Y-40207200D01*
X64733333Y-40207200D02*
X64638095Y-40111961D01*
X64638095Y-40111961D02*
X64590476Y-39921485D01*
X64590476Y-39921485D02*
X64590476Y-39588152D01*
X64590476Y-39588152D02*
X64638095Y-39397676D01*
X64638095Y-39397676D02*
X64733333Y-39302438D01*
X64733333Y-39302438D02*
X64828571Y-39254819D01*
X64828571Y-39254819D02*
X65019047Y-39254819D01*
X65019047Y-39254819D02*
X65114285Y-39302438D01*
X65114285Y-39302438D02*
X65209523Y-39397676D01*
X65209523Y-39397676D02*
X65257142Y-39588152D01*
X65257142Y-39588152D02*
X65257142Y-39921485D01*
X65257142Y-39921485D02*
X65209523Y-40111961D01*
X65209523Y-40111961D02*
X65114285Y-40207200D01*
X65114285Y-40207200D02*
X65019047Y-40254819D01*
X65019047Y-40254819D02*
X64828571Y-40254819D01*
X66114285Y-39588152D02*
X66114285Y-40254819D01*
X65876190Y-39207200D02*
X65638095Y-39921485D01*
X65638095Y-39921485D02*
X66257142Y-39921485D01*
X83454819Y-66442857D02*
X82978628Y-66776190D01*
X83454819Y-67014285D02*
X82454819Y-67014285D01*
X82454819Y-67014285D02*
X82454819Y-66633333D01*
X82454819Y-66633333D02*
X82502438Y-66538095D01*
X82502438Y-66538095D02*
X82550057Y-66490476D01*
X82550057Y-66490476D02*
X82645295Y-66442857D01*
X82645295Y-66442857D02*
X82788152Y-66442857D01*
X82788152Y-66442857D02*
X82883390Y-66490476D01*
X82883390Y-66490476D02*
X82931009Y-66538095D01*
X82931009Y-66538095D02*
X82978628Y-66633333D01*
X82978628Y-66633333D02*
X82978628Y-67014285D01*
X82454819Y-65538095D02*
X82454819Y-66014285D01*
X82454819Y-66014285D02*
X82931009Y-66061904D01*
X82931009Y-66061904D02*
X82883390Y-66014285D01*
X82883390Y-66014285D02*
X82835771Y-65919047D01*
X82835771Y-65919047D02*
X82835771Y-65680952D01*
X82835771Y-65680952D02*
X82883390Y-65585714D01*
X82883390Y-65585714D02*
X82931009Y-65538095D01*
X82931009Y-65538095D02*
X83026247Y-65490476D01*
X83026247Y-65490476D02*
X83264342Y-65490476D01*
X83264342Y-65490476D02*
X83359580Y-65538095D01*
X83359580Y-65538095D02*
X83407200Y-65585714D01*
X83407200Y-65585714D02*
X83454819Y-65680952D01*
X83454819Y-65680952D02*
X83454819Y-65919047D01*
X83454819Y-65919047D02*
X83407200Y-66014285D01*
X83407200Y-66014285D02*
X83359580Y-66061904D01*
X82883390Y-64919047D02*
X82835771Y-65014285D01*
X82835771Y-65014285D02*
X82788152Y-65061904D01*
X82788152Y-65061904D02*
X82692914Y-65109523D01*
X82692914Y-65109523D02*
X82645295Y-65109523D01*
X82645295Y-65109523D02*
X82550057Y-65061904D01*
X82550057Y-65061904D02*
X82502438Y-65014285D01*
X82502438Y-65014285D02*
X82454819Y-64919047D01*
X82454819Y-64919047D02*
X82454819Y-64728571D01*
X82454819Y-64728571D02*
X82502438Y-64633333D01*
X82502438Y-64633333D02*
X82550057Y-64585714D01*
X82550057Y-64585714D02*
X82645295Y-64538095D01*
X82645295Y-64538095D02*
X82692914Y-64538095D01*
X82692914Y-64538095D02*
X82788152Y-64585714D01*
X82788152Y-64585714D02*
X82835771Y-64633333D01*
X82835771Y-64633333D02*
X82883390Y-64728571D01*
X82883390Y-64728571D02*
X82883390Y-64919047D01*
X82883390Y-64919047D02*
X82931009Y-65014285D01*
X82931009Y-65014285D02*
X82978628Y-65061904D01*
X82978628Y-65061904D02*
X83073866Y-65109523D01*
X83073866Y-65109523D02*
X83264342Y-65109523D01*
X83264342Y-65109523D02*
X83359580Y-65061904D01*
X83359580Y-65061904D02*
X83407200Y-65014285D01*
X83407200Y-65014285D02*
X83454819Y-64919047D01*
X83454819Y-64919047D02*
X83454819Y-64728571D01*
X83454819Y-64728571D02*
X83407200Y-64633333D01*
X83407200Y-64633333D02*
X83359580Y-64585714D01*
X83359580Y-64585714D02*
X83264342Y-64538095D01*
X83264342Y-64538095D02*
X83073866Y-64538095D01*
X83073866Y-64538095D02*
X82978628Y-64585714D01*
X82978628Y-64585714D02*
X82931009Y-64633333D01*
X82931009Y-64633333D02*
X82883390Y-64728571D01*
X95734819Y-71042857D02*
X95258628Y-71376190D01*
X95734819Y-71614285D02*
X94734819Y-71614285D01*
X94734819Y-71614285D02*
X94734819Y-71233333D01*
X94734819Y-71233333D02*
X94782438Y-71138095D01*
X94782438Y-71138095D02*
X94830057Y-71090476D01*
X94830057Y-71090476D02*
X94925295Y-71042857D01*
X94925295Y-71042857D02*
X95068152Y-71042857D01*
X95068152Y-71042857D02*
X95163390Y-71090476D01*
X95163390Y-71090476D02*
X95211009Y-71138095D01*
X95211009Y-71138095D02*
X95258628Y-71233333D01*
X95258628Y-71233333D02*
X95258628Y-71614285D01*
X94734819Y-70138095D02*
X94734819Y-70614285D01*
X94734819Y-70614285D02*
X95211009Y-70661904D01*
X95211009Y-70661904D02*
X95163390Y-70614285D01*
X95163390Y-70614285D02*
X95115771Y-70519047D01*
X95115771Y-70519047D02*
X95115771Y-70280952D01*
X95115771Y-70280952D02*
X95163390Y-70185714D01*
X95163390Y-70185714D02*
X95211009Y-70138095D01*
X95211009Y-70138095D02*
X95306247Y-70090476D01*
X95306247Y-70090476D02*
X95544342Y-70090476D01*
X95544342Y-70090476D02*
X95639580Y-70138095D01*
X95639580Y-70138095D02*
X95687200Y-70185714D01*
X95687200Y-70185714D02*
X95734819Y-70280952D01*
X95734819Y-70280952D02*
X95734819Y-70519047D01*
X95734819Y-70519047D02*
X95687200Y-70614285D01*
X95687200Y-70614285D02*
X95639580Y-70661904D01*
X94734819Y-69185714D02*
X94734819Y-69661904D01*
X94734819Y-69661904D02*
X95211009Y-69709523D01*
X95211009Y-69709523D02*
X95163390Y-69661904D01*
X95163390Y-69661904D02*
X95115771Y-69566666D01*
X95115771Y-69566666D02*
X95115771Y-69328571D01*
X95115771Y-69328571D02*
X95163390Y-69233333D01*
X95163390Y-69233333D02*
X95211009Y-69185714D01*
X95211009Y-69185714D02*
X95306247Y-69138095D01*
X95306247Y-69138095D02*
X95544342Y-69138095D01*
X95544342Y-69138095D02*
X95639580Y-69185714D01*
X95639580Y-69185714D02*
X95687200Y-69233333D01*
X95687200Y-69233333D02*
X95734819Y-69328571D01*
X95734819Y-69328571D02*
X95734819Y-69566666D01*
X95734819Y-69566666D02*
X95687200Y-69661904D01*
X95687200Y-69661904D02*
X95639580Y-69709523D01*
X56573488Y-89558331D02*
X56573488Y-88558331D01*
X56573488Y-89034521D02*
X57144916Y-89034521D01*
X57144916Y-89558331D02*
X57144916Y-88558331D01*
X57525869Y-88558331D02*
X58144916Y-88558331D01*
X58144916Y-88558331D02*
X57811583Y-88939283D01*
X57811583Y-88939283D02*
X57954440Y-88939283D01*
X57954440Y-88939283D02*
X58049678Y-88986902D01*
X58049678Y-88986902D02*
X58097297Y-89034521D01*
X58097297Y-89034521D02*
X58144916Y-89129759D01*
X58144916Y-89129759D02*
X58144916Y-89367854D01*
X58144916Y-89367854D02*
X58097297Y-89463092D01*
X58097297Y-89463092D02*
X58049678Y-89510712D01*
X58049678Y-89510712D02*
X57954440Y-89558331D01*
X57954440Y-89558331D02*
X57668726Y-89558331D01*
X57668726Y-89558331D02*
X57573488Y-89510712D01*
X57573488Y-89510712D02*
X57525869Y-89463092D01*
X99033333Y-71659580D02*
X98985714Y-71707200D01*
X98985714Y-71707200D02*
X98842857Y-71754819D01*
X98842857Y-71754819D02*
X98747619Y-71754819D01*
X98747619Y-71754819D02*
X98604762Y-71707200D01*
X98604762Y-71707200D02*
X98509524Y-71611961D01*
X98509524Y-71611961D02*
X98461905Y-71516723D01*
X98461905Y-71516723D02*
X98414286Y-71326247D01*
X98414286Y-71326247D02*
X98414286Y-71183390D01*
X98414286Y-71183390D02*
X98461905Y-70992914D01*
X98461905Y-70992914D02*
X98509524Y-70897676D01*
X98509524Y-70897676D02*
X98604762Y-70802438D01*
X98604762Y-70802438D02*
X98747619Y-70754819D01*
X98747619Y-70754819D02*
X98842857Y-70754819D01*
X98842857Y-70754819D02*
X98985714Y-70802438D01*
X98985714Y-70802438D02*
X99033333Y-70850057D01*
X99985714Y-71754819D02*
X99414286Y-71754819D01*
X99700000Y-71754819D02*
X99700000Y-70754819D01*
X99700000Y-70754819D02*
X99604762Y-70897676D01*
X99604762Y-70897676D02*
X99509524Y-70992914D01*
X99509524Y-70992914D02*
X99414286Y-71040533D01*
X77554819Y-69642857D02*
X77078628Y-69976190D01*
X77554819Y-70214285D02*
X76554819Y-70214285D01*
X76554819Y-70214285D02*
X76554819Y-69833333D01*
X76554819Y-69833333D02*
X76602438Y-69738095D01*
X76602438Y-69738095D02*
X76650057Y-69690476D01*
X76650057Y-69690476D02*
X76745295Y-69642857D01*
X76745295Y-69642857D02*
X76888152Y-69642857D01*
X76888152Y-69642857D02*
X76983390Y-69690476D01*
X76983390Y-69690476D02*
X77031009Y-69738095D01*
X77031009Y-69738095D02*
X77078628Y-69833333D01*
X77078628Y-69833333D02*
X77078628Y-70214285D01*
X76888152Y-68785714D02*
X77554819Y-68785714D01*
X76507200Y-69023809D02*
X77221485Y-69261904D01*
X77221485Y-69261904D02*
X77221485Y-68642857D01*
X76554819Y-67785714D02*
X76554819Y-68261904D01*
X76554819Y-68261904D02*
X77031009Y-68309523D01*
X77031009Y-68309523D02*
X76983390Y-68261904D01*
X76983390Y-68261904D02*
X76935771Y-68166666D01*
X76935771Y-68166666D02*
X76935771Y-67928571D01*
X76935771Y-67928571D02*
X76983390Y-67833333D01*
X76983390Y-67833333D02*
X77031009Y-67785714D01*
X77031009Y-67785714D02*
X77126247Y-67738095D01*
X77126247Y-67738095D02*
X77364342Y-67738095D01*
X77364342Y-67738095D02*
X77459580Y-67785714D01*
X77459580Y-67785714D02*
X77507200Y-67833333D01*
X77507200Y-67833333D02*
X77554819Y-67928571D01*
X77554819Y-67928571D02*
X77554819Y-68166666D01*
X77554819Y-68166666D02*
X77507200Y-68261904D01*
X77507200Y-68261904D02*
X77459580Y-68309523D01*
X65954819Y-80866666D02*
X65478628Y-81199999D01*
X65954819Y-81438094D02*
X64954819Y-81438094D01*
X64954819Y-81438094D02*
X64954819Y-81057142D01*
X64954819Y-81057142D02*
X65002438Y-80961904D01*
X65002438Y-80961904D02*
X65050057Y-80914285D01*
X65050057Y-80914285D02*
X65145295Y-80866666D01*
X65145295Y-80866666D02*
X65288152Y-80866666D01*
X65288152Y-80866666D02*
X65383390Y-80914285D01*
X65383390Y-80914285D02*
X65431009Y-80961904D01*
X65431009Y-80961904D02*
X65478628Y-81057142D01*
X65478628Y-81057142D02*
X65478628Y-81438094D01*
X65383390Y-80295237D02*
X65335771Y-80390475D01*
X65335771Y-80390475D02*
X65288152Y-80438094D01*
X65288152Y-80438094D02*
X65192914Y-80485713D01*
X65192914Y-80485713D02*
X65145295Y-80485713D01*
X65145295Y-80485713D02*
X65050057Y-80438094D01*
X65050057Y-80438094D02*
X65002438Y-80390475D01*
X65002438Y-80390475D02*
X64954819Y-80295237D01*
X64954819Y-80295237D02*
X64954819Y-80104761D01*
X64954819Y-80104761D02*
X65002438Y-80009523D01*
X65002438Y-80009523D02*
X65050057Y-79961904D01*
X65050057Y-79961904D02*
X65145295Y-79914285D01*
X65145295Y-79914285D02*
X65192914Y-79914285D01*
X65192914Y-79914285D02*
X65288152Y-79961904D01*
X65288152Y-79961904D02*
X65335771Y-80009523D01*
X65335771Y-80009523D02*
X65383390Y-80104761D01*
X65383390Y-80104761D02*
X65383390Y-80295237D01*
X65383390Y-80295237D02*
X65431009Y-80390475D01*
X65431009Y-80390475D02*
X65478628Y-80438094D01*
X65478628Y-80438094D02*
X65573866Y-80485713D01*
X65573866Y-80485713D02*
X65764342Y-80485713D01*
X65764342Y-80485713D02*
X65859580Y-80438094D01*
X65859580Y-80438094D02*
X65907200Y-80390475D01*
X65907200Y-80390475D02*
X65954819Y-80295237D01*
X65954819Y-80295237D02*
X65954819Y-80104761D01*
X65954819Y-80104761D02*
X65907200Y-80009523D01*
X65907200Y-80009523D02*
X65859580Y-79961904D01*
X65859580Y-79961904D02*
X65764342Y-79914285D01*
X65764342Y-79914285D02*
X65573866Y-79914285D01*
X65573866Y-79914285D02*
X65478628Y-79961904D01*
X65478628Y-79961904D02*
X65431009Y-80009523D01*
X65431009Y-80009523D02*
X65383390Y-80104761D01*
X111957142Y-85154819D02*
X111623809Y-84678628D01*
X111385714Y-85154819D02*
X111385714Y-84154819D01*
X111385714Y-84154819D02*
X111766666Y-84154819D01*
X111766666Y-84154819D02*
X111861904Y-84202438D01*
X111861904Y-84202438D02*
X111909523Y-84250057D01*
X111909523Y-84250057D02*
X111957142Y-84345295D01*
X111957142Y-84345295D02*
X111957142Y-84488152D01*
X111957142Y-84488152D02*
X111909523Y-84583390D01*
X111909523Y-84583390D02*
X111861904Y-84631009D01*
X111861904Y-84631009D02*
X111766666Y-84678628D01*
X111766666Y-84678628D02*
X111385714Y-84678628D01*
X112814285Y-84154819D02*
X112623809Y-84154819D01*
X112623809Y-84154819D02*
X112528571Y-84202438D01*
X112528571Y-84202438D02*
X112480952Y-84250057D01*
X112480952Y-84250057D02*
X112385714Y-84392914D01*
X112385714Y-84392914D02*
X112338095Y-84583390D01*
X112338095Y-84583390D02*
X112338095Y-84964342D01*
X112338095Y-84964342D02*
X112385714Y-85059580D01*
X112385714Y-85059580D02*
X112433333Y-85107200D01*
X112433333Y-85107200D02*
X112528571Y-85154819D01*
X112528571Y-85154819D02*
X112719047Y-85154819D01*
X112719047Y-85154819D02*
X112814285Y-85107200D01*
X112814285Y-85107200D02*
X112861904Y-85059580D01*
X112861904Y-85059580D02*
X112909523Y-84964342D01*
X112909523Y-84964342D02*
X112909523Y-84726247D01*
X112909523Y-84726247D02*
X112861904Y-84631009D01*
X112861904Y-84631009D02*
X112814285Y-84583390D01*
X112814285Y-84583390D02*
X112719047Y-84535771D01*
X112719047Y-84535771D02*
X112528571Y-84535771D01*
X112528571Y-84535771D02*
X112433333Y-84583390D01*
X112433333Y-84583390D02*
X112385714Y-84631009D01*
X112385714Y-84631009D02*
X112338095Y-84726247D01*
X113528571Y-84154819D02*
X113623809Y-84154819D01*
X113623809Y-84154819D02*
X113719047Y-84202438D01*
X113719047Y-84202438D02*
X113766666Y-84250057D01*
X113766666Y-84250057D02*
X113814285Y-84345295D01*
X113814285Y-84345295D02*
X113861904Y-84535771D01*
X113861904Y-84535771D02*
X113861904Y-84773866D01*
X113861904Y-84773866D02*
X113814285Y-84964342D01*
X113814285Y-84964342D02*
X113766666Y-85059580D01*
X113766666Y-85059580D02*
X113719047Y-85107200D01*
X113719047Y-85107200D02*
X113623809Y-85154819D01*
X113623809Y-85154819D02*
X113528571Y-85154819D01*
X113528571Y-85154819D02*
X113433333Y-85107200D01*
X113433333Y-85107200D02*
X113385714Y-85059580D01*
X113385714Y-85059580D02*
X113338095Y-84964342D01*
X113338095Y-84964342D02*
X113290476Y-84773866D01*
X113290476Y-84773866D02*
X113290476Y-84535771D01*
X113290476Y-84535771D02*
X113338095Y-84345295D01*
X113338095Y-84345295D02*
X113385714Y-84250057D01*
X113385714Y-84250057D02*
X113433333Y-84202438D01*
X113433333Y-84202438D02*
X113528571Y-84154819D01*
X88728571Y-85850057D02*
X88633333Y-85802438D01*
X88633333Y-85802438D02*
X88538095Y-85707200D01*
X88538095Y-85707200D02*
X88395238Y-85564342D01*
X88395238Y-85564342D02*
X88300000Y-85516723D01*
X88300000Y-85516723D02*
X88204762Y-85516723D01*
X88252381Y-85754819D02*
X88157143Y-85707200D01*
X88157143Y-85707200D02*
X88061905Y-85611961D01*
X88061905Y-85611961D02*
X88014286Y-85421485D01*
X88014286Y-85421485D02*
X88014286Y-85088152D01*
X88014286Y-85088152D02*
X88061905Y-84897676D01*
X88061905Y-84897676D02*
X88157143Y-84802438D01*
X88157143Y-84802438D02*
X88252381Y-84754819D01*
X88252381Y-84754819D02*
X88442857Y-84754819D01*
X88442857Y-84754819D02*
X88538095Y-84802438D01*
X88538095Y-84802438D02*
X88633333Y-84897676D01*
X88633333Y-84897676D02*
X88680952Y-85088152D01*
X88680952Y-85088152D02*
X88680952Y-85421485D01*
X88680952Y-85421485D02*
X88633333Y-85611961D01*
X88633333Y-85611961D02*
X88538095Y-85707200D01*
X88538095Y-85707200D02*
X88442857Y-85754819D01*
X88442857Y-85754819D02*
X88252381Y-85754819D01*
X89633333Y-85754819D02*
X89061905Y-85754819D01*
X89347619Y-85754819D02*
X89347619Y-84754819D01*
X89347619Y-84754819D02*
X89252381Y-84897676D01*
X89252381Y-84897676D02*
X89157143Y-84992914D01*
X89157143Y-84992914D02*
X89061905Y-85040533D01*
X90204762Y-85183390D02*
X90109524Y-85135771D01*
X90109524Y-85135771D02*
X90061905Y-85088152D01*
X90061905Y-85088152D02*
X90014286Y-84992914D01*
X90014286Y-84992914D02*
X90014286Y-84945295D01*
X90014286Y-84945295D02*
X90061905Y-84850057D01*
X90061905Y-84850057D02*
X90109524Y-84802438D01*
X90109524Y-84802438D02*
X90204762Y-84754819D01*
X90204762Y-84754819D02*
X90395238Y-84754819D01*
X90395238Y-84754819D02*
X90490476Y-84802438D01*
X90490476Y-84802438D02*
X90538095Y-84850057D01*
X90538095Y-84850057D02*
X90585714Y-84945295D01*
X90585714Y-84945295D02*
X90585714Y-84992914D01*
X90585714Y-84992914D02*
X90538095Y-85088152D01*
X90538095Y-85088152D02*
X90490476Y-85135771D01*
X90490476Y-85135771D02*
X90395238Y-85183390D01*
X90395238Y-85183390D02*
X90204762Y-85183390D01*
X90204762Y-85183390D02*
X90109524Y-85231009D01*
X90109524Y-85231009D02*
X90061905Y-85278628D01*
X90061905Y-85278628D02*
X90014286Y-85373866D01*
X90014286Y-85373866D02*
X90014286Y-85564342D01*
X90014286Y-85564342D02*
X90061905Y-85659580D01*
X90061905Y-85659580D02*
X90109524Y-85707200D01*
X90109524Y-85707200D02*
X90204762Y-85754819D01*
X90204762Y-85754819D02*
X90395238Y-85754819D01*
X90395238Y-85754819D02*
X90490476Y-85707200D01*
X90490476Y-85707200D02*
X90538095Y-85659580D01*
X90538095Y-85659580D02*
X90585714Y-85564342D01*
X90585714Y-85564342D02*
X90585714Y-85373866D01*
X90585714Y-85373866D02*
X90538095Y-85278628D01*
X90538095Y-85278628D02*
X90490476Y-85231009D01*
X90490476Y-85231009D02*
X90395238Y-85183390D01*
X89957142Y-78574819D02*
X89623809Y-78098628D01*
X89385714Y-78574819D02*
X89385714Y-77574819D01*
X89385714Y-77574819D02*
X89766666Y-77574819D01*
X89766666Y-77574819D02*
X89861904Y-77622438D01*
X89861904Y-77622438D02*
X89909523Y-77670057D01*
X89909523Y-77670057D02*
X89957142Y-77765295D01*
X89957142Y-77765295D02*
X89957142Y-77908152D01*
X89957142Y-77908152D02*
X89909523Y-78003390D01*
X89909523Y-78003390D02*
X89861904Y-78051009D01*
X89861904Y-78051009D02*
X89766666Y-78098628D01*
X89766666Y-78098628D02*
X89385714Y-78098628D01*
X90861904Y-77574819D02*
X90385714Y-77574819D01*
X90385714Y-77574819D02*
X90338095Y-78051009D01*
X90338095Y-78051009D02*
X90385714Y-78003390D01*
X90385714Y-78003390D02*
X90480952Y-77955771D01*
X90480952Y-77955771D02*
X90719047Y-77955771D01*
X90719047Y-77955771D02*
X90814285Y-78003390D01*
X90814285Y-78003390D02*
X90861904Y-78051009D01*
X90861904Y-78051009D02*
X90909523Y-78146247D01*
X90909523Y-78146247D02*
X90909523Y-78384342D01*
X90909523Y-78384342D02*
X90861904Y-78479580D01*
X90861904Y-78479580D02*
X90814285Y-78527200D01*
X90814285Y-78527200D02*
X90719047Y-78574819D01*
X90719047Y-78574819D02*
X90480952Y-78574819D01*
X90480952Y-78574819D02*
X90385714Y-78527200D01*
X90385714Y-78527200D02*
X90338095Y-78479580D01*
X91766666Y-77574819D02*
X91576190Y-77574819D01*
X91576190Y-77574819D02*
X91480952Y-77622438D01*
X91480952Y-77622438D02*
X91433333Y-77670057D01*
X91433333Y-77670057D02*
X91338095Y-77812914D01*
X91338095Y-77812914D02*
X91290476Y-78003390D01*
X91290476Y-78003390D02*
X91290476Y-78384342D01*
X91290476Y-78384342D02*
X91338095Y-78479580D01*
X91338095Y-78479580D02*
X91385714Y-78527200D01*
X91385714Y-78527200D02*
X91480952Y-78574819D01*
X91480952Y-78574819D02*
X91671428Y-78574819D01*
X91671428Y-78574819D02*
X91766666Y-78527200D01*
X91766666Y-78527200D02*
X91814285Y-78479580D01*
X91814285Y-78479580D02*
X91861904Y-78384342D01*
X91861904Y-78384342D02*
X91861904Y-78146247D01*
X91861904Y-78146247D02*
X91814285Y-78051009D01*
X91814285Y-78051009D02*
X91766666Y-78003390D01*
X91766666Y-78003390D02*
X91671428Y-77955771D01*
X91671428Y-77955771D02*
X91480952Y-77955771D01*
X91480952Y-77955771D02*
X91385714Y-78003390D01*
X91385714Y-78003390D02*
X91338095Y-78051009D01*
X91338095Y-78051009D02*
X91290476Y-78146247D01*
X80054819Y-57342857D02*
X79578628Y-57676190D01*
X80054819Y-57914285D02*
X79054819Y-57914285D01*
X79054819Y-57914285D02*
X79054819Y-57533333D01*
X79054819Y-57533333D02*
X79102438Y-57438095D01*
X79102438Y-57438095D02*
X79150057Y-57390476D01*
X79150057Y-57390476D02*
X79245295Y-57342857D01*
X79245295Y-57342857D02*
X79388152Y-57342857D01*
X79388152Y-57342857D02*
X79483390Y-57390476D01*
X79483390Y-57390476D02*
X79531009Y-57438095D01*
X79531009Y-57438095D02*
X79578628Y-57533333D01*
X79578628Y-57533333D02*
X79578628Y-57914285D01*
X79150057Y-56961904D02*
X79102438Y-56914285D01*
X79102438Y-56914285D02*
X79054819Y-56819047D01*
X79054819Y-56819047D02*
X79054819Y-56580952D01*
X79054819Y-56580952D02*
X79102438Y-56485714D01*
X79102438Y-56485714D02*
X79150057Y-56438095D01*
X79150057Y-56438095D02*
X79245295Y-56390476D01*
X79245295Y-56390476D02*
X79340533Y-56390476D01*
X79340533Y-56390476D02*
X79483390Y-56438095D01*
X79483390Y-56438095D02*
X80054819Y-57009523D01*
X80054819Y-57009523D02*
X80054819Y-56390476D01*
X79054819Y-55485714D02*
X79054819Y-55961904D01*
X79054819Y-55961904D02*
X79531009Y-56009523D01*
X79531009Y-56009523D02*
X79483390Y-55961904D01*
X79483390Y-55961904D02*
X79435771Y-55866666D01*
X79435771Y-55866666D02*
X79435771Y-55628571D01*
X79435771Y-55628571D02*
X79483390Y-55533333D01*
X79483390Y-55533333D02*
X79531009Y-55485714D01*
X79531009Y-55485714D02*
X79626247Y-55438095D01*
X79626247Y-55438095D02*
X79864342Y-55438095D01*
X79864342Y-55438095D02*
X79959580Y-55485714D01*
X79959580Y-55485714D02*
X80007200Y-55533333D01*
X80007200Y-55533333D02*
X80054819Y-55628571D01*
X80054819Y-55628571D02*
X80054819Y-55866666D01*
X80054819Y-55866666D02*
X80007200Y-55961904D01*
X80007200Y-55961904D02*
X79959580Y-56009523D01*
X71254819Y-58206666D02*
X70778628Y-58539999D01*
X71254819Y-58778094D02*
X70254819Y-58778094D01*
X70254819Y-58778094D02*
X70254819Y-58397142D01*
X70254819Y-58397142D02*
X70302438Y-58301904D01*
X70302438Y-58301904D02*
X70350057Y-58254285D01*
X70350057Y-58254285D02*
X70445295Y-58206666D01*
X70445295Y-58206666D02*
X70588152Y-58206666D01*
X70588152Y-58206666D02*
X70683390Y-58254285D01*
X70683390Y-58254285D02*
X70731009Y-58301904D01*
X70731009Y-58301904D02*
X70778628Y-58397142D01*
X70778628Y-58397142D02*
X70778628Y-58778094D01*
X71254819Y-57254285D02*
X71254819Y-57825713D01*
X71254819Y-57539999D02*
X70254819Y-57539999D01*
X70254819Y-57539999D02*
X70397676Y-57635237D01*
X70397676Y-57635237D02*
X70492914Y-57730475D01*
X70492914Y-57730475D02*
X70540533Y-57825713D01*
D11*
X74640000Y-36525000D02*
X74640000Y-37270000D01*
X74640000Y-42945000D02*
X74640000Y-42200000D01*
X77400000Y-36525000D02*
X74640000Y-36525000D01*
X77400000Y-36525000D02*
X80160000Y-36525000D01*
X77400000Y-42945000D02*
X74640000Y-42945000D01*
X77400000Y-42945000D02*
X80160000Y-42945000D01*
X80160000Y-36525000D02*
X80160000Y-37270000D01*
X80160000Y-42945000D02*
X80160000Y-42200000D01*
X73850000Y-37270000D02*
X73610000Y-36940000D01*
X74090000Y-36940000D01*
X73850000Y-37270000D01*
G36*
X73850000Y-37270000D02*
G01*
X73610000Y-36940000D01*
X74090000Y-36940000D01*
X73850000Y-37270000D01*
G37*
X64632855Y-71810436D02*
X64632855Y-73264564D01*
X66452855Y-71810436D02*
X66452855Y-73264564D01*
X97840000Y-36485000D02*
X97840000Y-37230000D01*
X97840000Y-42905000D02*
X97840000Y-42160000D01*
X100600000Y-36485000D02*
X97840000Y-36485000D01*
X100600000Y-36485000D02*
X103360000Y-36485000D01*
X100600000Y-42905000D02*
X97840000Y-42905000D01*
X100600000Y-42905000D02*
X103360000Y-42905000D01*
X103360000Y-36485000D02*
X103360000Y-37230000D01*
X103360000Y-42905000D02*
X103360000Y-42160000D01*
X97050000Y-37230000D02*
X96810000Y-36900000D01*
X97290000Y-36900000D01*
X97050000Y-37230000D01*
G36*
X97050000Y-37230000D02*
G01*
X96810000Y-36900000D01*
X97290000Y-36900000D01*
X97050000Y-37230000D01*
G37*
X104850000Y-109550000D02*
X104850000Y-106550000D01*
X105300000Y-109050000D02*
X105300000Y-98000000D01*
X107850000Y-109550000D02*
X104850000Y-109550000D01*
X111150000Y-98000000D02*
X105300000Y-98000000D01*
X111150000Y-100650000D02*
X111150000Y-98000000D01*
X111150000Y-101550000D02*
X111150000Y-100950000D01*
X111150000Y-105300000D02*
X111150000Y-101800000D01*
X111150000Y-106150000D02*
X111150000Y-105550000D01*
X111150000Y-109050000D02*
X105300000Y-109050000D01*
X111150000Y-109050000D02*
X111150000Y-106400000D01*
X66947140Y-71810436D02*
X66947140Y-73264564D01*
X68767140Y-71810436D02*
X68767140Y-73264564D01*
X74640000Y-43395000D02*
X74640000Y-44140000D01*
X74640000Y-49815000D02*
X74640000Y-49070000D01*
X77400000Y-43395000D02*
X74640000Y-43395000D01*
X77400000Y-43395000D02*
X80160000Y-43395000D01*
X77400000Y-49815000D02*
X74640000Y-49815000D01*
X77400000Y-49815000D02*
X80160000Y-49815000D01*
X80160000Y-43395000D02*
X80160000Y-44140000D01*
X80160000Y-49815000D02*
X80160000Y-49070000D01*
X73850000Y-44140000D02*
X73610000Y-43810000D01*
X74090000Y-43810000D01*
X73850000Y-44140000D01*
G36*
X73850000Y-44140000D02*
G01*
X73610000Y-43810000D01*
X74090000Y-43810000D01*
X73850000Y-44140000D01*
G37*
X76162720Y-77135436D02*
X76162720Y-78589564D01*
X77982720Y-77135436D02*
X77982720Y-78589564D01*
X78471810Y-77135436D02*
X78471810Y-78589564D01*
X80291810Y-77135436D02*
X80291810Y-78589564D01*
X85990000Y-65572936D02*
X85990000Y-67027064D01*
X87810000Y-65572936D02*
X87810000Y-67027064D01*
X59999090Y-77135436D02*
X59999090Y-78589564D01*
X61819090Y-77135436D02*
X61819090Y-78589564D01*
X60050000Y-54272936D02*
X60050000Y-55727064D01*
X61870000Y-54272936D02*
X61870000Y-55727064D01*
X94890000Y-54100000D02*
X94890000Y-59910000D01*
X94890000Y-59910000D02*
X98110000Y-59910000D01*
X98110000Y-59910000D02*
X98110000Y-54100000D01*
X109625000Y-54700000D02*
X112425000Y-54700000D01*
X109625000Y-56700000D02*
X109625000Y-54700000D01*
X112425000Y-54700000D02*
X112425000Y-56700000D01*
X112425000Y-56700000D02*
X109625000Y-56700000D01*
X69235450Y-77135436D02*
X69235450Y-78589564D01*
X71055450Y-77135436D02*
X71055450Y-78589564D01*
X62318570Y-71810436D02*
X62318570Y-73264564D01*
X64138570Y-71810436D02*
X64138570Y-73264564D01*
X54105000Y-58705000D02*
X55375000Y-58705000D01*
X54105000Y-59975000D02*
X54105000Y-58705000D01*
X56417929Y-62135000D02*
X56815000Y-62135000D01*
X56417929Y-62895000D02*
X56815000Y-62895000D01*
X56417929Y-64675000D02*
X56815000Y-64675000D01*
X56417929Y-65435000D02*
X56815000Y-65435000D01*
X56417929Y-67215000D02*
X56815000Y-67215000D01*
X56417929Y-67975000D02*
X56815000Y-67975000D01*
X56417929Y-69755000D02*
X56815000Y-69755000D01*
X56417929Y-70515000D02*
X56815000Y-70515000D01*
X56417929Y-72295000D02*
X56815000Y-72295000D01*
X56417929Y-73055000D02*
X56815000Y-73055000D01*
X56485000Y-59595000D02*
X56815000Y-59595000D01*
X56485000Y-60355000D02*
X56815000Y-60355000D01*
X56815000Y-58645000D02*
X56815000Y-74005000D01*
X56815000Y-61245000D02*
X59475000Y-61245000D01*
X56815000Y-63785000D02*
X59475000Y-63785000D01*
X56815000Y-66325000D02*
X59475000Y-66325000D01*
X56815000Y-68865000D02*
X59475000Y-68865000D01*
X56815000Y-71405000D02*
X59475000Y-71405000D01*
X56815000Y-74005000D02*
X59475000Y-74005000D01*
X59475000Y-58645000D02*
X56815000Y-58645000D01*
X59475000Y-59595000D02*
X65475000Y-59595000D01*
X59475000Y-59655000D02*
X65475000Y-59655000D01*
X59475000Y-59775000D02*
X65475000Y-59775000D01*
X59475000Y-59895000D02*
X65475000Y-59895000D01*
X59475000Y-60015000D02*
X65475000Y-60015000D01*
X59475000Y-60135000D02*
X65475000Y-60135000D01*
X59475000Y-60255000D02*
X65475000Y-60255000D01*
X59475000Y-62135000D02*
X65475000Y-62135000D01*
X59475000Y-64675000D02*
X65475000Y-64675000D01*
X59475000Y-67215000D02*
X65475000Y-67215000D01*
X59475000Y-69755000D02*
X65475000Y-69755000D01*
X59475000Y-72295000D02*
X65475000Y-72295000D01*
X59475000Y-74005000D02*
X59475000Y-58645000D01*
X65475000Y-59595000D02*
X65475000Y-60355000D01*
X65475000Y-60355000D02*
X59475000Y-60355000D01*
X65475000Y-62135000D02*
X65475000Y-62895000D01*
X65475000Y-62895000D02*
X59475000Y-62895000D01*
X65475000Y-64675000D02*
X65475000Y-65435000D01*
X65475000Y-65435000D02*
X59475000Y-65435000D01*
X65475000Y-67215000D02*
X65475000Y-67975000D01*
X65475000Y-67975000D02*
X59475000Y-67975000D01*
X65475000Y-69755000D02*
X65475000Y-70515000D01*
X65475000Y-70515000D02*
X59475000Y-70515000D01*
X65475000Y-72295000D02*
X65475000Y-73055000D01*
X65475000Y-73055000D02*
X59475000Y-73055000D01*
X86440000Y-88995000D02*
X86440000Y-89740000D01*
X86440000Y-95415000D02*
X86440000Y-94670000D01*
X89200000Y-88995000D02*
X86440000Y-88995000D01*
X89200000Y-88995000D02*
X91960000Y-88995000D01*
X89200000Y-95415000D02*
X86440000Y-95415000D01*
X89200000Y-95415000D02*
X91960000Y-95415000D01*
X91960000Y-88995000D02*
X91960000Y-89740000D01*
X91960000Y-95415000D02*
X91960000Y-94670000D01*
X85650000Y-89740000D02*
X85410000Y-89410000D01*
X85890000Y-89410000D01*
X85650000Y-89740000D01*
G36*
X85650000Y-89740000D02*
G01*
X85410000Y-89410000D01*
X85890000Y-89410000D01*
X85650000Y-89740000D01*
G37*
X66926360Y-77135436D02*
X66926360Y-78589564D01*
X68746360Y-77135436D02*
X68746360Y-78589564D01*
X80780900Y-77135436D02*
X80780900Y-78589564D01*
X82600900Y-77135436D02*
X82600900Y-78589564D01*
X74440000Y-20240000D02*
X74440000Y-29660000D01*
X74440000Y-29660000D02*
X76100000Y-29660000D01*
X79910000Y-29660000D02*
X78200000Y-29660000D01*
X83720000Y-29660000D02*
X82010000Y-29660000D01*
X87530000Y-29660000D02*
X85820000Y-29660000D01*
X91340000Y-29660000D02*
X89630000Y-29660000D01*
X92090000Y-30950000D02*
X92390000Y-30350000D01*
X92390000Y-30350000D02*
X92690000Y-30950000D01*
X92690000Y-30950000D02*
X92090000Y-30950000D01*
X95100000Y-20240000D02*
X74440000Y-20240000D01*
X95100000Y-23550000D02*
X74440000Y-23550000D01*
X95100000Y-29660000D02*
X93440000Y-29660000D01*
X95100000Y-29660000D02*
X95100000Y-20240000D01*
X76290000Y-55627064D02*
X76290000Y-54172936D01*
X78110000Y-55627064D02*
X78110000Y-54172936D01*
X109855000Y-58705000D02*
X111125000Y-58705000D01*
X109855000Y-59975000D02*
X109855000Y-58705000D01*
X112167929Y-62135000D02*
X112565000Y-62135000D01*
X112167929Y-62895000D02*
X112565000Y-62895000D01*
X112167929Y-64675000D02*
X112565000Y-64675000D01*
X112167929Y-65435000D02*
X112565000Y-65435000D01*
X112167929Y-67215000D02*
X112565000Y-67215000D01*
X112167929Y-67975000D02*
X112565000Y-67975000D01*
X112167929Y-69755000D02*
X112565000Y-69755000D01*
X112167929Y-70515000D02*
X112565000Y-70515000D01*
X112167929Y-72295000D02*
X112565000Y-72295000D01*
X112167929Y-73055000D02*
X112565000Y-73055000D01*
X112235000Y-59595000D02*
X112565000Y-59595000D01*
X112235000Y-60355000D02*
X112565000Y-60355000D01*
X112565000Y-58645000D02*
X112565000Y-74005000D01*
X112565000Y-61245000D02*
X115225000Y-61245000D01*
X112565000Y-63785000D02*
X115225000Y-63785000D01*
X112565000Y-66325000D02*
X115225000Y-66325000D01*
X112565000Y-68865000D02*
X115225000Y-68865000D01*
X112565000Y-71405000D02*
X115225000Y-71405000D01*
X112565000Y-74005000D02*
X115225000Y-74005000D01*
X115225000Y-58645000D02*
X112565000Y-58645000D01*
X115225000Y-59595000D02*
X121225000Y-59595000D01*
X115225000Y-59655000D02*
X121225000Y-59655000D01*
X115225000Y-59775000D02*
X121225000Y-59775000D01*
X115225000Y-59895000D02*
X121225000Y-59895000D01*
X115225000Y-60015000D02*
X121225000Y-60015000D01*
X115225000Y-60135000D02*
X121225000Y-60135000D01*
X115225000Y-60255000D02*
X121225000Y-60255000D01*
X115225000Y-62135000D02*
X121225000Y-62135000D01*
X115225000Y-64675000D02*
X121225000Y-64675000D01*
X115225000Y-67215000D02*
X121225000Y-67215000D01*
X115225000Y-69755000D02*
X121225000Y-69755000D01*
X115225000Y-72295000D02*
X121225000Y-72295000D01*
X115225000Y-74005000D02*
X115225000Y-58645000D01*
X121225000Y-59595000D02*
X121225000Y-60355000D01*
X121225000Y-60355000D02*
X115225000Y-60355000D01*
X121225000Y-62135000D02*
X121225000Y-62895000D01*
X121225000Y-62895000D02*
X115225000Y-62895000D01*
X121225000Y-64675000D02*
X121225000Y-65435000D01*
X121225000Y-65435000D02*
X115225000Y-65435000D01*
X121225000Y-67215000D02*
X121225000Y-67975000D01*
X121225000Y-67975000D02*
X115225000Y-67975000D01*
X121225000Y-69755000D02*
X121225000Y-70515000D01*
X121225000Y-70515000D02*
X115225000Y-70515000D01*
X121225000Y-72295000D02*
X121225000Y-73055000D01*
X121225000Y-73055000D02*
X115225000Y-73055000D01*
X80790000Y-71810436D02*
X80790000Y-73264564D01*
X82610000Y-71810436D02*
X82610000Y-73264564D01*
X62308180Y-77135436D02*
X62308180Y-78589564D01*
X64128180Y-77135436D02*
X64128180Y-78589564D01*
X91327064Y-72790000D02*
X89872936Y-72790000D01*
X91327064Y-74610000D02*
X89872936Y-74610000D01*
X68490000Y-58040000D02*
X68490000Y-58315000D01*
X68490000Y-67960000D02*
X68490000Y-67685000D01*
X70800000Y-58040000D02*
X68490000Y-58040000D01*
X70800000Y-58040000D02*
X73110000Y-58040000D01*
X70800000Y-67960000D02*
X68490000Y-67960000D01*
X70800000Y-67960000D02*
X73110000Y-67960000D01*
X73110000Y-58040000D02*
X73110000Y-58315000D01*
X73110000Y-67960000D02*
X73110000Y-67685000D01*
X67900000Y-58315000D02*
X67660000Y-57985000D01*
X68140000Y-57985000D01*
X67900000Y-58315000D01*
G36*
X67900000Y-58315000D02*
G01*
X67660000Y-57985000D01*
X68140000Y-57985000D01*
X67900000Y-58315000D01*
G37*
X51900000Y-102840000D02*
X51900000Y-112260000D01*
X51900000Y-102840000D02*
X53560000Y-102840000D01*
X51900000Y-108950000D02*
X72560000Y-108950000D01*
X51900000Y-112260000D02*
X72560000Y-112260000D01*
X54310000Y-101550000D02*
X54910000Y-101550000D01*
X54610000Y-102150000D02*
X54310000Y-101550000D01*
X54910000Y-101550000D02*
X54610000Y-102150000D01*
X55660000Y-102840000D02*
X57370000Y-102840000D01*
X59470000Y-102840000D02*
X61180000Y-102840000D01*
X63280000Y-102840000D02*
X64990000Y-102840000D01*
X67090000Y-102840000D02*
X68800000Y-102840000D01*
X72560000Y-102840000D02*
X70900000Y-102840000D01*
X72560000Y-112260000D02*
X72560000Y-102840000D01*
X64770000Y-54310436D02*
X64770000Y-55764564D01*
X66590000Y-54310436D02*
X66590000Y-55764564D01*
X67130000Y-54310436D02*
X67130000Y-55764564D01*
X68950000Y-54310436D02*
X68950000Y-55764564D01*
X71544540Y-77135436D02*
X71544540Y-78589564D01*
X73364540Y-77135436D02*
X73364540Y-78589564D01*
X80890000Y-60989564D02*
X80890000Y-59535436D01*
X82710000Y-60989564D02*
X82710000Y-59535436D01*
X57690000Y-71810436D02*
X57690000Y-73264564D01*
X59510000Y-71810436D02*
X59510000Y-73264564D01*
X96240000Y-82000000D02*
X96240000Y-82745000D01*
X96240000Y-88420000D02*
X96240000Y-87675000D01*
X99000000Y-82000000D02*
X96240000Y-82000000D01*
X99000000Y-82000000D02*
X101760000Y-82000000D01*
X99000000Y-88420000D02*
X96240000Y-88420000D01*
X99000000Y-88420000D02*
X101760000Y-88420000D01*
X101760000Y-82000000D02*
X101760000Y-82745000D01*
X101760000Y-88420000D02*
X101760000Y-87675000D01*
X102790000Y-88005000D02*
X102310000Y-88005000D01*
X102550000Y-87675000D01*
X102790000Y-88005000D01*
G36*
X102790000Y-88005000D02*
G01*
X102310000Y-88005000D01*
X102550000Y-87675000D01*
X102790000Y-88005000D01*
G37*
X97315000Y-109550000D02*
X97315000Y-106550000D01*
X97765000Y-109050000D02*
X97765000Y-98000000D01*
X100315000Y-109550000D02*
X97315000Y-109550000D01*
X103615000Y-98000000D02*
X97765000Y-98000000D01*
X103615000Y-100650000D02*
X103615000Y-98000000D01*
X103615000Y-101550000D02*
X103615000Y-100950000D01*
X103615000Y-105300000D02*
X103615000Y-101800000D01*
X103615000Y-106150000D02*
X103615000Y-105550000D01*
X103615000Y-109050000D02*
X97765000Y-109050000D01*
X103615000Y-109050000D02*
X103615000Y-106400000D01*
X97840000Y-43395000D02*
X97840000Y-44140000D01*
X97840000Y-49815000D02*
X97840000Y-49070000D01*
X100600000Y-43395000D02*
X97840000Y-43395000D01*
X100600000Y-43395000D02*
X103360000Y-43395000D01*
X100600000Y-49815000D02*
X97840000Y-49815000D01*
X100600000Y-49815000D02*
X103360000Y-49815000D01*
X103360000Y-43395000D02*
X103360000Y-44140000D01*
X103360000Y-49815000D02*
X103360000Y-49070000D01*
X97050000Y-44140000D02*
X96810000Y-43810000D01*
X97290000Y-43810000D01*
X97050000Y-44140000D01*
G36*
X97050000Y-44140000D02*
G01*
X96810000Y-43810000D01*
X97290000Y-43810000D01*
X97050000Y-44140000D01*
G37*
X90540000Y-66500000D02*
X90540000Y-64550000D01*
X90540000Y-66500000D02*
X90540000Y-68450000D01*
X95660000Y-66500000D02*
X95660000Y-64550000D01*
X95660000Y-66500000D02*
X95660000Y-68450000D01*
X95895000Y-64040000D02*
X95565000Y-63800000D01*
X95895000Y-63560000D01*
X95895000Y-64040000D01*
G36*
X95895000Y-64040000D02*
G01*
X95565000Y-63800000D01*
X95895000Y-63560000D01*
X95895000Y-64040000D01*
G37*
X62410000Y-54310436D02*
X62410000Y-55764564D01*
X64230000Y-54310436D02*
X64230000Y-55764564D01*
X76290000Y-60989564D02*
X76290000Y-59535436D01*
X78110000Y-60989564D02*
X78110000Y-59535436D01*
X71575710Y-71810436D02*
X71575710Y-73264564D01*
X73395710Y-71810436D02*
X73395710Y-73264564D01*
X107290000Y-57827064D02*
X107290000Y-56372936D01*
X109110000Y-57827064D02*
X109110000Y-56372936D01*
X73853630Y-77135436D02*
X73853630Y-78589564D01*
X75673630Y-77135436D02*
X75673630Y-78589564D01*
X83090000Y-77135436D02*
X83090000Y-78589564D01*
X84910000Y-77135436D02*
X84910000Y-78589564D01*
X74540000Y-89090000D02*
X74540000Y-89835000D01*
X74540000Y-95510000D02*
X74540000Y-94765000D01*
X77300000Y-89090000D02*
X74540000Y-89090000D01*
X77300000Y-89090000D02*
X80060000Y-89090000D01*
X77300000Y-95510000D02*
X74540000Y-95510000D01*
X77300000Y-95510000D02*
X80060000Y-95510000D01*
X80060000Y-89090000D02*
X80060000Y-89835000D01*
X80060000Y-95510000D02*
X80060000Y-94765000D01*
X81090000Y-95095000D02*
X80610000Y-95095000D01*
X80850000Y-94765000D01*
X81090000Y-95095000D01*
G36*
X81090000Y-95095000D02*
G01*
X80610000Y-95095000D01*
X80850000Y-94765000D01*
X81090000Y-95095000D01*
G37*
X89510000Y-61450000D02*
X89510000Y-57240000D01*
X89510000Y-57240000D02*
X86490000Y-57240000D01*
X86490000Y-57240000D02*
X86490000Y-61450000D01*
X101340000Y-54840000D02*
X103040000Y-54840000D01*
X101340000Y-59295563D02*
X101340000Y-54840000D01*
X102102500Y-60912500D02*
X102727500Y-60912500D01*
X102404437Y-60360000D02*
X101340000Y-59295563D01*
X102404437Y-60360000D02*
X103040000Y-60360000D01*
X102415000Y-61225000D02*
X102415000Y-60600000D01*
X105795563Y-60360000D02*
X105160000Y-60360000D01*
X105795563Y-60360000D02*
X106860000Y-59295563D01*
X106860000Y-54840000D02*
X105160000Y-54840000D01*
X106860000Y-59295563D02*
X106860000Y-54840000D01*
X80890000Y-55627064D02*
X80890000Y-54172936D01*
X82710000Y-55627064D02*
X82710000Y-54172936D01*
X74540000Y-82090000D02*
X74540000Y-82835000D01*
X74540000Y-88510000D02*
X74540000Y-87765000D01*
X77300000Y-82090000D02*
X74540000Y-82090000D01*
X77300000Y-82090000D02*
X80060000Y-82090000D01*
X77300000Y-88510000D02*
X74540000Y-88510000D01*
X77300000Y-88510000D02*
X80060000Y-88510000D01*
X80060000Y-82090000D02*
X80060000Y-82835000D01*
X80060000Y-88510000D02*
X80060000Y-87765000D01*
X81090000Y-88095000D02*
X80610000Y-88095000D01*
X80850000Y-87765000D01*
X81090000Y-88095000D01*
G36*
X81090000Y-88095000D02*
G01*
X80610000Y-88095000D01*
X80850000Y-87765000D01*
X81090000Y-88095000D01*
G37*
X60004285Y-71810436D02*
X60004285Y-73264564D01*
X61824285Y-71810436D02*
X61824285Y-73264564D01*
X94660000Y-61760000D02*
X94660000Y-57240000D01*
X94660000Y-61760000D02*
X94510000Y-61760000D01*
X94660000Y-57240000D02*
X94510000Y-57240000D01*
X90140000Y-61760000D02*
X90290000Y-61760000D01*
X90140000Y-61760000D02*
X90140000Y-57240000D01*
X90140000Y-57240000D02*
X90290000Y-57240000D01*
X73890000Y-71810436D02*
X73890000Y-73264564D01*
X75710000Y-71810436D02*
X75710000Y-73264564D01*
X83190000Y-55627064D02*
X83190000Y-54172936D01*
X85010000Y-55627064D02*
X85010000Y-54172936D01*
X108270000Y-63750000D02*
X104670000Y-63750000D01*
X106470000Y-68200000D02*
G75*
G02*
X104631522Y-63761522I0J2600000D01*
G01*
X108308478Y-63761522D02*
G75*
G02*
X106470000Y-68200001I-1838478J-1838478D01*
G01*
X83190000Y-60989564D02*
X83190000Y-59535436D01*
X85010000Y-60989564D02*
X85010000Y-59535436D01*
X85940000Y-43495000D02*
X85940000Y-44240000D01*
X85940000Y-49915000D02*
X85940000Y-49170000D01*
X88700000Y-43495000D02*
X85940000Y-43495000D01*
X88700000Y-43495000D02*
X91460000Y-43495000D01*
X88700000Y-49915000D02*
X85940000Y-49915000D01*
X88700000Y-49915000D02*
X91460000Y-49915000D01*
X91460000Y-43495000D02*
X91460000Y-44240000D01*
X91460000Y-49915000D02*
X91460000Y-49170000D01*
X92490000Y-49500000D02*
X92010000Y-49500000D01*
X92250000Y-49170000D01*
X92490000Y-49500000D01*
G36*
X92490000Y-49500000D02*
G01*
X92010000Y-49500000D01*
X92250000Y-49170000D01*
X92490000Y-49500000D01*
G37*
X78590000Y-55627064D02*
X78590000Y-54172936D01*
X80410000Y-55627064D02*
X80410000Y-54172936D01*
X64340000Y-89090000D02*
X64340000Y-89835000D01*
X64340000Y-95510000D02*
X64340000Y-94765000D01*
X67100000Y-89090000D02*
X64340000Y-89090000D01*
X67100000Y-89090000D02*
X69860000Y-89090000D01*
X67100000Y-95510000D02*
X64340000Y-95510000D01*
X67100000Y-95510000D02*
X69860000Y-95510000D01*
X69860000Y-89090000D02*
X69860000Y-89835000D01*
X69860000Y-95510000D02*
X69860000Y-94765000D01*
X63550000Y-89835000D02*
X63310000Y-89505000D01*
X63790000Y-89505000D01*
X63550000Y-89835000D01*
G36*
X63550000Y-89835000D02*
G01*
X63310000Y-89505000D01*
X63790000Y-89505000D01*
X63550000Y-89835000D01*
G37*
X83090000Y-71810436D02*
X83090000Y-73264564D01*
X84910000Y-71810436D02*
X84910000Y-73264564D01*
X96240000Y-89090000D02*
X96240000Y-89835000D01*
X96240000Y-95510000D02*
X96240000Y-94765000D01*
X99000000Y-89090000D02*
X96240000Y-89090000D01*
X99000000Y-89090000D02*
X101760000Y-89090000D01*
X99000000Y-95510000D02*
X96240000Y-95510000D01*
X99000000Y-95510000D02*
X101760000Y-95510000D01*
X101760000Y-89090000D02*
X101760000Y-89835000D01*
X101760000Y-95510000D02*
X101760000Y-94765000D01*
X102790000Y-95095000D02*
X102310000Y-95095000D01*
X102550000Y-94765000D01*
X102790000Y-95095000D01*
G36*
X102790000Y-95095000D02*
G01*
X102310000Y-95095000D01*
X102550000Y-94765000D01*
X102790000Y-95095000D01*
G37*
X85940000Y-36595000D02*
X85940000Y-37340000D01*
X85940000Y-43015000D02*
X85940000Y-42270000D01*
X88700000Y-36595000D02*
X85940000Y-36595000D01*
X88700000Y-36595000D02*
X91460000Y-36595000D01*
X88700000Y-43015000D02*
X85940000Y-43015000D01*
X88700000Y-43015000D02*
X91460000Y-43015000D01*
X91460000Y-36595000D02*
X91460000Y-37340000D01*
X91460000Y-43015000D02*
X91460000Y-42270000D01*
X92490000Y-42600000D02*
X92010000Y-42600000D01*
X92250000Y-42270000D01*
X92490000Y-42600000D01*
G36*
X92490000Y-42600000D02*
G01*
X92010000Y-42600000D01*
X92250000Y-42270000D01*
X92490000Y-42600000D01*
G37*
X57690000Y-54272936D02*
X57690000Y-55727064D01*
X59510000Y-54272936D02*
X59510000Y-55727064D01*
X95540000Y-72900000D02*
X95540000Y-59200000D01*
X96150000Y-58590000D02*
X102650000Y-58590000D01*
X96150000Y-73510000D02*
X102650000Y-73510000D01*
X101260000Y-71290000D02*
X101260000Y-60810000D01*
X101800000Y-69800000D02*
X102300000Y-70100000D01*
X102300000Y-69500000D02*
X101800000Y-69800000D01*
X102300000Y-70100000D02*
X102300000Y-69500000D01*
X103260000Y-59200000D02*
X103260000Y-60810000D01*
X103260000Y-60810000D02*
X101260000Y-60810000D01*
X103260000Y-71290000D02*
X101260000Y-71290000D01*
X103260000Y-72900000D02*
X103260000Y-71290000D01*
X95540000Y-59200000D02*
G75*
G02*
X96150000Y-58590000I610000J0D01*
G01*
X96150000Y-73510000D02*
G75*
G02*
X95540000Y-72900000I0J610000D01*
G01*
X102650000Y-58590000D02*
G75*
G02*
X103260000Y-59200000I0J-610000D01*
G01*
X103260000Y-72900000D02*
G75*
G02*
X102650000Y-73510000I-610000J0D01*
G01*
X78490000Y-71810436D02*
X78490000Y-73264564D01*
X80310000Y-71810436D02*
X80310000Y-73264564D01*
X105152500Y-85365000D02*
X105152500Y-87635000D01*
X105152500Y-87635000D02*
X109212500Y-87635000D01*
X109212500Y-85365000D02*
X105152500Y-85365000D01*
X57690000Y-77135436D02*
X57690000Y-78589564D01*
X59510000Y-77135436D02*
X59510000Y-78589564D01*
X62640000Y-43395000D02*
X62640000Y-44140000D01*
X62640000Y-49815000D02*
X62640000Y-49070000D01*
X65400000Y-43395000D02*
X62640000Y-43395000D01*
X65400000Y-43395000D02*
X68160000Y-43395000D01*
X65400000Y-49815000D02*
X62640000Y-49815000D01*
X65400000Y-49815000D02*
X68160000Y-49815000D01*
X68160000Y-43395000D02*
X68160000Y-44140000D01*
X68160000Y-49815000D02*
X68160000Y-49070000D01*
X69190000Y-49400000D02*
X68710000Y-49400000D01*
X68950000Y-49070000D01*
X69190000Y-49400000D01*
G36*
X69190000Y-49400000D02*
G01*
X68710000Y-49400000D01*
X68950000Y-49070000D01*
X69190000Y-49400000D01*
G37*
X69261425Y-71810436D02*
X69261425Y-73264564D01*
X71081425Y-71810436D02*
X71081425Y-73264564D01*
X64340000Y-82090000D02*
X64340000Y-82835000D01*
X64340000Y-88510000D02*
X64340000Y-87765000D01*
X67100000Y-82090000D02*
X64340000Y-82090000D01*
X67100000Y-82090000D02*
X69860000Y-82090000D01*
X67100000Y-88510000D02*
X64340000Y-88510000D01*
X67100000Y-88510000D02*
X69860000Y-88510000D01*
X69860000Y-82090000D02*
X69860000Y-82835000D01*
X69860000Y-88510000D02*
X69860000Y-87765000D01*
X63550000Y-82835000D02*
X63310000Y-82505000D01*
X63790000Y-82505000D01*
X63550000Y-82835000D01*
G36*
X63550000Y-82835000D02*
G01*
X63310000Y-82505000D01*
X63790000Y-82505000D01*
X63550000Y-82835000D01*
G37*
X62640000Y-36490000D02*
X62640000Y-37235000D01*
X62640000Y-42910000D02*
X62640000Y-42165000D01*
X65400000Y-36490000D02*
X62640000Y-36490000D01*
X65400000Y-36490000D02*
X68160000Y-36490000D01*
X65400000Y-42910000D02*
X62640000Y-42910000D01*
X65400000Y-42910000D02*
X68160000Y-42910000D01*
X68160000Y-36490000D02*
X68160000Y-37235000D01*
X68160000Y-42910000D02*
X68160000Y-42165000D01*
X69190000Y-42495000D02*
X68710000Y-42495000D01*
X68950000Y-42165000D01*
X69190000Y-42495000D01*
G36*
X69190000Y-42495000D02*
G01*
X68710000Y-42495000D01*
X68950000Y-42165000D01*
X69190000Y-42495000D01*
G37*
X83690000Y-65572936D02*
X83690000Y-67027064D01*
X85510000Y-65572936D02*
X85510000Y-67027064D01*
X96190000Y-71127064D02*
X96190000Y-69672936D01*
X98010000Y-71127064D02*
X98010000Y-69672936D01*
X93700000Y-74290000D02*
X94700000Y-74290000D01*
X94200000Y-73790000D02*
X94200000Y-74790000D01*
X94940000Y-73304437D02*
X94940000Y-75290000D01*
X94940000Y-73304437D02*
X96004437Y-72240000D01*
X94940000Y-79695563D02*
X94940000Y-77710000D01*
X94940000Y-79695563D02*
X96004437Y-80760000D01*
X96004437Y-72240000D02*
X103460000Y-72240000D01*
X96004437Y-80760000D02*
X103460000Y-80760000D01*
X103460000Y-72240000D02*
X103460000Y-75290000D01*
X103460000Y-80760000D02*
X103460000Y-77710000D01*
X52775000Y-20240000D02*
X52775000Y-29660000D01*
X52775000Y-29660000D02*
X54435000Y-29660000D01*
X58245000Y-29660000D02*
X56535000Y-29660000D01*
X62055000Y-29660000D02*
X60345000Y-29660000D01*
X65865000Y-29660000D02*
X64155000Y-29660000D01*
X69675000Y-29660000D02*
X67965000Y-29660000D01*
X70425000Y-30950000D02*
X70725000Y-30350000D01*
X70725000Y-30350000D02*
X71025000Y-30950000D01*
X71025000Y-30950000D02*
X70425000Y-30950000D01*
X73435000Y-20240000D02*
X52775000Y-20240000D01*
X73435000Y-23550000D02*
X52775000Y-23550000D01*
X73435000Y-29660000D02*
X71775000Y-29660000D01*
X73435000Y-29660000D02*
X73435000Y-20240000D01*
X105490000Y-20240000D02*
X105490000Y-29660000D01*
X105490000Y-29660000D02*
X107150000Y-29660000D01*
X110960000Y-29660000D02*
X109250000Y-29660000D01*
X111710000Y-30950000D02*
X112010000Y-30350000D01*
X112010000Y-30350000D02*
X112310000Y-30950000D01*
X112310000Y-30950000D02*
X111710000Y-30950000D01*
X114720000Y-20240000D02*
X105490000Y-20240000D01*
X114720000Y-23550000D02*
X105490000Y-23550000D01*
X114720000Y-29660000D02*
X113060000Y-29660000D01*
X114720000Y-29660000D02*
X114720000Y-20240000D01*
X76190000Y-71810436D02*
X76190000Y-73264564D01*
X78010000Y-71810436D02*
X78010000Y-73264564D01*
X64617270Y-77135436D02*
X64617270Y-78589564D01*
X66437270Y-77135436D02*
X66437270Y-78589564D01*
X113127064Y-85590000D02*
X111672936Y-85590000D01*
X113127064Y-87410000D02*
X111672936Y-87410000D01*
X86440000Y-81995000D02*
X86440000Y-82740000D01*
X86440000Y-88415000D02*
X86440000Y-87670000D01*
X89200000Y-81995000D02*
X86440000Y-81995000D01*
X89200000Y-81995000D02*
X91960000Y-81995000D01*
X89200000Y-88415000D02*
X86440000Y-88415000D01*
X89200000Y-88415000D02*
X91960000Y-88415000D01*
X91960000Y-81995000D02*
X91960000Y-82740000D01*
X91960000Y-88415000D02*
X91960000Y-87670000D01*
X85650000Y-82740000D02*
X85410000Y-82410000D01*
X85890000Y-82410000D01*
X85650000Y-82740000D01*
G36*
X85650000Y-82740000D02*
G01*
X85410000Y-82410000D01*
X85890000Y-82410000D01*
X85650000Y-82740000D01*
G37*
X91327064Y-75390000D02*
X89872936Y-75390000D01*
X91327064Y-77210000D02*
X89872936Y-77210000D01*
X78590000Y-60989564D02*
X78590000Y-59535436D01*
X80410000Y-60989564D02*
X80410000Y-59535436D01*
X73675000Y-102840000D02*
X73675000Y-112260000D01*
X73675000Y-102840000D02*
X75335000Y-102840000D01*
X73675000Y-108950000D02*
X94335000Y-108950000D01*
X73675000Y-112260000D02*
X94335000Y-112260000D01*
X76085000Y-101550000D02*
X76685000Y-101550000D01*
X76385000Y-102150000D02*
X76085000Y-101550000D01*
X76685000Y-101550000D02*
X76385000Y-102150000D01*
X77435000Y-102840000D02*
X79145000Y-102840000D01*
X81245000Y-102840000D02*
X82955000Y-102840000D01*
X85055000Y-102840000D02*
X86765000Y-102840000D01*
X88865000Y-102840000D02*
X90575000Y-102840000D01*
X94335000Y-102840000D02*
X92675000Y-102840000D01*
X94335000Y-112260000D02*
X94335000Y-102840000D01*
X69490000Y-54310436D02*
X69490000Y-55764564D01*
X71310000Y-54310436D02*
X71310000Y-55764564D01*
%LPC*%
D12*
X70700000Y-28300000D02*
X70700000Y-25300000D01*
D13*
X111300000Y-25000000D02*
X54100000Y-25000000D01*
D12*
X52900000Y-26200000D02*
X54000000Y-25100000D01*
X53000000Y-100900000D02*
X54600000Y-102500000D01*
D14*
X54600000Y-25000000D02*
X52900000Y-26400000D01*
D12*
X54600000Y-102500000D02*
X54600000Y-106700000D01*
D14*
X54600000Y-25000000D02*
X53000000Y-26300000D01*
X112100000Y-28500000D02*
X112000000Y-25100000D01*
X54600000Y-106700000D02*
X55400000Y-107500000D01*
D12*
X55400000Y-107500000D02*
X72800000Y-107500000D01*
X52900000Y-26400000D02*
X53000000Y-100800000D01*
X92400000Y-28300000D02*
X92400000Y-25400000D01*
X73000000Y-107500000D02*
X76400000Y-104100000D01*
X112000000Y-28300000D02*
X112000000Y-25100000D01*
D15*
X73900000Y-37830000D03*
X73900000Y-39100000D03*
X73900000Y-40370000D03*
X73900000Y-41640000D03*
X80900000Y-41640000D03*
X80900000Y-40370000D03*
X80900000Y-39100000D03*
X80900000Y-37830000D03*
D16*
X65542855Y-71075000D03*
X65542855Y-74000000D03*
D15*
X97100000Y-37790000D03*
X97100000Y-39060000D03*
X97100000Y-40330000D03*
X97100000Y-41600000D03*
X104100000Y-41600000D03*
X104100000Y-40330000D03*
X104100000Y-39060000D03*
X104100000Y-37790000D03*
D17*
X107850000Y-106550000D03*
D18*
X107850000Y-104550000D03*
X107850000Y-102550000D03*
X107850000Y-100550000D03*
D16*
X67857140Y-71075000D03*
X67857140Y-74000000D03*
D15*
X73900000Y-44700000D03*
X73900000Y-45970000D03*
X73900000Y-47240000D03*
X73900000Y-48510000D03*
X80900000Y-48510000D03*
X80900000Y-47240000D03*
X80900000Y-45970000D03*
X80900000Y-44700000D03*
D16*
X77072720Y-76400000D03*
X77072720Y-79325000D03*
X79381810Y-76400000D03*
X79381810Y-79325000D03*
X86900000Y-64837500D03*
X86900000Y-67762500D03*
X60909090Y-76400000D03*
X60909090Y-79325000D03*
X60960000Y-53537500D03*
X60960000Y-56462500D03*
D19*
X96500000Y-58900000D03*
X96500000Y-54100000D03*
D20*
X111750000Y-55700000D03*
D21*
X110300000Y-55700000D03*
D16*
X70145450Y-76400000D03*
X70145450Y-79325000D03*
X63228570Y-71075000D03*
X63228570Y-74000000D03*
D22*
X55375000Y-59975000D03*
D23*
X55375000Y-62515000D03*
X55375000Y-65055000D03*
X55375000Y-67595000D03*
X55375000Y-70135000D03*
X55375000Y-72675000D03*
D15*
X85700000Y-90300000D03*
X85700000Y-91570000D03*
X85700000Y-92840000D03*
X85700000Y-94110000D03*
X92700000Y-94110000D03*
X92700000Y-92840000D03*
X92700000Y-91570000D03*
X92700000Y-90300000D03*
D16*
X67836360Y-76400000D03*
X67836360Y-79325000D03*
X81690900Y-76400000D03*
X81690900Y-79325000D03*
D24*
X92390000Y-28350000D03*
D25*
X88580000Y-28350000D03*
X84770000Y-28350000D03*
X80960000Y-28350000D03*
X77150000Y-28350000D03*
D26*
X77200000Y-56362500D03*
X77200000Y-53437500D03*
D22*
X111125000Y-59975000D03*
D23*
X111125000Y-62515000D03*
X111125000Y-65055000D03*
X111125000Y-67595000D03*
X111125000Y-70135000D03*
X111125000Y-72675000D03*
D16*
X81700000Y-71075000D03*
X81700000Y-74000000D03*
X63218180Y-76400000D03*
X63218180Y-79325000D03*
D27*
X92062500Y-73700000D03*
X89137500Y-73700000D03*
D28*
X67937500Y-58775000D03*
X67937500Y-59425000D03*
X67937500Y-60075000D03*
X67937500Y-60725000D03*
X67937500Y-61375000D03*
X67937500Y-62025000D03*
X67937500Y-62675000D03*
X67937500Y-63325000D03*
X67937500Y-63975000D03*
X67937500Y-64625000D03*
X67937500Y-65275000D03*
X67937500Y-65925000D03*
X67937500Y-66575000D03*
X67937500Y-67225000D03*
X73662500Y-67225000D03*
X73662500Y-66575000D03*
X73662500Y-65925000D03*
X73662500Y-65275000D03*
X73662500Y-64625000D03*
X73662500Y-63975000D03*
X73662500Y-63325000D03*
X73662500Y-62675000D03*
X73662500Y-62025000D03*
X73662500Y-61375000D03*
X73662500Y-60725000D03*
X73662500Y-60075000D03*
X73662500Y-59425000D03*
X73662500Y-58775000D03*
D29*
X54610000Y-104150000D03*
D25*
X58420000Y-104150000D03*
X62230000Y-104150000D03*
X66040000Y-104150000D03*
X69850000Y-104150000D03*
D16*
X65680000Y-53575000D03*
X65680000Y-56500000D03*
D30*
X109200000Y-39100000D03*
D16*
X68040000Y-53575000D03*
X68040000Y-56500000D03*
X72454540Y-76400000D03*
X72454540Y-79325000D03*
D26*
X81800000Y-61725000D03*
X81800000Y-58800000D03*
D16*
X58600000Y-71075000D03*
X58600000Y-74000000D03*
D31*
X102500000Y-87115000D03*
X102500000Y-85845000D03*
X102500000Y-84575000D03*
X102500000Y-83305000D03*
X95500000Y-83305000D03*
X95500000Y-84575000D03*
X95500000Y-85845000D03*
X95500000Y-87115000D03*
D17*
X100315000Y-106550000D03*
D18*
X100315000Y-104550000D03*
X100315000Y-102550000D03*
X100315000Y-100550000D03*
D15*
X97100000Y-44700000D03*
X97100000Y-45970000D03*
X97100000Y-47240000D03*
X97100000Y-48510000D03*
X104100000Y-48510000D03*
X104100000Y-47240000D03*
X104100000Y-45970000D03*
X104100000Y-44700000D03*
D32*
X95005000Y-64025000D03*
X93735000Y-64025000D03*
X92465000Y-64025000D03*
X91195000Y-64025000D03*
X91195000Y-68975000D03*
X92465000Y-68975000D03*
X93735000Y-68975000D03*
X95005000Y-68975000D03*
D16*
X63320000Y-53575000D03*
X63320000Y-56500000D03*
D26*
X77200000Y-61725000D03*
X77200000Y-58800000D03*
D16*
X72485710Y-71075000D03*
X72485710Y-74000000D03*
D26*
X108200000Y-58562500D03*
X108200000Y-55637500D03*
D16*
X74763630Y-76400000D03*
X74763630Y-79325000D03*
X84000000Y-76400000D03*
X84000000Y-79325000D03*
D31*
X80800000Y-94205000D03*
X80800000Y-92935000D03*
X80800000Y-91665000D03*
X80800000Y-90395000D03*
X73800000Y-90395000D03*
X73800000Y-91665000D03*
X73800000Y-92935000D03*
X73800000Y-94205000D03*
D33*
X88000000Y-58162500D03*
X88000000Y-61237500D03*
D34*
X104100000Y-59800000D03*
X104100000Y-55400000D03*
D26*
X81800000Y-56362500D03*
X81800000Y-53437500D03*
D31*
X80800000Y-87205000D03*
X80800000Y-85935000D03*
X80800000Y-84665000D03*
X80800000Y-83395000D03*
X73800000Y-83395000D03*
X73800000Y-84665000D03*
X73800000Y-85935000D03*
X73800000Y-87205000D03*
D16*
X60914285Y-71075000D03*
X60914285Y-74000000D03*
D35*
X92400000Y-61000000D03*
X92400000Y-58000000D03*
D16*
X74800000Y-71075000D03*
X74800000Y-74000000D03*
D26*
X84100000Y-56362500D03*
X84100000Y-53437500D03*
D36*
X107740000Y-65600000D03*
D37*
X106470000Y-65600000D03*
X105200000Y-65600000D03*
D26*
X84100000Y-61725000D03*
X84100000Y-58800000D03*
D31*
X92200000Y-48610000D03*
X92200000Y-47340000D03*
X92200000Y-46070000D03*
X92200000Y-44800000D03*
X85200000Y-44800000D03*
X85200000Y-46070000D03*
X85200000Y-47340000D03*
X85200000Y-48610000D03*
D26*
X79500000Y-56362500D03*
X79500000Y-53437500D03*
D15*
X63600000Y-90395000D03*
X63600000Y-91665000D03*
X63600000Y-92935000D03*
X63600000Y-94205000D03*
X70600000Y-94205000D03*
X70600000Y-92935000D03*
X70600000Y-91665000D03*
X70600000Y-90395000D03*
D30*
X57300000Y-39100000D03*
D16*
X84000000Y-71075000D03*
X84000000Y-74000000D03*
D31*
X102500000Y-94205000D03*
X102500000Y-92935000D03*
X102500000Y-91665000D03*
X102500000Y-90395000D03*
X95500000Y-90395000D03*
X95500000Y-91665000D03*
X95500000Y-92935000D03*
X95500000Y-94205000D03*
X92200000Y-41710000D03*
X92200000Y-40440000D03*
X92200000Y-39170000D03*
X92200000Y-37900000D03*
X85200000Y-37900000D03*
X85200000Y-39170000D03*
X85200000Y-40440000D03*
X85200000Y-41710000D03*
D16*
X58600000Y-53537500D03*
X58600000Y-56462500D03*
D38*
X99400000Y-69800000D03*
D39*
X99400000Y-67300000D03*
X99400000Y-64800000D03*
X99400000Y-62300000D03*
D16*
X79400000Y-71075000D03*
X79400000Y-74000000D03*
D40*
X106125000Y-86500000D03*
X109100000Y-86500000D03*
D16*
X58600000Y-76400000D03*
X58600000Y-79325000D03*
D31*
X68900000Y-48510000D03*
X68900000Y-47240000D03*
X68900000Y-45970000D03*
X68900000Y-44700000D03*
X61900000Y-44700000D03*
X61900000Y-45970000D03*
X61900000Y-47240000D03*
X61900000Y-48510000D03*
D16*
X70171425Y-71075000D03*
X70171425Y-74000000D03*
D15*
X63600000Y-83395000D03*
X63600000Y-84665000D03*
X63600000Y-85935000D03*
X63600000Y-87205000D03*
X70600000Y-87205000D03*
X70600000Y-85935000D03*
X70600000Y-84665000D03*
X70600000Y-83395000D03*
D31*
X68900000Y-41605000D03*
X68900000Y-40335000D03*
X68900000Y-39065000D03*
X68900000Y-37795000D03*
X61900000Y-37795000D03*
X61900000Y-39065000D03*
X61900000Y-40335000D03*
X61900000Y-41605000D03*
D16*
X84600000Y-64837500D03*
X84600000Y-67762500D03*
D26*
X97100000Y-71862500D03*
X97100000Y-68937500D03*
D30*
X57335393Y-92953512D03*
D41*
X95725000Y-76500000D03*
X102675000Y-76500000D03*
D30*
X109200000Y-93000000D03*
D24*
X70725000Y-28350000D03*
D25*
X66915000Y-28350000D03*
X63105000Y-28350000D03*
X59295000Y-28350000D03*
X55485000Y-28350000D03*
D24*
X112010000Y-28350000D03*
D25*
X108200000Y-28350000D03*
D16*
X77100000Y-71075000D03*
X77100000Y-74000000D03*
X65527270Y-76400000D03*
X65527270Y-79325000D03*
D27*
X113862500Y-86500000D03*
X110937500Y-86500000D03*
D15*
X85700000Y-83300000D03*
X85700000Y-84570000D03*
X85700000Y-85840000D03*
X85700000Y-87110000D03*
X92700000Y-87110000D03*
X92700000Y-85840000D03*
X92700000Y-84570000D03*
X92700000Y-83300000D03*
D27*
X92062500Y-76300000D03*
X89137500Y-76300000D03*
D26*
X79500000Y-61725000D03*
X79500000Y-58800000D03*
D29*
X76385000Y-104150000D03*
D25*
X80195000Y-104150000D03*
X84005000Y-104150000D03*
X87815000Y-104150000D03*
X91625000Y-104150000D03*
D16*
X70400000Y-53575000D03*
X70400000Y-56500000D03*
%LPD*%
M02*
