G04 #@! TF.GenerationSoftware,KiCad,Pcbnew,8.0.5*
G04 #@! TF.CreationDate,2024-10-29T22:07:05+01:00*
G04 #@! TF.ProjectId,pwm_i2c,70776d5f-6932-4632-9e6b-696361645f70,rev?*
G04 #@! TF.SameCoordinates,Original*
G04 #@! TF.FileFunction,Soldermask,Top*
G04 #@! TF.FilePolarity,Negative*
%FSLAX46Y46*%
G04 Gerber Fmt 4.6, Leading zero omitted, Abs format (unit mm)*
G04 Created by KiCad (PCBNEW 8.0.5) date 2024-10-29 22:07:05*
%MOMM*%
%LPD*%
G01*
G04 APERTURE LIST*
G04 Aperture macros list*
%AMRoundRect*
0 Rectangle with rounded corners*
0 $1 Rounding radius*
0 $2 $3 $4 $5 $6 $7 $8 $9 X,Y pos of 4 corners*
0 Add a 4 corners polygon primitive as box body*
4,1,4,$2,$3,$4,$5,$6,$7,$8,$9,$2,$3,0*
0 Add four circle primitives for the rounded corners*
1,1,$1+$1,$2,$3*
1,1,$1+$1,$4,$5*
1,1,$1+$1,$6,$7*
1,1,$1+$1,$8,$9*
0 Add four rect primitives between the rounded corners*
20,1,$1+$1,$2,$3,$4,$5,0*
20,1,$1+$1,$4,$5,$6,$7,0*
20,1,$1+$1,$6,$7,$8,$9,0*
20,1,$1+$1,$8,$9,$2,$3,0*%
%AMFreePoly0*
4,1,6,1.000000,0.000000,0.500000,-0.750000,-0.500000,-0.750000,-0.500000,0.750000,0.500000,0.750000,1.000000,0.000000,1.000000,0.000000,$1*%
%AMFreePoly1*
4,1,6,0.500000,-0.750000,-0.650000,-0.750000,-0.150000,0.000000,-0.650000,0.750000,0.500000,0.750000,0.500000,-0.750000,0.500000,-0.750000,$1*%
G04 Aperture macros list end*
%ADD10C,2.500000*%
%ADD11C,2.400000*%
%ADD12C,0.100000*%
%ADD13RoundRect,0.150000X-0.800000X-0.150000X0.800000X-0.150000X0.800000X0.150000X-0.800000X0.150000X0*%
%ADD14RoundRect,0.250000X-0.625000X0.312500X-0.625000X-0.312500X0.625000X-0.312500X0.625000X0.312500X0*%
%ADD15R,1.524000X1.524000*%
%ADD16C,1.524000*%
%ADD17RoundRect,0.250000X1.100000X-0.500000X1.100000X0.500000X-1.100000X0.500000X-1.100000X-0.500000X0*%
%ADD18FreePoly0,180.000000*%
%ADD19FreePoly1,180.000000*%
%ADD20R,1.700000X1.700000*%
%ADD21O,1.700000X1.700000*%
%ADD22RoundRect,0.250000X0.650000X1.550000X-0.650000X1.550000X-0.650000X-1.550000X0.650000X-1.550000X0*%
%ADD23O,1.800000X3.600000*%
%ADD24RoundRect,0.250000X0.625000X-0.312500X0.625000X0.312500X-0.625000X0.312500X-0.625000X-0.312500X0*%
%ADD25RoundRect,0.250000X0.312500X0.625000X-0.312500X0.625000X-0.312500X-0.625000X0.312500X-0.625000X0*%
%ADD26RoundRect,0.100000X-0.637500X-0.100000X0.637500X-0.100000X0.637500X0.100000X-0.637500X0.100000X0*%
%ADD27RoundRect,0.250000X-0.650000X-1.550000X0.650000X-1.550000X0.650000X1.550000X-0.650000X1.550000X0*%
%ADD28C,3.200000*%
%ADD29RoundRect,0.150000X0.800000X0.150000X-0.800000X0.150000X-0.800000X-0.150000X0.800000X-0.150000X0*%
%ADD30RoundRect,0.150000X-0.150000X0.825000X-0.150000X-0.825000X0.150000X-0.825000X0.150000X0.825000X0*%
%ADD31RoundRect,0.250000X-0.925000X0.412500X-0.925000X-0.412500X0.925000X-0.412500X0.925000X0.412500X0*%
%ADD32RoundRect,0.250000X0.550000X-1.250000X0.550000X1.250000X-0.550000X1.250000X-0.550000X-1.250000X0*%
%ADD33R,3.700000X1.100000*%
%ADD34R,1.050000X1.500000*%
%ADD35O,1.050000X1.500000*%
%ADD36RoundRect,0.375000X0.625000X-0.375000X0.625000X0.375000X-0.625000X0.375000X-0.625000X-0.375000X0*%
%ADD37O,2.000000X1.500000*%
%ADD38RoundRect,0.250001X-0.462499X-0.624999X0.462499X-0.624999X0.462499X0.624999X-0.462499X0.624999X0*%
%ADD39RoundRect,0.250000X-1.825000X-0.700000X1.825000X-0.700000X1.825000X0.700000X-1.825000X0.700000X0*%
G04 APERTURE END LIST*
D10*
X70700000Y-28300000D02*
X70700000Y-25300000D01*
D11*
X111300000Y-25000000D02*
X54100000Y-25000000D01*
D10*
X52900000Y-26200000D02*
X54000000Y-25100000D01*
X53000000Y-100900000D02*
X54600000Y-102500000D01*
D12*
X54600000Y-25000000D02*
X52900000Y-26400000D01*
D10*
X54600000Y-102500000D02*
X54600000Y-106700000D01*
D12*
X54600000Y-25000000D02*
X53000000Y-26300000D01*
X112100000Y-28500000D02*
X112000000Y-25100000D01*
X54600000Y-106700000D02*
X55400000Y-107500000D01*
D10*
X55400000Y-107500000D02*
X72800000Y-107500000D01*
X52900000Y-26400000D02*
X53000000Y-100800000D01*
X92400000Y-28300000D02*
X92400000Y-25400000D01*
X73000000Y-107500000D02*
X76400000Y-104100000D01*
X112000000Y-28300000D02*
X112000000Y-25100000D01*
D13*
X73900000Y-37830000D03*
X73900000Y-39100000D03*
X73900000Y-40370000D03*
X73900000Y-41640000D03*
X80900000Y-41640000D03*
X80900000Y-40370000D03*
X80900000Y-39100000D03*
X80900000Y-37830000D03*
D14*
X65542855Y-71075000D03*
X65542855Y-74000000D03*
D13*
X97100000Y-37790000D03*
X97100000Y-39060000D03*
X97100000Y-40330000D03*
X97100000Y-41600000D03*
X104100000Y-41600000D03*
X104100000Y-40330000D03*
X104100000Y-39060000D03*
X104100000Y-37790000D03*
D15*
X107850000Y-106550000D03*
D16*
X107850000Y-104550000D03*
X107850000Y-102550000D03*
X107850000Y-100550000D03*
D14*
X67857140Y-71075000D03*
X67857140Y-74000000D03*
D13*
X73900000Y-44700000D03*
X73900000Y-45970000D03*
X73900000Y-47240000D03*
X73900000Y-48510000D03*
X80900000Y-48510000D03*
X80900000Y-47240000D03*
X80900000Y-45970000D03*
X80900000Y-44700000D03*
D14*
X77072720Y-76400000D03*
X77072720Y-79325000D03*
X79381810Y-76400000D03*
X79381810Y-79325000D03*
X86900000Y-64837500D03*
X86900000Y-67762500D03*
X60909090Y-76400000D03*
X60909090Y-79325000D03*
X60960000Y-53537500D03*
X60960000Y-56462500D03*
D17*
X96500000Y-58900000D03*
X96500000Y-54100000D03*
D18*
X111750000Y-55700000D03*
D19*
X110300000Y-55700000D03*
D14*
X70145450Y-76400000D03*
X70145450Y-79325000D03*
X63228570Y-71075000D03*
X63228570Y-74000000D03*
D20*
X55375000Y-59975000D03*
D21*
X55375000Y-62515000D03*
X55375000Y-65055000D03*
X55375000Y-67595000D03*
X55375000Y-70135000D03*
X55375000Y-72675000D03*
D13*
X85700000Y-90300000D03*
X85700000Y-91570000D03*
X85700000Y-92840000D03*
X85700000Y-94110000D03*
X92700000Y-94110000D03*
X92700000Y-92840000D03*
X92700000Y-91570000D03*
X92700000Y-90300000D03*
D14*
X67836360Y-76400000D03*
X67836360Y-79325000D03*
X81690900Y-76400000D03*
X81690900Y-79325000D03*
D22*
X92390000Y-28350000D03*
D23*
X88580000Y-28350000D03*
X84770000Y-28350000D03*
X80960000Y-28350000D03*
X77150000Y-28350000D03*
D24*
X77200000Y-56362500D03*
X77200000Y-53437500D03*
D20*
X111125000Y-59975000D03*
D21*
X111125000Y-62515000D03*
X111125000Y-65055000D03*
X111125000Y-67595000D03*
X111125000Y-70135000D03*
X111125000Y-72675000D03*
D14*
X81700000Y-71075000D03*
X81700000Y-74000000D03*
X63218180Y-76400000D03*
X63218180Y-79325000D03*
D25*
X92062500Y-73700000D03*
X89137500Y-73700000D03*
D26*
X67937500Y-58775000D03*
X67937500Y-59425000D03*
X67937500Y-60075000D03*
X67937500Y-60725000D03*
X67937500Y-61375000D03*
X67937500Y-62025000D03*
X67937500Y-62675000D03*
X67937500Y-63325000D03*
X67937500Y-63975000D03*
X67937500Y-64625000D03*
X67937500Y-65275000D03*
X67937500Y-65925000D03*
X67937500Y-66575000D03*
X67937500Y-67225000D03*
X73662500Y-67225000D03*
X73662500Y-66575000D03*
X73662500Y-65925000D03*
X73662500Y-65275000D03*
X73662500Y-64625000D03*
X73662500Y-63975000D03*
X73662500Y-63325000D03*
X73662500Y-62675000D03*
X73662500Y-62025000D03*
X73662500Y-61375000D03*
X73662500Y-60725000D03*
X73662500Y-60075000D03*
X73662500Y-59425000D03*
X73662500Y-58775000D03*
D27*
X54610000Y-104150000D03*
D23*
X58420000Y-104150000D03*
X62230000Y-104150000D03*
X66040000Y-104150000D03*
X69850000Y-104150000D03*
D14*
X65680000Y-53575000D03*
X65680000Y-56500000D03*
D28*
X109200000Y-39100000D03*
D14*
X68040000Y-53575000D03*
X68040000Y-56500000D03*
X72454540Y-76400000D03*
X72454540Y-79325000D03*
D24*
X81800000Y-61725000D03*
X81800000Y-58800000D03*
D14*
X58600000Y-71075000D03*
X58600000Y-74000000D03*
D29*
X102500000Y-87115000D03*
X102500000Y-85845000D03*
X102500000Y-84575000D03*
X102500000Y-83305000D03*
X95500000Y-83305000D03*
X95500000Y-84575000D03*
X95500000Y-85845000D03*
X95500000Y-87115000D03*
D15*
X100315000Y-106550000D03*
D16*
X100315000Y-104550000D03*
X100315000Y-102550000D03*
X100315000Y-100550000D03*
D13*
X97100000Y-44700000D03*
X97100000Y-45970000D03*
X97100000Y-47240000D03*
X97100000Y-48510000D03*
X104100000Y-48510000D03*
X104100000Y-47240000D03*
X104100000Y-45970000D03*
X104100000Y-44700000D03*
D30*
X95005000Y-64025000D03*
X93735000Y-64025000D03*
X92465000Y-64025000D03*
X91195000Y-64025000D03*
X91195000Y-68975000D03*
X92465000Y-68975000D03*
X93735000Y-68975000D03*
X95005000Y-68975000D03*
D14*
X63320000Y-53575000D03*
X63320000Y-56500000D03*
D24*
X77200000Y-61725000D03*
X77200000Y-58800000D03*
D14*
X72485710Y-71075000D03*
X72485710Y-74000000D03*
D24*
X108200000Y-58562500D03*
X108200000Y-55637500D03*
D14*
X74763630Y-76400000D03*
X74763630Y-79325000D03*
X84000000Y-76400000D03*
X84000000Y-79325000D03*
D29*
X80800000Y-94205000D03*
X80800000Y-92935000D03*
X80800000Y-91665000D03*
X80800000Y-90395000D03*
X73800000Y-90395000D03*
X73800000Y-91665000D03*
X73800000Y-92935000D03*
X73800000Y-94205000D03*
D31*
X88000000Y-58162500D03*
X88000000Y-61237500D03*
D32*
X104100000Y-59800000D03*
X104100000Y-55400000D03*
D24*
X81800000Y-56362500D03*
X81800000Y-53437500D03*
D29*
X80800000Y-87205000D03*
X80800000Y-85935000D03*
X80800000Y-84665000D03*
X80800000Y-83395000D03*
X73800000Y-83395000D03*
X73800000Y-84665000D03*
X73800000Y-85935000D03*
X73800000Y-87205000D03*
D14*
X60914285Y-71075000D03*
X60914285Y-74000000D03*
D33*
X92400000Y-61000000D03*
X92400000Y-58000000D03*
D14*
X74800000Y-71075000D03*
X74800000Y-74000000D03*
D24*
X84100000Y-56362500D03*
X84100000Y-53437500D03*
D34*
X107740000Y-65600000D03*
D35*
X106470000Y-65600000D03*
X105200000Y-65600000D03*
D24*
X84100000Y-61725000D03*
X84100000Y-58800000D03*
D29*
X92200000Y-48610000D03*
X92200000Y-47340000D03*
X92200000Y-46070000D03*
X92200000Y-44800000D03*
X85200000Y-44800000D03*
X85200000Y-46070000D03*
X85200000Y-47340000D03*
X85200000Y-48610000D03*
D24*
X79500000Y-56362500D03*
X79500000Y-53437500D03*
D13*
X63600000Y-90395000D03*
X63600000Y-91665000D03*
X63600000Y-92935000D03*
X63600000Y-94205000D03*
X70600000Y-94205000D03*
X70600000Y-92935000D03*
X70600000Y-91665000D03*
X70600000Y-90395000D03*
D28*
X57300000Y-39100000D03*
D14*
X84000000Y-71075000D03*
X84000000Y-74000000D03*
D29*
X102500000Y-94205000D03*
X102500000Y-92935000D03*
X102500000Y-91665000D03*
X102500000Y-90395000D03*
X95500000Y-90395000D03*
X95500000Y-91665000D03*
X95500000Y-92935000D03*
X95500000Y-94205000D03*
X92200000Y-41710000D03*
X92200000Y-40440000D03*
X92200000Y-39170000D03*
X92200000Y-37900000D03*
X85200000Y-37900000D03*
X85200000Y-39170000D03*
X85200000Y-40440000D03*
X85200000Y-41710000D03*
D14*
X58600000Y-53537500D03*
X58600000Y-56462500D03*
D36*
X99400000Y-69800000D03*
D37*
X99400000Y-67300000D03*
X99400000Y-64800000D03*
X99400000Y-62300000D03*
D14*
X79400000Y-71075000D03*
X79400000Y-74000000D03*
D38*
X106125000Y-86500000D03*
X109100000Y-86500000D03*
D14*
X58600000Y-76400000D03*
X58600000Y-79325000D03*
D29*
X68900000Y-48510000D03*
X68900000Y-47240000D03*
X68900000Y-45970000D03*
X68900000Y-44700000D03*
X61900000Y-44700000D03*
X61900000Y-45970000D03*
X61900000Y-47240000D03*
X61900000Y-48510000D03*
D14*
X70171425Y-71075000D03*
X70171425Y-74000000D03*
D13*
X63600000Y-83395000D03*
X63600000Y-84665000D03*
X63600000Y-85935000D03*
X63600000Y-87205000D03*
X70600000Y-87205000D03*
X70600000Y-85935000D03*
X70600000Y-84665000D03*
X70600000Y-83395000D03*
D29*
X68900000Y-41605000D03*
X68900000Y-40335000D03*
X68900000Y-39065000D03*
X68900000Y-37795000D03*
X61900000Y-37795000D03*
X61900000Y-39065000D03*
X61900000Y-40335000D03*
X61900000Y-41605000D03*
D14*
X84600000Y-64837500D03*
X84600000Y-67762500D03*
D24*
X97100000Y-71862500D03*
X97100000Y-68937500D03*
D28*
X57335393Y-92953512D03*
D39*
X95725000Y-76500000D03*
X102675000Y-76500000D03*
D28*
X109200000Y-93000000D03*
D22*
X70725000Y-28350000D03*
D23*
X66915000Y-28350000D03*
X63105000Y-28350000D03*
X59295000Y-28350000D03*
X55485000Y-28350000D03*
D22*
X112010000Y-28350000D03*
D23*
X108200000Y-28350000D03*
D14*
X77100000Y-71075000D03*
X77100000Y-74000000D03*
X65527270Y-76400000D03*
X65527270Y-79325000D03*
D25*
X113862500Y-86500000D03*
X110937500Y-86500000D03*
D13*
X85700000Y-83300000D03*
X85700000Y-84570000D03*
X85700000Y-85840000D03*
X85700000Y-87110000D03*
X92700000Y-87110000D03*
X92700000Y-85840000D03*
X92700000Y-84570000D03*
X92700000Y-83300000D03*
D25*
X92062500Y-76300000D03*
X89137500Y-76300000D03*
D24*
X79500000Y-61725000D03*
X79500000Y-58800000D03*
D27*
X76385000Y-104150000D03*
D23*
X80195000Y-104150000D03*
X84005000Y-104150000D03*
X87815000Y-104150000D03*
X91625000Y-104150000D03*
D14*
X70400000Y-53575000D03*
X70400000Y-56500000D03*
M02*
