G04 #@! TF.GenerationSoftware,KiCad,Pcbnew,8.0.5*
G04 #@! TF.CreationDate,2024-10-29T22:07:05+01:00*
G04 #@! TF.ProjectId,pwm_i2c,70776d5f-6932-4632-9e6b-696361645f70,rev?*
G04 #@! TF.SameCoordinates,Original*
G04 #@! TF.FileFunction,Paste,Top*
G04 #@! TF.FilePolarity,Positive*
%FSLAX46Y46*%
G04 Gerber Fmt 4.6, Leading zero omitted, Abs format (unit mm)*
G04 Created by KiCad (PCBNEW 8.0.5) date 2024-10-29 22:07:05*
%MOMM*%
%LPD*%
G01*
G04 APERTURE LIST*
G04 Aperture macros list*
%AMRoundRect*
0 Rectangle with rounded corners*
0 $1 Rounding radius*
0 $2 $3 $4 $5 $6 $7 $8 $9 X,Y pos of 4 corners*
0 Add a 4 corners polygon primitive as box body*
4,1,4,$2,$3,$4,$5,$6,$7,$8,$9,$2,$3,0*
0 Add four circle primitives for the rounded corners*
1,1,$1+$1,$2,$3*
1,1,$1+$1,$4,$5*
1,1,$1+$1,$6,$7*
1,1,$1+$1,$8,$9*
0 Add four rect primitives between the rounded corners*
20,1,$1+$1,$2,$3,$4,$5,0*
20,1,$1+$1,$4,$5,$6,$7,0*
20,1,$1+$1,$6,$7,$8,$9,0*
20,1,$1+$1,$8,$9,$2,$3,0*%
G04 Aperture macros list end*
%ADD10RoundRect,0.150000X-0.800000X-0.150000X0.800000X-0.150000X0.800000X0.150000X-0.800000X0.150000X0*%
%ADD11RoundRect,0.250000X-0.625000X0.312500X-0.625000X-0.312500X0.625000X-0.312500X0.625000X0.312500X0*%
%ADD12RoundRect,0.250000X1.100000X-0.500000X1.100000X0.500000X-1.100000X0.500000X-1.100000X-0.500000X0*%
%ADD13RoundRect,0.250000X0.625000X-0.312500X0.625000X0.312500X-0.625000X0.312500X-0.625000X-0.312500X0*%
%ADD14RoundRect,0.250000X0.312500X0.625000X-0.312500X0.625000X-0.312500X-0.625000X0.312500X-0.625000X0*%
%ADD15RoundRect,0.100000X-0.637500X-0.100000X0.637500X-0.100000X0.637500X0.100000X-0.637500X0.100000X0*%
%ADD16RoundRect,0.150000X0.800000X0.150000X-0.800000X0.150000X-0.800000X-0.150000X0.800000X-0.150000X0*%
%ADD17RoundRect,0.150000X-0.150000X0.825000X-0.150000X-0.825000X0.150000X-0.825000X0.150000X0.825000X0*%
%ADD18RoundRect,0.250000X-0.925000X0.412500X-0.925000X-0.412500X0.925000X-0.412500X0.925000X0.412500X0*%
%ADD19RoundRect,0.250000X0.550000X-1.250000X0.550000X1.250000X-0.550000X1.250000X-0.550000X-1.250000X0*%
%ADD20R,3.700000X1.100000*%
%ADD21RoundRect,0.250001X-0.462499X-0.624999X0.462499X-0.624999X0.462499X0.624999X-0.462499X0.624999X0*%
%ADD22RoundRect,0.250000X-1.825000X-0.700000X1.825000X-0.700000X1.825000X0.700000X-1.825000X0.700000X0*%
G04 APERTURE END LIST*
D10*
X73900000Y-37830000D03*
X73900000Y-39100000D03*
X73900000Y-40370000D03*
X73900000Y-41640000D03*
X80900000Y-41640000D03*
X80900000Y-40370000D03*
X80900000Y-39100000D03*
X80900000Y-37830000D03*
D11*
X65542855Y-71075000D03*
X65542855Y-74000000D03*
D10*
X97100000Y-37790000D03*
X97100000Y-39060000D03*
X97100000Y-40330000D03*
X97100000Y-41600000D03*
X104100000Y-41600000D03*
X104100000Y-40330000D03*
X104100000Y-39060000D03*
X104100000Y-37790000D03*
D11*
X67857140Y-71075000D03*
X67857140Y-74000000D03*
D10*
X73900000Y-44700000D03*
X73900000Y-45970000D03*
X73900000Y-47240000D03*
X73900000Y-48510000D03*
X80900000Y-48510000D03*
X80900000Y-47240000D03*
X80900000Y-45970000D03*
X80900000Y-44700000D03*
D11*
X77072720Y-76400000D03*
X77072720Y-79325000D03*
X79381810Y-76400000D03*
X79381810Y-79325000D03*
X86900000Y-64837500D03*
X86900000Y-67762500D03*
X60909090Y-76400000D03*
X60909090Y-79325000D03*
X60960000Y-53537500D03*
X60960000Y-56462500D03*
D12*
X96500000Y-58900000D03*
X96500000Y-54100000D03*
D11*
X70145450Y-76400000D03*
X70145450Y-79325000D03*
X63228570Y-71075000D03*
X63228570Y-74000000D03*
D10*
X85700000Y-90300000D03*
X85700000Y-91570000D03*
X85700000Y-92840000D03*
X85700000Y-94110000D03*
X92700000Y-94110000D03*
X92700000Y-92840000D03*
X92700000Y-91570000D03*
X92700000Y-90300000D03*
D11*
X67836360Y-76400000D03*
X67836360Y-79325000D03*
X81690900Y-76400000D03*
X81690900Y-79325000D03*
D13*
X77200000Y-56362500D03*
X77200000Y-53437500D03*
D11*
X81700000Y-71075000D03*
X81700000Y-74000000D03*
X63218180Y-76400000D03*
X63218180Y-79325000D03*
D14*
X92062500Y-73700000D03*
X89137500Y-73700000D03*
D15*
X67937500Y-58775000D03*
X67937500Y-59425000D03*
X67937500Y-60075000D03*
X67937500Y-60725000D03*
X67937500Y-61375000D03*
X67937500Y-62025000D03*
X67937500Y-62675000D03*
X67937500Y-63325000D03*
X67937500Y-63975000D03*
X67937500Y-64625000D03*
X67937500Y-65275000D03*
X67937500Y-65925000D03*
X67937500Y-66575000D03*
X67937500Y-67225000D03*
X73662500Y-67225000D03*
X73662500Y-66575000D03*
X73662500Y-65925000D03*
X73662500Y-65275000D03*
X73662500Y-64625000D03*
X73662500Y-63975000D03*
X73662500Y-63325000D03*
X73662500Y-62675000D03*
X73662500Y-62025000D03*
X73662500Y-61375000D03*
X73662500Y-60725000D03*
X73662500Y-60075000D03*
X73662500Y-59425000D03*
X73662500Y-58775000D03*
D11*
X65680000Y-53575000D03*
X65680000Y-56500000D03*
X68040000Y-53575000D03*
X68040000Y-56500000D03*
X72454540Y-76400000D03*
X72454540Y-79325000D03*
D13*
X81800000Y-61725000D03*
X81800000Y-58800000D03*
D11*
X58600000Y-71075000D03*
X58600000Y-74000000D03*
D16*
X102500000Y-87115000D03*
X102500000Y-85845000D03*
X102500000Y-84575000D03*
X102500000Y-83305000D03*
X95500000Y-83305000D03*
X95500000Y-84575000D03*
X95500000Y-85845000D03*
X95500000Y-87115000D03*
D10*
X97100000Y-44700000D03*
X97100000Y-45970000D03*
X97100000Y-47240000D03*
X97100000Y-48510000D03*
X104100000Y-48510000D03*
X104100000Y-47240000D03*
X104100000Y-45970000D03*
X104100000Y-44700000D03*
D17*
X95005000Y-64025000D03*
X93735000Y-64025000D03*
X92465000Y-64025000D03*
X91195000Y-64025000D03*
X91195000Y-68975000D03*
X92465000Y-68975000D03*
X93735000Y-68975000D03*
X95005000Y-68975000D03*
D11*
X63320000Y-53575000D03*
X63320000Y-56500000D03*
D13*
X77200000Y-61725000D03*
X77200000Y-58800000D03*
D11*
X72485710Y-71075000D03*
X72485710Y-74000000D03*
D13*
X108200000Y-58562500D03*
X108200000Y-55637500D03*
D11*
X74763630Y-76400000D03*
X74763630Y-79325000D03*
X84000000Y-76400000D03*
X84000000Y-79325000D03*
D16*
X80800000Y-94205000D03*
X80800000Y-92935000D03*
X80800000Y-91665000D03*
X80800000Y-90395000D03*
X73800000Y-90395000D03*
X73800000Y-91665000D03*
X73800000Y-92935000D03*
X73800000Y-94205000D03*
D18*
X88000000Y-58162500D03*
X88000000Y-61237500D03*
D19*
X104100000Y-59800000D03*
X104100000Y-55400000D03*
D13*
X81800000Y-56362500D03*
X81800000Y-53437500D03*
D16*
X80800000Y-87205000D03*
X80800000Y-85935000D03*
X80800000Y-84665000D03*
X80800000Y-83395000D03*
X73800000Y-83395000D03*
X73800000Y-84665000D03*
X73800000Y-85935000D03*
X73800000Y-87205000D03*
D11*
X60914285Y-71075000D03*
X60914285Y-74000000D03*
D20*
X92400000Y-61000000D03*
X92400000Y-58000000D03*
D11*
X74800000Y-71075000D03*
X74800000Y-74000000D03*
D13*
X84100000Y-56362500D03*
X84100000Y-53437500D03*
X84100000Y-61725000D03*
X84100000Y-58800000D03*
D16*
X92200000Y-48610000D03*
X92200000Y-47340000D03*
X92200000Y-46070000D03*
X92200000Y-44800000D03*
X85200000Y-44800000D03*
X85200000Y-46070000D03*
X85200000Y-47340000D03*
X85200000Y-48610000D03*
D13*
X79500000Y-56362500D03*
X79500000Y-53437500D03*
D10*
X63600000Y-90395000D03*
X63600000Y-91665000D03*
X63600000Y-92935000D03*
X63600000Y-94205000D03*
X70600000Y-94205000D03*
X70600000Y-92935000D03*
X70600000Y-91665000D03*
X70600000Y-90395000D03*
D11*
X84000000Y-71075000D03*
X84000000Y-74000000D03*
D16*
X102500000Y-94205000D03*
X102500000Y-92935000D03*
X102500000Y-91665000D03*
X102500000Y-90395000D03*
X95500000Y-90395000D03*
X95500000Y-91665000D03*
X95500000Y-92935000D03*
X95500000Y-94205000D03*
X92200000Y-41710000D03*
X92200000Y-40440000D03*
X92200000Y-39170000D03*
X92200000Y-37900000D03*
X85200000Y-37900000D03*
X85200000Y-39170000D03*
X85200000Y-40440000D03*
X85200000Y-41710000D03*
D11*
X58600000Y-53537500D03*
X58600000Y-56462500D03*
X79400000Y-71075000D03*
X79400000Y-74000000D03*
D21*
X106125000Y-86500000D03*
X109100000Y-86500000D03*
D11*
X58600000Y-76400000D03*
X58600000Y-79325000D03*
D16*
X68900000Y-48510000D03*
X68900000Y-47240000D03*
X68900000Y-45970000D03*
X68900000Y-44700000D03*
X61900000Y-44700000D03*
X61900000Y-45970000D03*
X61900000Y-47240000D03*
X61900000Y-48510000D03*
D11*
X70171425Y-71075000D03*
X70171425Y-74000000D03*
D10*
X63600000Y-83395000D03*
X63600000Y-84665000D03*
X63600000Y-85935000D03*
X63600000Y-87205000D03*
X70600000Y-87205000D03*
X70600000Y-85935000D03*
X70600000Y-84665000D03*
X70600000Y-83395000D03*
D16*
X68900000Y-41605000D03*
X68900000Y-40335000D03*
X68900000Y-39065000D03*
X68900000Y-37795000D03*
X61900000Y-37795000D03*
X61900000Y-39065000D03*
X61900000Y-40335000D03*
X61900000Y-41605000D03*
D11*
X84600000Y-64837500D03*
X84600000Y-67762500D03*
D13*
X97100000Y-71862500D03*
X97100000Y-68937500D03*
D22*
X95725000Y-76500000D03*
X102675000Y-76500000D03*
D11*
X77100000Y-71075000D03*
X77100000Y-74000000D03*
X65527270Y-76400000D03*
X65527270Y-79325000D03*
D14*
X113862500Y-86500000D03*
X110937500Y-86500000D03*
D10*
X85700000Y-83300000D03*
X85700000Y-84570000D03*
X85700000Y-85840000D03*
X85700000Y-87110000D03*
X92700000Y-87110000D03*
X92700000Y-85840000D03*
X92700000Y-84570000D03*
X92700000Y-83300000D03*
D14*
X92062500Y-76300000D03*
X89137500Y-76300000D03*
D13*
X79500000Y-61725000D03*
X79500000Y-58800000D03*
D11*
X70400000Y-53575000D03*
X70400000Y-56500000D03*
M02*
