M48
; DRILL file {KiCad 8.0.5} date 2024-10-29T22:07:10+0100
; FORMAT={-:-/ absolute / metric / decimal}
; #@! TF.CreationDate,2024-10-29T22:07:10+01:00
; #@! TF.GenerationSoftware,Kicad,Pcbnew,8.0.5
; #@! TF.FileFunction,Plated,1,4,PTH
FMAT,2
METRIC
; #@! TA.AperFunction,Plated,PTH,ViaDrill
T1C0.300
; #@! TA.AperFunction,Plated,PTH,ViaDrill
T2C0.400
; #@! TA.AperFunction,Plated,PTH,ComponentDrill
T3C0.750
; #@! TA.AperFunction,Plated,PTH,ComponentDrill
T4C0.762
; #@! TA.AperFunction,Plated,PTH,ComponentDrill
T5C1.000
; #@! TA.AperFunction,Plated,PTH,ComponentDrill
T6C1.200
%
G90
G05
T1
X56.8Y-71.6
X57.2Y-76.5
X58.6Y-75.2
X60.9Y-75.2
X61.2Y-85.8
X63.2Y-75.2
X65.543Y-75.2
X67.8Y-52.3
X67.8Y-82.8
X67.857Y-75.1
X68.0Y-84.0
X69.0Y-52.3
X70.171Y-75.2
X70.7Y-65.3
X71.4Y-49.646
X72.486Y-75.1
X72.954Y-54.127
X73.6Y-50.6
X74.8Y-50.6
X74.8Y-75.2
X76.0Y-57.3
X77.1Y-75.2
X77.2Y-57.6
X77.3Y-54.6
X77.4Y-83.0
X78.7Y-83.0
X79.4Y-75.2
X79.5Y-57.6
X81.7Y-75.2
X81.8Y-57.6
X84.0Y-75.2
X84.1Y-57.6
X88.8Y-83.3
X88.9Y-50.1
X89.6Y-70.3
X90.0Y-50.3
X90.0Y-83.1
X96.0Y-106.2
X96.8Y-50.8
X97.0Y-102.1
X98.0Y-50.873
X100.505Y-83.305
X100.7Y-85.3
X114.5Y-78.9
T2
X52.9Y-92.7
X53.0Y-35.0
X53.0Y-38.1
X53.0Y-41.1
X53.0Y-44.1
X53.0Y-47.1
X53.0Y-50.4
X53.0Y-53.2
X53.0Y-55.9
X53.0Y-58.7
X53.0Y-61.2
X53.0Y-63.7
X53.0Y-66.0
X53.0Y-68.1
X53.0Y-70.3
X53.0Y-72.8
X53.0Y-76.0
X53.0Y-78.6
X53.0Y-81.4
X53.0Y-84.1
X53.0Y-87.0
X53.0Y-89.5
X53.0Y-96.2
X53.0Y-98.7
X53.6Y-101.4
X55.6Y-107.5
X56.6Y-34.9
X56.7Y-55.6
X56.85Y-57.95
X57.0Y-42.2
X57.0Y-44.4
X57.0Y-46.7
X57.0Y-49.1
X57.0Y-51.5
X57.0Y-68.7
X57.3Y-63.6
X58.1Y-36.5
X58.5Y-43.2
X58.5Y-107.5
X58.6Y-45.6
X58.7Y-47.9
X59.6Y-51.5
X60.053Y-62.953
X60.779Y-63.679
X61.2Y-87.0
X61.6Y-25.044
X61.8Y-51.5
X62.0Y-85.935
X62.2Y-107.5
X64.1Y-89.0
X64.8Y-107.5
X66.0Y-25.044
X67.3Y-107.5
X69.7Y-107.5
X70.5Y-24.987
X70.7Y-62.1
X71.4Y-40.0
X71.4Y-42.0
X71.4Y-44.0
X71.4Y-45.9
X71.4Y-47.892
X71.45Y-37.85
X72.1Y-107.5
X72.2Y-80.5
X75.2Y-24.987
X75.2Y-60.9
X77.7Y-47.4
X78.7Y-24.987
X78.7Y-50.5
X78.7Y-52.5
X81.1Y-52.5
X81.1Y-88.7
X82.7Y-24.987
X83.0Y-50.5
X83.0Y-52.5
X83.2Y-85.0
X83.2Y-87.7
X83.2Y-91.3
X83.2Y-94.504
X85.5Y-88.8
X86.6Y-59.5
X86.6Y-71.9
X86.7Y-24.987
X86.7Y-74.5
X86.7Y-77.8
X88.0Y-47.9
X89.2Y-78.4
X89.7Y-56.8
X89.9Y-64.9
X90.0Y-24.987
X90.0Y-63.7
X93.0Y-24.996
X93.9Y-80.5
X94.6Y-39.0
X94.6Y-40.9
X94.6Y-42.8
X94.6Y-44.9
X94.6Y-46.9
X94.6Y-49.2
X96.3Y-28.8
X97.3Y-65.7
X97.3Y-80.5
X97.7Y-24.996
X98.9Y-28.8
X99.2Y-78.4
X99.4Y-74.6
X100.0Y-52.5
X100.3Y-80.5
X100.8Y-48.2
X100.9Y-50.1
X101.9Y-24.996
X102.2Y-28.8
X102.2Y-96.0
X102.5Y-52.5
X102.7Y-88.6
X103.35Y-67.45
X103.5Y-80.5
X104.2Y-70.5
X104.5Y-28.8
X104.7Y-31.3
X104.8Y-68.9
X104.9Y-82.3
X104.9Y-85.0
X104.9Y-88.3
X104.9Y-91.9
X104.9Y-95.2
X105.2Y-52.5
X105.3Y-74.5
X105.5Y-80.5
X106.2Y-78.1
X106.5Y-33.4
X106.6Y-24.996
X106.9Y-43.0
X106.9Y-46.4
X107.2Y-50.1
X107.3Y-83.1
X107.4Y-95.6
X107.5Y-90.1
X108.0Y-52.5
X108.2Y-35.9
X108.4Y-44.8
X108.5Y-48.1
X108.6Y-41.9
X108.6Y-80.5
X108.825Y-31.375
X109.9Y-89.9
X109.975Y-32.525
X110.2Y-50.1
X110.2Y-52.5
X110.2Y-83.2
X110.3Y-43.1
X110.4Y-46.5
X111.075Y-33.625
X112.175Y-34.725
X112.6Y-52.5
X113.575Y-36.125
X113.6Y-39.3
X113.6Y-42.5
X113.6Y-45.4
X113.6Y-48.2
X113.6Y-55.6
X113.6Y-58.7
X113.6Y-60.8
X113.6Y-63.2
X113.6Y-66.6
X113.6Y-70.4
X113.6Y-73.8
T3
X105.2Y-65.6
X106.47Y-65.6
X107.74Y-65.6
T4
X100.315Y-100.55
X100.315Y-102.55
X100.315Y-104.55
X100.315Y-106.55
X107.85Y-100.55
X107.85Y-102.55
X107.85Y-104.55
X107.85Y-106.55
T5
X55.375Y-59.975
X55.375Y-62.515
X55.375Y-65.055
X55.375Y-67.595
X55.375Y-70.135
X55.375Y-72.675
X99.4Y-62.3
X99.4Y-64.8
X99.4Y-67.3
X99.4Y-69.8
X111.125Y-59.975
X111.125Y-62.515
X111.125Y-65.055
X111.125Y-67.595
X111.125Y-70.135
X111.125Y-72.675
T6
X54.61Y-104.15
X55.485Y-28.35
X58.42Y-104.15
X59.295Y-28.35
X62.23Y-104.15
X63.105Y-28.35
X66.04Y-104.15
X66.915Y-28.35
X69.85Y-104.15
X70.725Y-28.35
X76.385Y-104.15
X77.15Y-28.35
X80.195Y-104.15
X80.96Y-28.35
X84.005Y-104.15
X84.77Y-28.35
X87.815Y-104.15
X88.58Y-28.35
X91.625Y-104.15
X92.39Y-28.35
X108.2Y-28.35
X112.01Y-28.35
M30
