G04 #@! TF.GenerationSoftware,KiCad,Pcbnew,8.0.5*
G04 #@! TF.CreationDate,2024-10-29T22:07:05+01:00*
G04 #@! TF.ProjectId,pwm_i2c,70776d5f-6932-4632-9e6b-696361645f70,rev?*
G04 #@! TF.SameCoordinates,Original*
G04 #@! TF.FileFunction,Paste,Bot*
G04 #@! TF.FilePolarity,Positive*
%FSLAX46Y46*%
G04 Gerber Fmt 4.6, Leading zero omitted, Abs format (unit mm)*
G04 Created by KiCad (PCBNEW 8.0.5) date 2024-10-29 22:07:05*
%MOMM*%
%LPD*%
G01*
G04 APERTURE LIST*
G04 Aperture macros list*
%AMRoundRect*
0 Rectangle with rounded corners*
0 $1 Rounding radius*
0 $2 $3 $4 $5 $6 $7 $8 $9 X,Y pos of 4 corners*
0 Add a 4 corners polygon primitive as box body*
4,1,4,$2,$3,$4,$5,$6,$7,$8,$9,$2,$3,0*
0 Add four circle primitives for the rounded corners*
1,1,$1+$1,$2,$3*
1,1,$1+$1,$4,$5*
1,1,$1+$1,$6,$7*
1,1,$1+$1,$8,$9*
0 Add four rect primitives between the rounded corners*
20,1,$1+$1,$2,$3,$4,$5,0*
20,1,$1+$1,$4,$5,$6,$7,0*
20,1,$1+$1,$6,$7,$8,$9,0*
20,1,$1+$1,$8,$9,$2,$3,0*%
G04 Aperture macros list end*
%ADD10RoundRect,0.250000X0.625000X-0.375000X0.625000X0.375000X-0.625000X0.375000X-0.625000X-0.375000X0*%
%ADD11RoundRect,0.250000X-0.625000X0.375000X-0.625000X-0.375000X0.625000X-0.375000X0.625000X0.375000X0*%
%ADD12RoundRect,0.250000X0.625000X-0.312500X0.625000X0.312500X-0.625000X0.312500X-0.625000X-0.312500X0*%
%ADD13RoundRect,0.250000X-0.625000X0.312500X-0.625000X-0.312500X0.625000X-0.312500X0.625000X0.312500X0*%
G04 APERTURE END LIST*
D10*
X79500000Y-61700000D03*
X79500000Y-58900000D03*
X63200000Y-84137500D03*
X63200000Y-81337500D03*
D11*
X91200000Y-63700000D03*
X91200000Y-66500000D03*
X88800000Y-63700000D03*
X88800000Y-66500000D03*
X67800000Y-63800000D03*
X67800000Y-66600000D03*
X86500000Y-63700000D03*
X86500000Y-66500000D03*
D10*
X77200000Y-66500000D03*
X77200000Y-63700000D03*
X58600000Y-84100000D03*
X58600000Y-81300000D03*
X79500000Y-66400000D03*
X79500000Y-63600000D03*
D12*
X84100000Y-61762500D03*
X84100000Y-58837500D03*
D13*
X72400000Y-71075000D03*
X72400000Y-74000000D03*
X79400000Y-71075000D03*
X79400000Y-74000000D03*
D12*
X65500000Y-79362500D03*
X65500000Y-76437500D03*
D13*
X70100000Y-71075000D03*
X70100000Y-74000000D03*
X84000000Y-71075000D03*
X84000000Y-74000000D03*
D12*
X58600000Y-79362500D03*
X58600000Y-76437500D03*
D10*
X65500000Y-84137500D03*
X65500000Y-81337500D03*
D11*
X93600000Y-63700000D03*
X93600000Y-66500000D03*
D13*
X77100000Y-71075000D03*
X77100000Y-74000000D03*
D10*
X81800000Y-66500000D03*
X81800000Y-63700000D03*
D12*
X81787532Y-61771015D03*
X81787532Y-58846015D03*
D11*
X72400000Y-63800000D03*
X72400000Y-66600000D03*
D13*
X74800000Y-71037500D03*
X74800000Y-73962500D03*
D12*
X60900000Y-79362500D03*
X60900000Y-76437500D03*
D11*
X70100000Y-63800000D03*
X70100000Y-66600000D03*
X74700000Y-63800000D03*
X74700000Y-66600000D03*
D12*
X77195001Y-61765007D03*
X77195001Y-58840007D03*
D10*
X84105338Y-66496645D03*
X84105338Y-63696645D03*
X60900000Y-84100000D03*
X60900000Y-81300000D03*
D13*
X67800000Y-71075000D03*
X67800000Y-74000000D03*
X81700000Y-71075000D03*
X81700000Y-74000000D03*
D12*
X63200000Y-79362500D03*
X63200000Y-76437500D03*
M02*
